<?xml version="1.0" encoding="utf-8"?>
<!-- Generator: Adobe Illustrator 19.0.0, SVG Export Plug-In . SVG Version: 6.00 Build 0)  -->
<svg version="1.1" id="Layer_1" xmlns="http://www.w3.org/2000/svg" xmlns:xlink="http://www.w3.org/1999/xlink" x="0px" y="0px"
	 viewBox="0 0 231 329.3" style="enable-background:new 0 0 231 329.3;" xml:space="preserve">
<style type="text/css">
	.st0{stroke:#000000;stroke-linecap:round;stroke-linejoin:round;}
	.st1{stroke:#000000;stroke-miterlimit:10;}
</style>
<path id="XMLID_7_" class="st0" d="M116,0.8C54,0.8,3.8,59.4,3.8,131.7h4c0-70,48.6-126.8,108.7-126.8c60,0,108.7,56.8,108.7,126.8
	h3C228.2,59.4,177.9,0.8,116,0.8z"/>
<path id="XMLID_12_" class="st1" d="M223.3,209.7l-2.5,14.1l-36,46.4l-33.6-43l-34.8-8.5l-34.8,8.5l-33.6,43l-36-46.4l-2.5-14.1
	l-4.8,1.5l2.2,15l9.1,30.8l24.8,28.3l35.1,30l40.4,12.8l40.4-12.8l35.1-30l24.8-28.3l9.1-30.8l2.2-15L223.3,209.7z M136.7,292.9
	l-20.2,1l-20.2-1l-27-8.5l2.2-20.3L83,239.9l33.5-6l33.5,6l11.6,24.3l2.2,20.3L136.7,292.9z"/>
<polygon id="XMLID_18_" points="30,138.8 38.6,129 83.1,133.9 87.6,138.8 "/>
<polygon id="XMLID_15_" points="203.6,138.8 195,129 150.4,133.9 146,138.8 "/>
</svg>
