<?xml version="1.0" standalone="no"?>
<!DOCTYPE svg PUBLIC "-//W3C//DTD SVG 20010904//EN"
 "http://www.w3.org/TR/2001/REC-SVG-20010904/DTD/svg10.dtd">
<svg version="1.0" xmlns="http://www.w3.org/2000/svg"
 width="343.000000pt" height="343.000000pt" viewBox="0 0 343.000000 343.000000"
 preserveAspectRatio="xMidYMid meet">
<metadata>
Created by potrace 1.11, written by Peter Selinger 2001-2013
</metadata>
<g transform="translate(0.000000,343.000000) scale(0.100000,-0.100000)"
fill="#000000" stroke="none">
<path d="M1650 3324 c-176 -25 -255 -47 -373 -105 -172 -84 -323 -220 -444
-400 -114 -168 -198 -385 -220 -564 -2 -21 -7 -57 -11 -80 -4 -22 -7 -69 -7
-104 0 -53 3 -64 17 -67 25 -3 30 9 34 85 16 298 124 584 303 799 105 126 212
211 356 282 374 187 789 116 1107 -188 228 -218 374 -549 392 -887 3 -44 5
-83 5 -87 1 -3 9 -5 19 -4 14 3 17 13 16 62 -6 432 -226 855 -561 1083 -101
68 -255 136 -355 155 -76 15 -233 26 -278 20z"/>
<path d="M897 1991 c-27 -28 -45 -52 -40 -52 32 -5 576 -3 579 2 5 9 -44 53
-64 55 -9 1 -64 7 -122 14 -58 6 -118 13 -135 15 -16 2 -61 7 -100 10 l-70 7
-48 -51z"/>
<path d="M2427 2034 c-1 -1 -40 -5 -87 -9 -47 -4 -87 -8 -90 -10 -3 -1 -41 -6
-85 -9 -102 -9 -111 -12 -134 -44 l-19 -27 292 0 c160 0 291 2 291 5 0 3 -18
27 -39 53 -37 45 -42 48 -83 46 -24 -2 -44 -4 -46 -5z"/>
<path d="M628 1228 c-22 -7 -27 -15 -24 -31 3 -12 8 -44 11 -72 6 -47 89 -346
104 -372 3 -6 20 -26 36 -45 17 -18 59 -67 95 -108 82 -94 128 -141 209 -210
35 -30 69 -60 75 -65 6 -6 50 -43 97 -83 93 -78 62 -64 432 -183 l58 -18 107
33 c325 102 291 85 447 220 78 66 157 135 176 151 28 24 202 218 267 297 26
31 107 320 118 420 6 54 5 58 -17 67 -30 11 -36 2 -44 -69 -7 -62 -27 -93
-220 -335 -22 -27 -63 -80 -90 -117 -28 -37 -52 -67 -55 -68 -3 0 -79 95 -169
210 -142 182 -169 211 -200 220 -116 30 -300 71 -321 71 -21 1 -174 -35 -312
-72 -31 -8 -52 -29 -128 -127 -50 -64 -100 -128 -111 -142 -11 -14 -43 -55
-72 -92 -29 -37 -55 -66 -59 -65 -4 1 -49 57 -100 123 -51 67 -123 160 -160
207 -87 111 -95 125 -102 167 -8 51 -17 94 -19 96 -1 1 -14 -3 -29 -8z m1148
-253 c16 -3 44 -8 63 -11 18 -3 41 -7 50 -9 9 -1 50 -8 91 -15 l75 -12 59
-122 c57 -120 67 -158 70 -270 l1 -50 -132 -42 c-141 -44 -177 -49 -396 -45
-119 2 -128 4 -332 68 -68 21 -65 14 -53 147 6 53 18 91 58 173 27 57 50 108
50 113 0 16 27 29 75 35 28 4 52 9 55 10 3 2 23 6 45 9 22 4 72 12 110 20 39
7 73 12 76 10 3 -2 19 -5 35 -9z"/>
</g>
</svg>
