<?xml version="1.0" encoding="utf-8"?>
<!-- Generator: Adobe Illustrator 19.0.0, SVG Export Plug-In . SVG Version: 6.00 Build 0)  -->
<svg version="1.1" id="Layer_1" xmlns="http://www.w3.org/2000/svg" xmlns:xlink="http://www.w3.org/1999/xlink" x="0px" y="0px"
	 viewBox="0 0 500 500" style="enable-background:new 0 0 500 500;" xml:space="preserve">
<style type="text/css">
	.st0{fill-rule:evenodd;clip-rule:evenodd;fill:#FFD126;}
	.st1{fill-rule:evenodd;clip-rule:evenodd;fill:#FFD126;stroke:#000000;stroke-width:0.25;stroke-miterlimit:10;}
</style>
<g>
	<path class="st0" d="M282.7,50.4c0-0.9,0.2-1.5,0.5-2.2C287.6,46.8,285.9,53.5,282.7,50.4z"/>
	<path class="st0" d="M302.3,49c0.3,0.8,0.1,0.8,0,1.7c-1.3,0.1-2.9,1.3-3.9,0.2C298.2,48.8,300.9,48,302.3,49z"/>
	<path class="st0" d="M411.3,59.2c2.6-0.3,6.7-1.8,9.5-0.2c1,0.6,2.2,1.7,2.2,3.2C422.9,67.7,406,65.4,411.3,59.2z"/>
	<path class="st0" d="M324,68.5c-0.9,0.3-0.4-0.9-1.2-0.7c-0.4,0.3-0.5,0.8-0.5,1.5c0.5,0.8,2.2,0.3,2.4,1.2c-0.2,1-1.3,1.1-2,1.7
		c-1.1,5.3-7.1,4.9-11.7,5.6c-0.8-0.1-1.1-0.5-1.7-0.7c-1,0-0.9,1.2-1.7,1.5c-1-0.5-1.8,0.1-2.9,0c-0.4-0.9-0.9-1.7-1.7-2.2
		c-0.8,0.5-1,1.6-1.7,2.2c-1.1-0.1-2.6,0.3-2.9-0.5c-0.3-1.4,3.1-4.3,4.9-2.2c3.4-2.2,10-0.9,13.2-3.9c-0.1-1.1-1-2.4,0.2-2.9
		c-0.7-0.6-1.4-1.2-1.7-2.2c0.7-2.1,3.2-2.4,5.1-3.2c0-0.6,0-1.1,0-1.7c0.9-0.3,1.4-1.5,2.7-0.7c1.1-0.9,2.9-2.3,4.4-0.7
		C327.1,63.4,326.9,67.3,324,68.5z"/>
	<path class="st0" d="M310.3,66.1c-0.6,2.5-1.4,4.8-3.4,5.9c-3.3-0.5-5.3,1.4-7.6,2.9c-2.3-0.5-2.5,0.6-4.4,1c0,3.3-3.7,3.5-4.6,1
		c0.4-1.2,0.8-2.3,1.7-2.9c0.1-1.1-0.7-1.1-0.2-2c1.7-0.7,4.2-0.7,5.6-1.7c-0.4-0.9,0.1-2.1,0.2-3.2c2.4-0.1,2.9-2.7,5.6-1.7
		C304,62.4,309.6,64,310.3,66.1z"/>
	<path class="st0" d="M255.1,78.1c-0.2-1.7-1.5-3.7-0.7-4.9c1.4-3.6,6.7-2.6,6.6,1.7C260.2,77,257.9,79.4,255.1,78.1z"/>
	<path class="st0" d="M443.1,74.1c0.2,2.1,0.3,3.7-0.7,4.9c-3.2,3.6-8.4-1-9.5-3.9C432.9,69.2,441.2,71.3,443.1,74.1z"/>
	<path class="st0" d="M341.2,75.1c-0.4-0.8-0.9-0.8-1-1.5C339.9,69.1,346.9,74.2,341.2,75.1z"/>
	<path class="st0" d="M347.3,72.7c0.3,1.5-1.9,1.5-2.4,0.7C344.9,71.9,346.4,71.6,347.3,72.7z"/>
	<path class="st0" d="M343.6,76.8c0,1.7-2.4,2.3-2.9,0.7C340.5,75.7,342.9,75.9,343.6,76.8z"/>
	<path class="st0" d="M353.1,85.9c-1.4-0.2-2.1-1.2-2.7-2.2C351.5,79.3,356.5,83.8,353.1,85.9z"/>
	<path class="st0" d="M362.4,85.4c-0.5,0.5-1.3,0.7-2.2,0.7c-1.3-1.1-0.4-3.7,1.2-3.9C362,83,362.5,83.9,362.4,85.4z"/>
	<path class="st0" d="M364.9,85.1c0.4,0.6,0.8,1.2,1,2c-1.2,1-3.8,1.6-3.4-1.2C363,85.4,363.8,85.1,364.9,85.1z"/>
	<path class="st0" d="M254.1,87.8c1.8-0.5,3.6,0.7,3.9,2.4c0.3,1.8-1.7,5.8-2.7,6.1c-1.3,0.4-3.9-0.6-4.4-1.7
		C249.6,92.1,252.4,88.3,254.1,87.8z"/>
	<path class="st0" d="M449.4,99.8c0.8-0.4,2.6,0.3,3.4,0.7c4.6,3.1,0.8,10.2-3.4,10.3C443,110.9,445.7,101.7,449.4,99.8z"/>
	<path class="st0" d="M289.8,103c1,8.2-13.3,7.9-11.2,0.2c1.5-0.7,2.6-1.8,3.7-2.9C285.4,100.6,287.7,101.7,289.8,103z"/>
	<path class="st0" d="M296.2,103.7c1.9-2.8,11.8-2.1,11.7,1.7c0,2.7-7.3,5.2-10.3,3.2C296,107.5,296.5,106,296.2,103.7z"/>
	<path class="st0" d="M248,116.4c-0.7-0.7-2-0.8-2.2-2c-0.3-1.7,4.4-8.3,7.6-7.1C255.9,111.6,252.3,116,248,116.4z"/>
	<path class="st0" d="M437.5,136.7c-0.1-2-0.5-4.2,0-6.1c1.6-1.5,3.5-3.7,6.8-2.7c0.6,0.5,0.5,1.8,2,1.5
		C449.6,135.1,442.4,140.4,437.5,136.7z"/>
	<path class="st0" d="M352.9,164.8c-1,1.3-3.2,0.5-3.9-0.5C349.2,162.2,353.4,161.4,352.9,164.8z"/>
	<path class="st0" d="M305.7,178.8c0.2,0.9,0.6,1.5,0.7,2.4c-1,0.6-2.7,0.7-3.2-0.5C303.4,179.4,304.3,178.8,305.7,178.8z"/>
	<path class="st0" d="M304.5,183.4c0.1,1.3-0.9,1.6-1.5,2.2c-1.1-0.3-1.5-1.3-2-2.2C301.7,182,303.9,182,304.5,183.4z"/>
	<path class="st0" d="M406.4,423.9c-0.2,0.9-2,0.3-2.2,1.2c-1.7-0.9-2.6-1.5-4.9-1.5c-1.1-2.4-0.4-4.2,0-6.8
		c5.2-6.1,9-13.8,19.8-13.7c2.8,1.4,5.4,2.8,5.4,5.9c0,1.9-2.8,7.2-4.4,8.8c-0.6,0.6-1.9,0.9-2.7,1.5c-0.6,0.5-1.1,1.5-1.7,2
		c-0.4,0.3-1.6,0.3-2,0.5c-1.3,0.6-1.8,1.7-2.4,2c-0.9,0.4-2.3-0.2-2.7,1C407.6,424.7,406.7,424.6,406.4,423.9z"/>
	<path class="st1" d="M158.3,448.8c-0.8-0.3-0.2,0.8-1,0.5c0.1-0.8-0.5-0.8-1.2-0.7c-2.1-4-7.6-6-8.6-10.3c-1.6-0.4-1.4-2.5-2.7-3.2
		c0.8-0.9-1.1-2.8-0.2-2.9c-1.2-1.1-0.6-3.9-2-4.9c-0.2-3-0.9-4.8-0.7-8.1c-3.8,10.4-7.6,20.8-14.4,28.1
		c-7.2,3.7-11.9,10.2-21.3,10.5c-0.5,0.2-1,0.5-1.5,0.7c-8.5,1.5-17.8,2-25.7,3.4c-4.9-1.5-10.3,0.8-14.9-1.7
		c-1.4,1.2-1.8-0.4-3.7,0.5c-1.1-0.3-1.8-1.1-2.4-2c-3.6-1.2-7-2.7-10-4.9c-1.8-1.2-3.1-3.1-4.6-4.4c-2.2-1.9-4.9-4-7.3-6.1
		c-1.7-1.5-2.6-4.3-4.4-6.1c-0.9-5.6-6.2-9.4-4.4-16.1c2.8-0.4,5.7-1.1,7.3,1.5c2.2-0.4,3.4-1.9,4.6-3.2c1,0.2,1.3,1.1,2,1.7
		c0.3-1.5-0.5-3.9-2-4.4c-1.2,1.1-1.3,3.2-2.7,4.2c-2.1-0.6-3.5-3.7-5.9-2c-1.5-0.8-2.3-2.5-4.4-1.5c-2.2-3.8-2-8.9-2.7-13.2
		c-1.9-12-0.4-26.3-0.7-39.8c-0.2-10.8,1.1-21.5,3.9-31.8c-0.1-3.3,1.2-5.2,1.5-8.1c2.2-4,2.9-9.5,5.9-12.7c1.9-5.8,6.3-9.2,10-13.2
		c4.3-1.6,7.2-4.5,11.5-6.1c1.7,0.7,2.7-0.9,4.6-0.7c-3.4-2.1-6.7-4.2-10.3-6.1c-3.3-3.1-6.5-6.5-9.5-10.3c-1.9-2.4-5.1-6.1-6.4-9.5
		c-0.6-1.5-0.9-3.3-1.5-4.9c-3.4-9.3-3.9-21.3-4.4-33.2c-0.1-3.2-0.2-6.4,0-9.5c0.7-8.7,0.8-16.8,2.4-24.9c1.5-7.4,3.2-17,5.4-24.4
		c1.9-6.5,6.9-11,9.5-15.9c-3-0.3-5.6-2.2-8.3-2c-3.3-2.7-7-4.2-9.5-7.6c-3-4-4.2-10.4-4.2-16.9c0-2.9-0.4-5.8-0.2-8.6
		c0.2-3,1.4-5.9,2-9c1.1-6,0.4-12.4,3.2-17.1c4.4-17.6,10.7-33.3,23.7-42.3c1.2,0.5,1.3-0.2,2-0.7c3,0.7,5.9-1.3,8.6-1.2
		c1.7,0,2.8,1.6,4.4,0.7c2.2,1.3,4.8,2.2,7.8,2.7c4.5,4.4,8.9,8.8,10.8,15.9c3.7-5.2,7.9-9.8,13.9-12.7c5.3-1,10.9-2.3,16.6-2.9
		c1-0.1,2.2,0.3,3.2,0.2c1.4-0.1,2.9-0.8,4.4-0.7c5.4,0.2,10.3,2.7,15.6,2.4c0.5,0.5,1.5,0.6,2,1.2c4.6-0.6,8.1,1.4,12.5,3.2
		c2.7-2.6,6.9-3.7,9.8-6.1c4.3-0.4,7.1-2.3,10.5-3.7c8.6-1.8,18.3-5.4,29.3-4.2c2.5,0.3,5.4,1.9,8.3,1.7c2.2,1.5,5.2,2.2,7.1,3.9
		c0.5,0.3,0.4,1.2,0.7,1.7c6.6-3.6,14.6-5.6,21.8-8.6c10.6-0.9,28.8-6.6,38.1,1c1.3-0.5,2.1,0.1,2.9,0.7c0,0.6,0,1.1,0,1.7
		c-0.4,0.5-0.7,1.1-1.7,1c1,0.8,1.7,2.7,1,4.4c1,0.3,2.2-0.2,2.9,0.7c0.3,0.8,0.1,0.8,0,1.7c1.3,1.1,2,1.4,2.4,3.9
		c0.1,0.6,0.3,2.1,0.2,2.2c-0.1,0.8-1.7,2.2-1.7,2.7c0,0.6,1.5,1.7,1.5,2.4c-0.1,1.9-3.5,3.2-4.9,4.6c-1.8,2-2.2,4.3-3.9,5.4
		c0.3,1.7-0.5,2.2-1,3.2c-0.9,4.9,3.2,4.9,4.6,7.6c10.3,1.9,22.2,2.5,32.3,0.2c5.9-1.3,10.4-5.6,14.9-7.6c4-0.4,7.3-5,11.2-3.2
		c0,1.4-1.2,1.6-1.5,2.7c1,0.4,1.7,0.9,1.7,2c0,0.4-2.6,3.1-3.4,3.7c-1.1,0.8-3.1,1.9-4.9,2.9c-2.2,1.3-4.9,2.8-6.1,3.2
		c-0.8,0.3-1.9,0.1-2.4,0.2c-2,0.6-3.5,1.5-5.6,2c-2.8,0.7-5.3,1.9-8.8,2.2c-5.3,0.5-10.8,1.2-16.1,0.7c-13.3-1.1-29-2-27.1-16.6
		c0.9-0.6,0.6-2.5,1.2-3.4c0-0.8-0.7-0.8-0.5-1.7c2.3-5.7,5.9-10.1,11.5-12.5c0-0.7,0-1.5,0-2.2c-2.1-1.8-4.9-4.1-8.3-3.9
		c-4.6-1-10.1-1.1-14.4-0.5c-2.2,0.3-4.4,1.4-6.6,1.7c-2.9,0.4-5.6,0.4-8.1,1.7c-0.6,0.2-0.7,0.7-1,1.2c-5.4,1.8-11,11.1-5.4,15.9
		c2-1.2,6.2-1.4,8.3,0.2c0.9,3-0.5,3.9-2.7,6.6c-1.5,1.8-1.9,3.7-4.2,4.2c-0.5,2.1-1.9,3.2-2.7,4.9c0.4,1,1.1,1.9,2,2.4
		c3.9-1.8,7.7,0.1,9.5,2.9c0.1,1.3-0.8,1.7-0.5,3.2c-2.6,1.1-3.4,3.9-5.9,5.1c-1.5,3.7-4.9,5.5-6.1,9.5c-1.5,1.2-1.8,3.6-2.7,5.4
		c-0.2,5.7,0.6,11.1,5.9,12.7c1.4,0.4,2.4,1.7,4.9,1.5c3.8-0.3,9.3-2.3,10.5-5.6c3.8-1.5,3.9-6.7,7.8-8.1c0.4-1.1,1.3-1.8,2.2-2.4
		c3.1-0.1,6.9-2,9.8,0c1.4,1,1.3,2.8,2.7,3.9c0.3,1.1-0.2,1.6,0.2,2.4c1.1,0.5,2-0.4,2.9-0.7c3.3,0.1,7.5-1.5,11.7-1.7
		c2.6-0.1,5.3,0.5,8.1,0.2c4.8-0.4,10.8,0,15.6,0.7c1.2-0.7,3.2-0.2,5.1-0.2c2.6-0.1,4.9-1.3,7.3-1.5c1.4-0.1,2.8,0.3,4.2,0
		c2.9-0.6,4.9-2.9,7.8-3.7c-0.9-6.2-1.5-12,0.2-17.4c0.5-1.4,1-3,1.5-3.9c0.7-1.4,2.8-3,4.2-4.6c1.3-1.5,2.9-4,5.1-1.2
		c2.5-0.9,0.1-1.4,0.5-3.9c1.5-1.8,4.1,0.2,3.2,2.2c1.8-0.7,2.6-0.5,4.4-0.5c-0.5-1.1-0.8-2.6,0.2-3.4c1.3-0.3,1.9,0,2.7,0.7
		c0.2,1.1-0.4,1.4-0.7,2c0.2,1.6,2.3,1.3,2.9,2.4c0.1,2.9-3.6,1.9-4.9,3.4c0.9,1.4,5-1.5,5.4,1.7c-0.7,0.4-1.4,0.9-2,1.5
		c-1.3,0.1-1.7-1.9-2.7-0.7c-0.2,1.3,1,1.1,1.7,1.5c-0.1,6-4.1,8.6-2.7,16.4c0.4,2.3,1.2,4.4,2.7,6.6c1,1.4,2.5,2,3.9,3.2
		c0.5,0.5,0.7,1.3,1.2,1.7c2.7,1.9,6.6,2.2,9.5,4.2c13.5,1.9,28.5-1.3,38.9-5.6c2.1-0.9,4.2-2.3,6.6-2.4c0.2,0.3,0.2,0.9,0.5,1.2
		c-0.9,1.6-2.4,3.6-1.5,5.6c1.5-0.5,2.9-1,3.7-2.2c-0.3-1.9,0.5-3.6-1-4.4c1.7-1.6,2.3-4.2,4.4-5.4c1.7,0.6,4.1,0.2,5.4-0.5
		c-0.1-1-1.1-1-1.2-2c-0.9,0.2-2.3,0.8-3.2,0.5c-3.8-1.1-1.9-6.6-3.2-10.5c-0.3-1.1-1.2-1.6-1.7-2.4c-2.3-3.8-4.4-7.1-7.3-9
		c0.4-1.8-0.8-2-1-3.2c-1.1,0.1-1.5,0.8-2.9,0.5c-0.4-0.5-1-1-0.7-2.2c0.7-0.3,1.4-0.6,2.2-0.7c0.3,0.5,1.2,0.4,1,1.5
		c0.9,0,0.8-0.9,1.2-1.2c-0.1-1.1-1.7-0.7-1.7-2c0.6-1.9,3.1-4.2,4.9-2c1-0.1,1-1.2,2.2-1c1.1,0.5,1.6,1.4,2.2,2.4
		c4.7,0.9,8.4,5,11,9.3c2,3.3,4.7,8.1,2.7,12.7c-1.6,0.6-2.5,1.9-2.4,4.2c0.4,0.7,1.3-0.1,2,0c2.2,2.6,1.1,7.3-1,10.3
		c-0.3,0.4-0.9,0.4-1.2,0.7c-1.1,1.3-1.8,3.3-3.2,4.6c-2.4,2.5-4.8,4.7-7.6,6.1c-1.8,3.1-4.6,5-8.1,6.4c-0.7,1.8-1.9,3.7-1.7,5.9
		c0.2,1.6,2.4,5.7,3.4,7.3c4.1,6.1,13.2,4.4,21,3.2c3.5-2.7,9.2-2.9,12.7-4.9c2.7-2.9,4.4-6.8,5.1-11.7c0.8-1.4,2.8-3.6,1.7-5.4
		c1.4-2.9,1.6-7.5,2.2-10.5c0-0.7-1.2-0.3-1-1.2c1,0.1,1.3-0.5,2-0.7c-0.6-3.4,2.4-6.7,0.2-10c0.2-0.6,1-0.6,1.5-1
		c0.6-5.4,0-10.2,0-15.4c-0.1-0.5-0.9-0.2-1-0.7c0-5.2-1.3-11.9-3.7-15.9c-0.5-0.9-1.4-1.6-2-2.4c-0.5-0.9-0.7-2-1.2-2.9
		c-2.6-4.5-7-9-12.5-10.8c-2.3-0.7-3.9-1.1-5.1-3.2c-0.6,0-1.1,0-1.7,0c-4.1-2.7-11.1-3.3-16.9-3.7c-1.4-0.1-3,0.4-4.4,0.2
		c-7-0.7-13.5-0.8-20.3,0.5c-3.5,0.6-7.3,1.1-10.8,2c-1.7,0.4-3.4,1.4-5.1,2c-1.5,0.5-3.1,0.4-4.4,1c-4.8,2-8.4,5.3-12.7,6.8
		c-0.7,0.2-0.7-0.4-1.5-0.2c-2.3,1.3-4.1,3.2-6.4,4.6c-2.2-0.2-3.2,0.7-5.4,0.5c-2.2-2,0.8-2.6,1.7-3.9c0.8-1.1,2.5-5.7,2-7.8
		c-1.2-5-10.2-7.5-16.1-8.6c-2.9,0.3-12.9,3.2-13.2-0.5c-0.2-1.9,2.1-1.1,1.7-3.7c-1.2-0.5-2.5,0.9-3.9,1c0.2,1,0.7,1.7,0.5,3.2
		c-1,0.6-2.8,1.1-3.7,0c-0.3,2.3-4.2,3.5-4.6,1c-0.4-2.2,3.2-3.3,4.6-1.2c0.2-2.4-2.4-1.4-4.4-2c-2.1,1.5-0.3,3.9-2.2,5.4
		c-2.3-1-2.8,1.4-4.9,0.5c-0.6,0.3-0.7,1.1-1,1.7c-4.9,0.1-6.6,4.9-11,6.4c-1.1-0.2-1.7-0.8-2.2-1.5c1-1.9-0.5-2.6,0-4.6
		c0.9-1.2,3.1-0.6,4.4-0.2c0.4-1.4-0.8-3.2,1-3.9c1.4,0.2,2.4,0.7,2.7,2c1.8,0.1,1.9-1.4,2.9-2c2.6,0.8,2.3-0.5,4.4-1
		c-0.6-1.7-1-3.2,0.2-4.4c-1.9-0.2-5.1,2.4-5.6-0.5c-0.3-1.5,1.5-2.2,2.2-3.4c7.6-1.9,14.6-5.7,23.2-5.1c1.7-1.2,4.7-0.7,5.6,1
		c0.8-2.1,4-2,4.9,0c1.7-1.1,3.3,0.4,5.4-0.2c0.6,0.3,0.6,1.2,1,1.7c0.6-0.9,2.8-1,3.4,0c-0.2,1.3-1.1,2-2.4,2.2
		c-0.9-0.4-0.8-1.4-1-2c-1.3,0.7-3.5,3.4-1.7,4.9c0.8-0.2,0.3-1.7,1-2c1.3-0.1,2.5-1,3.7-0.5c0.8-0.2,0.3-1.7,1-2
		c1.8-0.3,2.9,0.2,3.4,1.2c1.3-0.2,2.8-0.2,3.4,1c0.2,1.7-1.7,1.4-1.5,3.2c1,0.8,1-1,2.2-0.7c2.7,0.5,4.3,2.3,5.9,3.9
		c2.2-0.4,3.4-2.4,5.6-2.9c1-0.3,2,0.2,3.2,0c3.4-0.6,7-3.7,11-4.6c1.4-0.3,2.8,0,4.4-0.2c3.7-0.5,7.6-2,11.7-2.4
		c5.1-0.5,10.4-1.5,15.4-1.2c5.1,0.2,9.7,0.5,14.4,0c2.1,0.5,5.2,1.1,6.8,0.5c5.1,2.3,13.2,2.5,17.8,5.4c1.7,1.1,3.5,2.5,5.9,3.7
		c3.8,1.9,8.4,4.7,11.5,7.8c2.9,2.9,4.3,6,6.6,9.8c0.1,1.7,0.2,3.3,1.5,3.9c0.2,5.5,3.7,11.9,1.5,17.1c1.4,4.6-0.3,11.4,1.2,15.6
		c-1.1,0.9,0.1,4.1-1,4.9c0.1,0.5,0.5,0.6,0.7,1c-1.5,2.9-1,7.8-2.4,10.8c-0.8,7.3-1.2,14.9-3.9,20.3c0.2,2.5-1.6,4.8-0.7,6.8
		c-2.6,10.2-10.7,14.9-17.8,20.5c5,3.7,8.7,8.7,11.7,15.4c0.7,1.5,1.7,2.9,2,3.9c1.5,7.5-2,14.3-2.9,21.5c-1,8.3,1.5,19.1,2,29.6
		c1.4,30-2.3,59-7.6,83.8c-1.1,5-1.8,10-3.2,13.9c-3.8,10.6-11.4,18.8-19.8,24.4c-0.4,0.1,0.1,0.3,0,0.7c-3.4,1.5-6.8,5.1-11,6.6
		c0.4,1.2-0.5,1.1-1,1.5c0.5,0.8,2,0.9,3.2,0.7c0.3,0,0.7-0.7,1-0.7c0.4,0,1.1,0.6,1.7,0.7c1.4,0.3,3.2,0.1,4.4,0.5
		c0.6,0.2,0.9,1,1.5,1.2c0.8,0.3,1.7,0.1,2.4,0.5c0.7,0.4,1.3,1.2,2.7,1c9.4,5.9,17.8,11.5,16.6,28.3c-0.2,3.2-0.8,6.8-1.5,10
		c-0.6,3.2-2.4,6.7-2.2,9.3c0.1,2,2.4,4.4,3.7,6.6c1.2,2.1,3.1,4.6,3.7,6.6c1.9,6.3-3.8,11.3-6.1,14.9c-0.4,0-0.8,0-1.2,0
		c-1.5,2.3-3.1,2.6-6.1,4.2c-0.1,0.1-0.2,0.7-0.2,0.7c-0.5,0.2-1-0.2-1.5,0c-0.2,0.1-0.1,0.7-0.2,0.7c-0.5,0.2-1.2-0.1-1.7,0
		c-0.8,0.2-1.3,1.3-2.2,1.5c-0.6,0.1-1.4-0.2-2,0c-1.1,0.3-1.8,1.3-3.4,0.7c-1.2,1.4-3.3,1.8-4.4,3.2c0.1-0.2,0.3-0.4,0.2-0.7
		c-1.6,0.9-2.6-0.7-3.9,1.5c-0.7-0.4-0.9,0.2-1.5-0.5c-0.4,0.6-1.4,0.8-2,1.2c-3.6-0.5-7.5,1.5-10.8,2c-1.5,0.2-3,0.2-4.2,1.5
		c-1-1.5-3,0.2-5.1-0.2c-0.4,0.1-0.1,0.7-0.5,0.7c-1.2-0.5-2.9,0.9-4.9-0.5c-0.8-0.3-0.2,0.8-1,0.5c-5.3-0.1-10,0.1-13.2-0.2
		c-0.8-0.1-2-0.1-2.9-0.2c-1-0.1-1.3-1.1-1.5,0c-1.2,0.1-0.8-1.3-1.7-1.5c-0.2,0.7,0.3,0.6,0.2,1.2c-0.7-0.9-1.2-0.1-2.2,0
		c0.1-0.3,0.4-0.4,0.5-0.7c-0.6-0.1-1.2-0.1-1,0.7c-1.5-1.8-2.9-0.7-4.2-2.4c-0.8-0.1-0.9,0.4-1.7,0.2c-2-1.5-6.4-2.5-8.3-4.9
		c-0.3,0.6,1,0.8,0.2,1c-0.4,0.1-0.5-0.2-0.5-0.5c-2,2.1-5.4,1.5-7.6,3.4c-4.4,0.3-7,2.5-12,1c-0.6,0.9-3.4,1.5-4.2-0.2
		c-2.1,1.1-3.6-1-5.4,0.2c-1.1,0.2,0.3-0.6-0.5-0.7c-0.9-0.4-1.6,0.2-2.7-0.2c-1.9-1-3.6-1.3-4.9-2c-0.5-0.5-0.5-0.2-0.2-1
		c-1.1,0.3-1.8,0.4-3.7,0.7c-0.8,0.6-2.8,2.5-3.7,1.5c-0.9,1.2-6.1,0.9-8.8,0.7c-0.8-0.1,0.6,0.7-0.2,0.7c-1.1-0.5-1.1-0.3-2.2,0.2
		c-1.2,0.3,0.5-0.9-0.7-0.7c-1.1,1.4-6.4,0-8.3-1c-0.5,0.1,0.3,0.8,0.7,0.7c-0.9-0.1-3.2,0.5-2.9-1.5c-0.9,0.7-1.7,1.6-3.2,1.7
		c-3,2.9-8.4,0.3-11.2,2c-1.2-1.4-4.6-1.8-5.9-1c-0.6-0.1-0.6-0.9-1.2-1c-0.8,0.4,0.8,0.8,0,1.2c-0.8,0.1-0.6-0.8-1.5-0.5
		c-0.1,0.5,0.3,0.5,0.7,0.5c-1.2,0.4-4.2-0.5-5.1,1.2c-0.5,0.1-0.4-0.5-0.7-0.5c-0.3,0.2-0.5,0.5-0.5,1c-3.3-0.4-4.8-0.3-8.3-0.5
		c-0.9,0-0.1-0.2-0.2-0.7c-0.8,1-3,0.3-2.9-0.5c-3.4,0.6-5.1-2.1-7.8-2c-1.1,0-0.8,1.3-1.7,1.5c-3.9-0.6-5.9,1.2-9.5,0.7
		c-0.9,0.4-0.1-0.8-0.7-0.7c-4,1-5.9-0.1-8.6,0c-0.1,0.4,0.2,0.5,0.5,0.5c-0.4,0.3-1.1,0.2-2.2,0.2c-0.6-1.4-1.6-2.7-3.2-1.7
		c-0.7-1.3-1-1.7-2.7-2.2c-0.2-1.1,0.1-1.3-0.5-2.2c-1.3,0.2-1.9-0.4-2.7,0c-0.8,2.5-6.4,2-8.8,3.7c-0.8,0.2-1-0.3-1.5-0.5
		c-4.7,1.8-9.6,0.6-14.4,2c-3.7-1.8-9.9-1.2-13-3.7c-0.5-0.1-0.3,0.5-0.7,0.5c-4.2-0.6-6.4-3.2-10.7-3.7
		C162.8,451.6,159.5,451.2,158.3,448.8z M334.5,42.9c0.8-1.3,0-2.5-1-3.2C333.4,40.7,332.9,42.7,334.5,42.9z M344.3,43.6
		c1.9,1.5-0.5,3.5-1,4.9c0.4,0.4,1.6,0.4,2,0c-0.3-2.3,1.5-2.5,2.9-3.2c-0.3-0.6-0.5-1.5-0.7-2.2C346.4,43.7,345.4,43.2,344.3,43.6z
		 M261,44.8c0,1.1-0.5,1.8-1.2,2.7c1.4,0,3.5-1.2,4.2-2.7C263.1,44.7,261.7,44.3,261,44.8z M332.3,46.8c0.6,0.1,0.8-0.3,0.7-1
		C332.4,45.8,331.9,46.3,332.3,46.8z M186.2,56.3c-5.6,2.1-12.7,2.6-16.4,6.6c-3.4,0.9-5.9,2.7-8.8,4.2c1,3.5-1,6.7-0.5,10.5
		c0.9-0.9,2.2,0,3.4-0.2c1.8-0.4,2.8-2,4.6-3.2c1.9-1.2,4.8-2.7,6.8-3.4c0.4-0.1,0.8,0.4,1.2,0.2c0.4-0.1,0.7-0.8,1.2-1
		c10.2-4.1,19.7-5.4,32.5-5.9c1.9-1.9,1.9-4.8,3.4-6.6C205.1,55.7,195.8,55.1,186.2,56.3z M214,223c-0.7,0-3.1-1-1.7-0.7
		c0,0.3,0.3,0.2,0.2-0.2c-0.4-0.1-0.6-0.4-0.7-0.7c-0.9,2-2.6-1.6-3.4,0.5c-1.8-2-5.4-2.2-8.1-3.4c-0.9-1.7-2.3-2.7-2.7-4.9
		c0.4,0,0.8,1,0.7,0c-2.5-5-0.4-12.5,2-16.6c-1.8-0.6-1.7-3.2-3.2-4.2c-1.7,1.6-1.8,4.9-4.2,5.9c-4.9,0.6-9,1.3-13.7,1.5
		c-2.1-1.3-5.3-1.4-7.8-0.7c-5,18.2-7.9,37.6-21.8,47.2c-4.6,2.1-9,3.2-14.4,3.2c-3.1,0-5.7-1.1-7.8-2c-0.7-0.3-2.1-0.2-2.9-0.5
		c-1.6-0.6-4.2-2.7-5.4-3.7c-2.8-2.3-7.4-7.7-8.3-11.2c-1.6-6.3-1.9-13.9-1.7-20.8c0.2-7.7,3.9-14.5,6.4-20.5
		c4.3-6,13.3-5.2,21.8-6.4c2.8-1.7,6.1-3,7.8-5.9c-1.3-4-4.3-7.9-3.2-13.2c0.2-1,1.1-1.3,1.5-2.2c0.2-0.5-0.1-1.2,0-1.7
		c0.6-2.4,3-4.3,3.2-6.4c-1.3-0.3-2.8-0.4-3.4-1.5c-1.8-4.2,0.5-7.7,1-10.8c0.4-2.6,0-5.6,0.2-8.6c1-11,4.2-20.7,3.2-32.8
		c0.9-1.1,0.9-2.7,0.3-4.2c1-3.5,1.1-10.5,0.5-14.2c1.5-2.3,0.4-5.7,0.7-8.3c-1.8-3.3-6.1-4.1-9-6.4c-4.3,0.5-8.3-0.2-13.2-0.5
		c-12.4-0.6-23.6,4.4-30.1,12.2c-2.3,4.1-3.6,9.1-6.1,13c-4,10.5-9.6,19.4-20,23.5c-2.1,3.1-6.9,3.4-10,5.4c-1,0-2,0-2.7,0.2
		c0.7,1.3,2.6,1.4,3.7,1.5c4.3,0.4,7.7-0.6,11.5-2c5-1.8,7-6.2,9.8-9.8c0.7-0.9,2-1.5,2.7-2.4c1.4-1.8,1.6-3.7,2.4-5.6
		c0.8-1.9,2.1-3.6,2.9-5.6c3.7-9.1,9-16.2,18.1-19.3c0.9-0.3,2.1-0.2,2.9-0.5c0.6-0.2,0.8-0.8,1.5-1c4.6-1,8.1,0.7,11.7,0.5
		c0.7,0.4,1.2,0.9,2.2,1c1.2,0.1,2.3,1,3.9,1.5c1.5,0.4,2.9,0.2,4.2,1c0.4,0.2,1.3,1.1,2,1.7c1.7,1.5,3.2,3.4,4.2,5.4
		c4.9,10.7,2.1,24.4,0,36.4c-0.3,1.6-0.9,3.3-1.7,4.6c-2.5,16.4-12.2,25.6-25.7,31c-4.3,0.2-8.2,2.3-12.5,3.4
		c-2.9,0.8-6.1,0.6-8.8,1.5c-1.2,0.4-2.2,1.4-3.4,2c-0.2,0.1-0.5-0.4-1-0.2c-1.6,0.4-3.8,1.8-5.1,2.4c-6.9,3.5-12.5,8.2-15.9,15.2
		c6.3-2.4,11.9,2.1,11.7,8.3c-0.1,3.7-2.7,6-4.2,8.8c2.6,3.4,1.9,10.1-0.5,13.2c1,2.1,2.6,3,3.4,4.9c1.8,4.3,0,8-2.2,11
		c-1.7,2.3-3.9,5.2-5.9,6.6c-3.4,2.3-6.8,1.4-10,2.7c4.9,14.1,21.3,16.5,35.2,21c1,0.1,1.2-0.6,2.2-0.5c4,2.3,8.3-0.9,13-0.5
		c1.2,0.1,2.1,1,3.4,0.5c0.9-1.5,3.6-2.5,4.2-0.7c0.7,2.4-3.1,1.8-3.4,3.7c-1.6-0.2-1.7,1.1-2.9,1.2c-0.7-0.4-2-0.2-2.4-0.7
		c-0.6,1.4-3.3,1.2-3.9,1.2c-4.2,2.5-11.5,0.3-15.9,1.2c-2.5-1.4-7.3-0.5-9.3-2.4c-5.5-0.6-8.2-3.9-13-5.1c-2.8-2.3-5.1-5.2-8.6-6.8
		c-7.6-10.3-7.7-26.2-5.9-39.8c0.2-1.5,0-3.1,0.2-4.6c1-5.5,2.7-11.2,4.6-15.2c0.9-1.8,1.2-3.9,2-5.4c1.1-2.2,3.3-3.8,4.4-5.9
		c0.4-0.8,0.5-2.4,1-2.9c3.7-4.5,8.7-8.6,12.7-12c7.6-2.8,14.6-7,22.5-9.3c0.7-0.2,1.5,0,2.2-0.2c3.4-1.2,6.6-2.9,9.3-4.2
		c4-1.9,9-4,12.2-6.8c4.8-4.3,8.2-10,9.5-18.3c1.1-7,2.6-14.9,2.9-21.8c0.2-3.8,0.2-8.6-1-11.7c-1.2-3.4-5.2-4.4-7.8-6.8
		c-2.4,0.1-3.9-1-5.9-1.2c-13.5-1.6-20.3,2.1-24.7,11.5c-1.5,0.5-1.8,2.2-3.2,2.9c-2.2,7.7-6.5,13.2-10.8,18.8
		c-0.8,0.4-0.8,0.9-2,0.5c-2.5,5.4-10.2,6.2-14.9,8.6c-7.3-0.4-14.3-1.3-16.9-6.6c-0.9-1.9-1.1-4.8-1.5-7.1
		c-0.8-5.4-0.4-11.2,0.5-15.6c0.5-2.5,1.8-4.7,2.4-7.3c0.3-1.1,0-2.3,0.2-3.4c0.5-2.2,2-4.7,2.9-7.3c2.1-6.1,8.3-14,14.4-9.8
		c3.3,2.3,4.6,9.2,3.9,13.7c-0.3,1.8-1.9,3.9-0.2,5.6c1.9-0.7,2.4-2.6,3.4-4.2c2.5-1.1,4.1-3.1,5.4-5.4c0.1-4.3-0.2-7.2-1-10
		c-1-3.5-4.6-9-7.3-10.3c-0.9-0.4-2.4,0-3.4-0.2c-0.7-0.1-1.3-0.6-2-0.7c-3.1-0.6-6.5-0.1-8.8,1c-9.7,4.5-11.5,16.1-16.4,24.9
		c-0.1,2-0.6,3.5-1,5.9c-1.1,6.7-3.9,13.6-4.4,20.8c-0.4,4.9-0.4,12.3,0.5,15.6c0.5,2.1,3.7,6.6,4.9,7.8c3.1,3.2,9,3.6,13.7,4.9
		c6-1.4,12,2.3,18.1,0.5c0.8-0.2,1.7-1.2,2.9-2c1.2-0.7,2.8-1,3.7-1.7c5.5-4.2,6.3-10.9,9.5-17.4c0.7-1.5,2-3.1,2.9-4.6
		c1-1.6,1.7-3.4,2.7-4.9c4.4-6.9,11-14.1,21-12.7c12.6,1.8,11.6,25.5,7.1,35.2c-2.5,4.3-5.4,7.5-9.3,10.3c-1.2,0.8-2.5,2-3.7,2.7
		c-2.1,1.2-5.3,1.7-8.3,2.7c-2.6,0.9-5.2,2.3-7.6,2.9c-4.4,1.2-8.1,1.5-12,2.4c-4.3,1.1-7.7,4.2-12,4.4c-6.5,2.4-9.5,6.8-14.2,12.5
		c-2.4,3-4,6.7-5.6,10.3c-1.5,3.3-3.7,6.8-4.6,10.3c-0.3,1.1,0.1,2.4-0.2,3.4C42.5,207,40,222.2,41,235c0.4,4.9,0.8,9.9,2,14.4
		c0.1,0.3,0.5,1.5,0.7,2c1.4,2.9,4,6.7,5.6,9.5c0.7,1.2,1.1,2.7,1.7,3.4c0.7,0.8,2,0.9,3.2,1.7c1.2,0.9,1.9,2.6,3.2,3.7
		c0.8,0.7,2,1.2,2.9,2c2.4,1.9,3.3,2,6.4,2.9c1.6,0.5,3,1.6,4.4,2c2.3,0.6,4.4,0.5,7.1,0.7c0.4,0,0.7,0.7,1.2,0.7
		c2.5,0.3,4.6,0.3,6.4,0c5,1.4,10.7,0.8,15.6,0.5c5.1-0.3,11.3-1.5,16.1-1c0.9,0.1,1.8,0.7,2.7,0.7c5.8,0.2,12.6-1.3,18.8-1.2
		c3.7,0,6.9-2.4,10.8-2.2c2.5-5.1,7.5-7.8,11-12c0.5,0,1,0,1.5,0c-1-5.1,0.4-5.5,0.7-11c1.7-1.2,2.8-2.7,2.7-4.6
		c0.9-0.1,0.9-1.1,2-1c-0.1-1.8,1.4-1.9,1.5-3.4c3-1.9,5.4-4.6,7.8-6.4c6.8-2.8,11.2-8,20-8.8c1.1,1.6,3.7,0.3,4.9-0.5
		c1,0.2,2.2,0.2,2.7,1c0.8-0.9,0.7-1.1,2.7-0.7c-0.1-1.6,2.7-1.6,4.4-1.5c0.6-0.6,1.3-0.9,2-1.5c1.9,0,3.8-1,3.9-2
		c2.4,1.2,5.1-1.3,6.6-2.7c-0.4-0.4-1.5,0.7-2.4,0.7c1,0.2,0,0.8-0.7,0.7c0-0.4,0.6-0.2,0.5-0.7c-1.8,0.5-2.4,0.6-3.2,1.7
		c-0.6,0-0.6-0.7-1-1C216.3,222.5,215,222,214,223z M209.9,81c-1.1-2.1-0.6-4.8-1.5-7.6c-2.4,0.2-3.7,1-5.6,1.2
		c-2.1,0.3-4.3,0-6.1,0.5c-0.9,0.3-1.4,0.8-2.2,1c-1.6,0.4-3.4,0.1-4.9,0.5c-8.9,2.3-14.6,7.7-22,11.2c-0.7,0.5-0.8,1.6-1.7,2
		c-2.6-1.4-4.1,0.8-6.4,0.2c0.4,1.7-1.3,2.3-2.4,3.2c-0.5,4.9,0.8,12.9-5.1,12.7c-0.6,1.5-0.1,3.1-0.5,4.9c1.5,0.7,4.3-0.4,4.9,1.7
		c3.4-3.6,7.9-6,11.5-9.3c1.6,0,2.4-1.3,3.7-2.2c2.4-1.7,5.2-2.6,8.3-3.9c7.4-3.1,17.7-6.9,26.9-3.4c2.4-3.3,6.2-5.2,9-8.1
		C213.4,84,211.2,83.3,209.9,81z M415,85.1c0.9-0.1,1.6-0.4,2-1c-0.5,0-0.3-0.7-1-0.5C415.4,84,415.1,84.5,415,85.1z M57.9,94.4
		c-1.4,4.1-3,12.5,1.7,12.5c0.6,0,1.3-0.7,2.2-1c1.7-0.5,2.1-0.5,3.2-1c2.3-1.1,5.6-1.9,5.6-4.4c-4.5-0.1-7.3-1.5-7.8-5.1
		c-0.5-3.8,2.4-7.9,0.7-11C62.1,87,59.2,90.3,57.9,94.4z M152.5,93.7c0.9,0.1,0.9,0.7,1.7,0.2c0.9-3.3,0.4-5.6-1.5-7.8
		C152.9,89.1,153.2,90.9,152.5,93.7z M244.8,163.1c0.5-0.4,0.4-1.3,1.2-1.2c0,0.4,0,0.8,0.5,0.7c0-0.3,0-0.7,0.2-0.7
		c2-0.3,3.3-1,5.4-1.7c0.4-0.7-1.1-0.5-0.2-0.7c1.6,0.6,3,0.1,4.2-1c-0.4,0-0.8,0-0.7-0.5c1.7,0.4,2-0.6,3.2-0.7
		c-0.4-2.1-2.2-2.9-3.2-4.2c-1.6-2.1-0.8-5-3.2-6.8c-4.8,4.3-13,6-21.5,5.1c-3.8-1.8-8.9-2.3-10-6.8c2.5-2.5,8-2.1,10-5.1
		c0-2.3,0.6-5.2-1.7-5.6c-2.6,0.9-6.7,4.3-9.3,2.2c-1.8,1.1-4,1.9-6.3,2.4c2,1.8,1.1,4.3-1.2,4.2c-1-0.1-2.6-1.7-3.4-2.9
		c-1.1-1.7-1.6-3.2-2.9-3.9c0.2-0.8,1.4-0.5,1.5-1.5c0-2.4-1.4-4.2-1-6.4c-12.9-0.9-23.3,4.6-27.6,14.4c-0.1,0.6,0.4,0.5,0.3,1.2
		c-1.9,2.9-3.2,7.7-3.2,13.2c1.4,2.6,3.3,4.7,5.6,6.4c0.7,2,0.4,5,1.2,6.8c-0.5,2-2.7,2.2-4.6,2.7c-1.6-1.7-4.6-1.9-6.8-3.4
		c-0.8-3.1-4.5-3.9-5.4-7.1c-0.4-1.6,0.3-3.2-0.5-4.9c1.2-2.5,0-5.3,0.5-7.6c0.2-0.8,1.1-1.1,1.5-2.2c0.5-1.3-0.1-3.1,0.2-3.9
		c0.3-0.7,1.1-1.3,2-1.5c1-0.1,1.4,1,2.2,0.2c-0.1-1.5-3.1-0.1-3.2-1.7c0.3-2.3,2.7-3.5,2.2-5.9c2.4-1.2,3.1-4.2,4.2-6.8
		c3.5-2.5,7-6.9,12.2-8.8c6.9-2.4,15-3.5,23-1.5c0.5-2.3,3.3-2.2,3.7-4.6c-6.7,0.1-8.4-4.8-9.8-10c-1-0.3-2.2-0.4-2.9-1
		c-16.6,0.3-28,8.6-37.6,17.1c-2.7,3.9-6.9,7.9-9.3,13.7c-3.2,7.8-6.9,16.1-5.6,27.4c0.9,7.9,4.8,17.3,9.5,20.8
		c6.9,3.8,13.7,7.8,23.2,8.6c5.3,0.4,11.3-1.6,16.9-2c2.5-1.8,6.4-2.2,8.1-4.9c5.4-1.8,7-7.3,10.3-11.2c-0.2-2.5,1.8-3.1,1-5.6
		c3.2-6.7-1.5-12.6-9-12.2c-1.7,0.9-3.7,1.5-4.2,3.7c1.3,1.7,0,3.2,0.5,5.1c-0.4,0.2-0.4,0.9-1,1c0.1,4-2.9,7.1-5.6,9
		c-0.3,0.5,0,1.6-0.7,1.7c-2.5-1-5.1,0.8-8.6,0.2c-3-1.4-0.5-5.8-2-8.6c1.9-2.2,7.2-1,8.1-4.2c-0.7-1.7,0.5-2,0.7-3.4
		c-0.2-1.5-1.3-2.9-1-4.9c0.4-2.4,4.6-5.7,5.9-5.9c3-0.3,3.1,2.5,1.7,4.2c2.5-1.1,3.3-3.4,3.2-6.1c7.4-4.9,15.3,2.1,21,4.9
		c1.1,2.3,2.9,3.9,3.4,6.4c0.2,0.9-0.7,1.7,0.5,2.2c-0.9,0.3-0.8,1.2,0,1.5c-0.6,0-0.8-0.5-1,0.2c1.2,1.4-1,2.8,0.3,4.6
		c-0.3,0.2-0.9,0.2-1.2,0.5c0.3,1,1,1.6,0.7,3.2c-0.8-0.7-2.2,2.2-1.5,2.2c0.1-1,1-0.1,1.5-0.2c1-0.4,1.7-1.9,3.4-1.5
		c-0.2-2.1,2.4-1.3,3.2-2.4c-0.5-0.8-1.3,0.6-1.5,0c0.3-1,1.2-0.2,1.7-0.7c-0.2-0.3-0.9-0.1-0.7-0.7c0.5,0,1,0,1.5,0
		c0.3,0.6-0.7,1.2,0,1.5c1.3-1.1,1.5-3.3,3.2-3.9c-0.1,0.4-0.8,0.2-0.5,1c0.8-0.4,1.7,0.4,2-0.7c0.6,0.1,0.5,0.8,1.2,0.7
		c0.9-0.6-0.8-1.1,0-1.5c1.1,0.2,0.4,1,1.2,1.2C243.9,162.6,243.6,162,244.8,163.1z M238.2,165.6c0.2,0.4,1.4-0.2,1.5-0.7
		C239.1,164.9,238.2,164.8,238.2,165.6z M107.5,115.9c-2.6,3.8-5.5,7.2-6.4,12.7c-1.3,1.4-2.3,3.2-2.7,5.6c0.8,0.5,1.4-1.1,2.9-0.7
		c4.1-4.1,14.1-9.8,9.8-18.1C109.9,115.8,108.8,115.4,107.5,115.9z M398.3,142.8c-4.4,1.3-9.8,1.4-13.7,2.4c-0.5-0.2-1-0.5-1.7-0.5
		c-0.6,0.3-0.8,0.8-1.7,0.7c-1.5-0.2-2.3-0.7-3.7,0c-1.8-1.1-4.1-0.2-5.9-0.5c-2-0.4-3.5-1.9-5.6-2.4c-2.4-0.6-5.2-0.4-6.6-2.7
		c-9.9-2.6-15.8-9.3-20-17.6c-2.9,1.8-5.6,3.7-8.3,5.6c6,4.9,1,13.3-0.5,19.1c-1.1,4.2,3.3,5,3.4,9.3c1.7-0.1,3.1,0.6,3.4,2.4
		c2.1-0.7,3.6,1.3,5.1,1.7c1.6,0.4,3.8-0.8,4.4,1.2c-0.3,0.8-0.8,1.3-2,1.2c-1,0-0.5-1.5-1.5-1.5c-0.8,0.3-0.8,1.4-1.7,1.7
		c-0.5-0.6-1.3-1-2.2-1.2c-1.2,1-2.7,0.9-4.6,0.2c-2.8-1-8.8-5.1-10.3-7.1c-0.7-1-1.6-2.9-1.7-3.7c-0.2-1.2-0.3-3.8-0.2-4.4
		c0.2-2.2,2.4-3.8,2.9-6.1c1.1-4.7-2.2-7.1-5.1-9c-0.7,0-1.3,0-2,0c-5-2.9-13.3-3.1-20-3.2c-3,0-6.3-0.7-9-0.5
		c-11.2,0.8-22.3,3.2-25.2,12.7c-0.5,0.5,0.3,0.7,0.2,1.5c-0.7,0.2-1.2,0.6-1.2,1.5c0.1,2,0.5,3.8,2,4.4
		c5.6-10.8,20.2-19.2,37.4-16.1c3.2,0.6,8,1.4,10.3,2.4c0.2,1.4,1.2,1.9,1.2,3.4c0.1,1.3-1.7,0.7-1.7,2c2.4,0.8,3.2,3.4,5.1,4.6
		c-0.1,2.1-0.8,4.2,0.7,5.9c-1.3,2.1-1.6,4.1-3.2,6.1c0.6,0.6,1.7,0.5,1.7,1.7c0,1.9-2.1,1.4-3.4,2c0.9,2.1,3.8-0.1,5.1-0.5
		c1.3,0.3,1.5,1.5,2,2.7c-1.5-0.1-2.8,2.5-1.7,3.4c1.3-0.2,0.8-2.1,2.4-2c1.8,0.7,2,2.4,2.4,3.9c0.7,0.4,1.9-0.2,2.9-0.2
		c0.9,1.1,0.1,3.3,0.2,4.2c2.1-0.5,3.8,1.4,3.4,3.4c1.3,0.1,2.1,0.7,3.7,0.5c0.1-1-1.7-0.1-1.2-1.5c0-1.9,1.7-2.1,2.9-2.7
		c1.4,0.9,3.2,1.2,5.1,1c5.6,1.8,12.7,2.3,20,2c13-0.5,27.5-1.1,37.4-5.4c0.2-1.2-0.3-1.7-0.2-2.7c-3.7-4.1-10.2-4.3-17.6-3.2
		c-4.3,0.6-8.9,0.6-12.5,1.2c-2.4,0.4-4.8,1.8-6.8,2c-0.8,0.1-1.7-0.3-2.4-0.2c-2.2,0.1-4.4,1.3-4.9-0.7c-0.3-1.3,2.2-4.2,2.7-4.9
		c3.5,0.9,6.7-0.4,10-0.5c6.9-1.9,14.6-4.5,22.7-4.6c2.9,0,5.1-0.2,7.6-0.7c0.7,0.7,2.1,0.8,3.4,1c1.8,1.2,2.9,3.1,5.4,3.7
		c2.1,2.6,2.9,6.4,3.9,10c2.8,1.5,5.4-0.9,9.5-2c2.9-0.7,6.3-1.5,9.3-1.7c4.5-0.3,10.1,0.6,12.2-1.7c-1.5-0.2-3.8-0.2-5.4,0.5
		c-2.1-1.6-5.7-1.2-8.6-0.5c-13.3-2.2-23.5-7.5-24.7-21.8C400.6,141.4,399.6,142.5,398.3,142.8z M414.2,131.1c0.6,0.1,0.8-0.3,0.7-1
		c-0.3-0.1-0.5-0.3-1-0.2C413.8,130.6,414.3,130.5,414.2,131.1z M173.2,137.7c0.7,0.3,1.5,0.4,2.4,0.5c0.7-0.9,1.2-2.1,1.7-3.2
		c-0.3-0.7-1-0.9-1-2C173.8,133,174.7,136.6,173.2,137.7z M278.3,162.4c2.1-2.5,5.9-4.2,9.5-6.1c3-1.6,7.2-4.1,10.5-4.6
		c2.4-0.4,2.8-0.7,4.6-1.2c1.1-0.3,2.3-0.1,2.9-0.5c1.6-1,1.7-3.8,1.7-5.4c-0.7-2.2-3.8-2-5.1-3.7c-9.3-0.8-17.9,2-22.7,7.6
		c-0.8-0.1-0.9,0.4-1.7,0.2c-0.4,1.2-1.5,1.7-2.4,2.4c0,0.8-0.7,0.9-0.5,2c-4.8,4-5.4,12.1-5.9,18.6c1.8,2.9,2.2,7.1,5.4,8.6
		c-1-2.7,0.4-6.3-1.5-8.1C275.6,168.9,275.8,165.4,278.3,162.4z M95,146c0.4-0.6,0-2-0.7-2.2C93.7,144.6,94.3,145.8,95,146z
		 M295,157.7c0.4,0.7,0.5,1.8,1.5,2c-0.1-0.6-0.4-0.9-0.2-1.7c0.4-0.7,1.6-0.6,2-1.5C297.3,156.2,295.9,157.4,295,157.7z
		 M170.8,162.6c0.4-0.4,0.4-1.4-0.5-1.2C169.8,161.9,170.3,162.4,170.8,162.6z M239.2,220.3c-4.1,3.6-7.5,9.7-13.7,11
		c0.1,1.6-2.6,0.5-3.2,1.5c-1,0.3-0.8-0.5-1.5-0.5c-1.6,2.2-4.8,1.1-5.9,2.9c-2.1-0.5-1.8,0.1-3.9,0.2c-0.3,1.8,1.3,1.7,2.2,2.2
		c2.3,2.3,4.1,4.2,4.6,7.8c3.2-0.9,8-2.1,13.2-1.7c0.9,1.2,3,0.7,4.6,0.7c1.8-4.7,3.3-9.6,6.6-13.2c-0.1-1.4,0.5-2.6,1.5-2.2
		c1.2-4.5,3.5-7.1,6.8-9.8c-0.7-1.7,1.9-1.7,2.4-2.9c-0.4-0.1-0.6,0.4-0.7,0c0.3-1.1-0.2-2.2,0.2-3.9c0.3-1.3,1.6-2.6,2-3.4
		c1.2-2.8,1.8-3,4.2-5.1c0.3-0.3,0.4-1.2,0.7-1.5c2.6-2,4.8-4.4,7.3-6.1c2.2-1.5,6-3.2,8.8-1c-0.5,1.5-2.8,1.6-4.4,2.9
		c-0.1,0.1-0.1,0.8-0.2,1c-1.9,2-6.2,3.7-6.6,6.6c-0.5,3,2,5.3,3.9,7.3c2.6,0.3,4.7,1.1,6.6,1.5c1.1,0.3,1-0.7,2-0.5
		c0.2,0.4,0.7,0.4,1,0.7c5.4-0.1,8.5-0.6,13.4-2.4c3.3-3.8,7.1-7.1,11.5-9.8c-3.3-2.7-6.4-6.6-5.9-12.2c2.5-0.2,1.7-3.7,3.2-4.9
		c0.9,0.2,1.6,0.7,2,1.5c-1.3,1.8,1,3.5,1,5.6c1.8,1.6,5.6,1.2,6.8,3.4c5.5-3.3,8.4-10,10.3-16.1c-1.3-0.8-3-1.2-3.2-3.2
		c-0.1-1,1.6-1.1,1-2c-1.2-0.2-1,1.1-1.7,1.5c-2.6-0.5-3.2,2.4-6.6,1.2c-0.2-1.5-1.6-1.8-2.2-2.9c1-0.8,1-2.5,1.5-3.9
		c-0.9-0.6-1.3-2.1-0.7-3.4c-0.9-0.4-2.2-0.4-2.4-1.5c0.9-1.2,2.8-1.5,2-2.4c-0.8-0.9,0.8-1.8-0.2-1.7c-0.9,0-1.2,0.6-2,0.7
		c-3.2-0.4-4.8,0.8-7.3,0.5c-0.4,0.5-1.5,0.4-2,1c-5-0.8-7.7,1.5-10.8,3.7c-1.3,3-4.4,4.2-4.6,8.3c-0.7,0.2-0.9,0.7-1.2,1.2
		c0.9,0.1,0.6,1.3,1.5,1.5c0.4,0.5,0.8-0.9,1.7-0.7c2.4,2,4.7-0.7,7.3-0.7c-1-2.7,2.9-4.4,4.9-2.7c-0.5,4.8-2.8,7.8-5.6,10.3
		c-1.6,0.5-2.7,1.5-5.1,1.2c-11.2,5.8-24-1.9-23.7-13.4c-7.3,2.7-15.2,6.3-21.5,11.2c-0.4,0-0.8,0-1.2,0c-0.4,0.4-0.5,1.1-1,1.5
		c-6.4,2.9-12.3,7.1-16.9,12.5c-0.4,0-0.9-0.1-1,0.2c0,1-1.3,4-2.7,3.7c-0.4,1.1-0.6,2.6-1,3.4c-0.5,0.9-1.3,1.1-1.5,2.2
		c-0.1,0.8,0.7,3.1,0.7,3.2c1.1,1,2-0.2,3.4,0.5c1.5-1.2,3.1-2.2,6.1-2c2.1-5.6,6.5-8.9,11.2-12c0.9-1.4,1.7-2.9,3.7-3.2
		c2.8,2.8-1.3,4.8-3.4,6.6c-1.9,1.6-3.9,5.2-5.9,5.9c-0.9,2.4-2.1,4.9-0.2,7.1c3,0.8,5.3,1.2,8.1,1c3.4-0.2,6-4.5,7.1-0.2
		c-0.9,1.1-1.7,2.4-2.2,3.9c-1.3,0.1-0.8,1-2,0.2C240.3,219.1,238.8,219.4,239.2,220.3z M311.6,167c0.5-0.6,0.1-1.5-0.7-1.5
		C310.3,166.1,310.8,167.1,311.6,167z M312.1,170.7c0.1-0.3,0.5-0.3,0.7-0.5c0.2-0.7-0.4-0.7-0.2-1.5c-0.2,0-0.5,0-0.7,0
		C312,169.6,311.1,170.4,312.1,170.7z M451.4,197.6c0.8-6.4-1.7-8.5-3.2-12.2c-0.9-0.7-2-1.2-2.2-2.7c-2.7-0.3-3.2-2.5-5.1-3.4
		c-3.7-1.7-6.7-1.6-11-2.4c-1-0.2-0.7,0.7-1.7,0.5c-0.8,0.2-0.5-0.7-1.2-0.5c-0.1,0.6-0.9,0.5-1.5,0.7c-6.7-0.7-11.9,2.1-17.4,3.9
		c-2.9,2.1-6.9,3.3-8.8,6.4c-1,5.9-2.5,10-5.1,14.2c1.1,4.8-1.9,8.4-1,12c-1.2,1.2,0.4,5.3-1.2,6.1c2,6-1.2,11.3-0.2,18.1
		c-0.4,0.3-0.4,0.9-0.7,1.2c0.5,2.4-0.1,4.1-0.5,6.4c1.3,2.5-1.1,5,0,7.3c-1.8,6.3-0.8,12.1-2,18.3c1.3,2.8,0.4,5.7,0,8.8
		c-0.9,7.9-0.1,15.1-0.7,23c-0.1,1.6,0.1,3,0,4.7c0.8,0.2,0.7,1.2,1.2,1.7c0.7,0,1.5,0,2.2,0c5.5,3,14.9,0.5,18.8-3.2
		c0.2-0.7-0.1-1.9,1-1.7c-1-1.9-0.5-4.7,0.5-6.6c-0.3-0.6-0.9-1.1-0.7-2.2c1.2-0.9,0.8-4.3,0.2-5.6c1.8-2.5,0.8-7.8,1.2-11.7
		c1.6-0.1,2.3-2.8,3.9-3.7c-1.2-0.1-2.5,0.4-3.4-1.2c1.5-9.5,1.4-19.6,2.7-29.6c0.2-1.2-0.8-1.1-0.5-2.4c1-1.2,0.3-3.1,0.5-4.9
		c0.1-0.9,0.7-1.8,0.7-2.7c0.3-3.7,0.2-7.6,0.7-11.2c0.5-3.1,2-6,1.5-9.3c0.6,0,0.3-1,1.2-0.7c0-0.5,0-1,0-1.5
		c1.9-2.8,4.2-5.3,8.3-5.9c4.8-4.4,14.2-2.9,21.5-4.6C450.1,199.7,450.7,198.6,451.4,197.6z M321.6,182.4c0.6,0,1-0.4,1-1
		C321.8,181.3,321.5,181.7,321.6,182.4z M370.5,185.6c5-0.5,12.2,0.5,18.6,0.7c0.9-1.8,2.2-3.1,2.9-4.4
		C384.8,183.1,377.1,184.3,370.5,185.6z M326.7,183.9c-2,1.8-2.2,4.8-3.7,7.1c-2,3.2-4.9,5.4-6.1,8.8c2.5,1.5,5,2.5,8.3,2.7
		c3-5.3,6.3-10.3,9.3-15.6C332.2,185.6,329.1,185.1,326.7,183.9z M367.1,185.6c-3.1,0.4,1.5,0.6,2.7-0.2
		C368.3,185.2,367.9,185.5,367.1,185.6z M340.9,187.3c-1.2,1-2.2,2.2-3.4,3.2c0.5,0.2,0.5,0.9,0.5,1.7c-0.4,0.8-1.1,1.2-2,1.5
		c0.3,3.5-4.3,5.6-2.4,9.3c11.2,0.2,16.7-7.2,19.8-15.9C349.9,186.3,344.4,187.8,340.9,187.3z M61.5,197.3c-0.8,0.2-0.9-0.4-1.7-0.2
		c-0.9,2.4-2.3,5.7-2,8.6c2.2-1.7,6.4-2.4,8.6-4.9c0.4-0.5,0.5-1.6,1-2.2c1.8-2.3,5.1-2.8,4.2-6.4C66.8,191.2,64.4,194.9,61.5,197.3
		z M156.1,192.7c-1.7,2.4-3.2,4.8-5.6,6.4c-1.8,1.2-3.8,1.3-6.4,2c-2.6,0.7-5.4,2.1-7.8,2.7c-3.7,0.9-7.2,0.5-9.3,2.9
		c-1.6,5.1-4.4,11.7-2.2,17.4c0.8,2.1,5.7,4.9,8.6,5.4c1.2,0.2,3.2-0.1,4.6,0c5.4,0.4,8.6-0.9,12-3.9c2.1-5.2,4.2-9.4,6.1-14.9
		c1.7-4.9,3.6-9.9,4.6-14.9C159.5,194.4,158.3,193,156.1,192.7z M378.3,194.6c-5.2,0-11-0.9-14.7,1c-5.3-0.9-8.2,3.9-11.2,6.6
		c-1.9,1.7-4.1,2.4-5.1,4.4c-2.6,7-4.1,18-2.9,28.1c2.4,3.9,7.2,5.1,12.2,6.4c1.5,0.4,2.8,1.3,4.4,1.5c7.6,0.7,15.2-2.1,20.8-4.2
		c0.7-7.6,0.4-15.7,1.2-23c0.8-6.9,1.9-13.2,2.7-19.6C384,194.8,380.9,194.7,378.3,194.6z M113.3,208.3c-0.2-1.4,0.6-1.7,0.5-2.9
		C113.3,205.8,112.6,208.3,113.3,208.3z M61.8,208.1c-1.1-1.4-3.1-0.3-4.6-0.5c-1,3.2-1.5,8.6-0.5,12.2c2.3,0.2,3.9-1.2,5.1-2
		c4.9-2.9,8.9-5.2,8.6-12.2C67.4,206.9,64.4,206.6,61.8,208.1z M316,207.6c-1.7-0.2-5,3.8-6.8,3.4c-3,3.9-7.8,5.9-11.2,9.3
		c-0.3,0.2-0.7,0.3-1.2,0.2c-2.3,2.6-5.4,3.9-9,5.4c-1.3,0.5-1.9,0-3.2,0.2c-2.1,0.5-4.4,1.8-6.8,2.2c-2.4,0.4-5.2,0.1-7.6-0.7
		c0,0.6-0.8,0.5-1.5,0.5c-1.9-1.2-4.1-1-6.1-1.5c-2.6-0.7-4.5-2.6-6.6-3.9c-2.6,0.6-2.8,3.7-4.9,4.9c-1.9,3.8-3.6,6.4-4.9,10.5
		c-0.1,0.6-0.4,1.1-0.2,2c-2.1,1.6-1.6,5.7-2.4,7.1c2.5,2.4,5.5,3.5,7.3,7.1c2.3,4.6-0.2,12.5-1.7,16.6c0.6,1.5,2.6,2.4,2.9,3.4
		c2.5,0.9,5.6,1.8,8.6,2.4c4.7,1,10.3-0.6,15.4-1c3.6-5.1,9.2-8.8,9.3-16.6c-0.2-1.1-1.8-0.8-2-2c-7,1.4-8.8,8-15.2,10
		c-1.4-0.8-3.1-1.3-3.7-2.9c-0.7-4,1.4-8.5,4.6-11c5.5-4.3,13.2-10.1,22.2-7.1c1.4,1.7,3,2.8,3.4,5.1c1,5.8-3,11.7-4.6,15.9
		c-1.8,2.3-4.2,4.2-5.6,6.8c9.3-0.8,16.8-5.3,23.7-8.3c2.7-3.4,6.5-6.2,9.8-9.3c2.8-2.6,5.2-6.2,8.1-9.5c2.5-3,6.8-6.9,7.3-10.5
		c0.3-2.1-0.7-4.7-0.7-6.8c-0.2-6.9,1.7-14,2.7-19.8C329,211.5,321.3,208.2,316,207.6z M434.5,210.3c-2.6,0.6-4.3,2-6.6,2.7
		c0.1,1.2-0.4,1.8-1.5,1.7c-0.6,5.3-2.1,10.5-2.4,16.9c-0.1,0.6,1,0.2,0.7,1c-0.3,0-0.6-0.4-0.7,0c1.3,1.1,2.6-0.5,4.4-0.2
		c4.2-2.3,8.1-3.5,12.2-5.9c2.8-5.1,7.2-10.2,6.4-17.4C442.6,208.8,438.4,209.5,434.5,210.3z M67.4,229.8c1.9-2.1,4.9-7.8,1-10
		c-2.5,2.5-8.1,2.5-11.7,2.7c-0.1,3.4,0.9,7.7,1.5,11.2C61.5,232.7,64.4,231.2,67.4,229.8z M443.8,237.7c-0.4-0.2,0.1-1.2-0.7-1
		c-6.6,1.6-12.4,4.5-18.6,4.6c-0.4,0.3-0.3,1.2-1.2,1c0.3,10.1-2.3,13.8-1.7,24.7c-1.3,0.8-1.1,3.7-0.5,5.6c-0.8,2-1.9,3.7-3.4,4.9
		c-0.6,0.5-2,0.3-2,1.5c1-0.3,1.3,0.4,2.7,0.7c0.5-2.3,3.4-1.4,3.9,0c5.2,1.3,6.4,6.4,9.5,9.8c2,2.9,4.7,6.2,6.1,8.8
		c0.6-0.5,0.2,1.2,1.5,1.2c0,0.5,0,1,0,1.5c1.2-0.8,0.5,1.5,1.5,1.7c-0.5-2.3,2-5.7,0.5-9.3c0.1-4.8,2.1-9.5,1.5-13.4
		c2.5-13.8,1.7-28.9,2.4-44C444.8,236.5,444.4,237.2,443.8,237.7z M204.3,243c-3.3-0.8-4.9-1.8-7.8-1.5c-2.2,1.8-5.5,1.5-8.8,2.4
		c-7,3.6-12.5,7.6-14.2,15.9c-0.2,1.1,0,2.3-0.2,3.4c-1.2,5-7.2,7.2-8.8,11.7c-2,0.5-1.7,3.3-3.4,4.2c-0.4,4.8-3.2,9.5-2.2,14.2
		c-1.1,2.4-0.4,5.6-0.2,8.3c0.6,0.7,1.4,1.2,1.2,2.7c4,4.6,10,7,17.8,5.9c2.3-0.8,4-2.1,6.6-2.4c2.1-2.2,5.9-2.7,8.6-4.4
		c0.9,0.6,2.1,1,2.9,1.7c2.5-0.1,3.8-0.2,7.1-0.2c4.6,1.5,6.2,4.7,7.1,9c0,1.4-0.2,3.2-1.2,4.2c1.1,2.5-0.3,3,0.5,5.6
		c2.5,1.1,3.3,3.3,5.4,5.1c6,2.2,12.5,3.2,18.3,5.1c0-0.4,0-0.8,0.5-0.7c0.8,0.6,0.8,0.4,1.7,0c4.3,1.8,8.4-0.9,13.4-1.7
		c-0.1-1.1,1.1-0.8,1.5-1.5c2.8-0.7,4.6-2.4,6.4-4.2c0.3,0,0.7,0,1,0c0-1.4,0.8-0.9,1.2-1.2c0.8-0.6,1.5-1.8,2.4-2.4
		c3.8-2.8,7.1-5.7,11.7-7.3c0.8-0.1,1.1,0.2,1.7,0.2c1.8-1.7,9-2.1,12.2-1.7c4.6,0.6,6.8,3.6,6.6,8.8c-1.3,0.8-0.7,2.1-1.2,3.2
		c-0.8,1.7-3.3,3.2-5.1,5.1c-0.9,1-1.3,2.2-2,2.9c-0.5,0.5-1.3,0.6-1.7,1.2c0,0.1,0.2,1.1,0,1.5c-0.2,0.4-0.6-0.2-0.7,0.5
		c-0.1,0.6,0.4,1.3,0.2,2c3.5,1,4.4,3.5,8.8,3.2c3.5,1.1,6.5-1,9.3-2c-2-1.6-1.5-6.3-1.2-9.5c1.3-2.7,5.4-6.4,6.6-9
		c2.5-5.4-1.5-10.3-5.6-12.5c-1.9-0.5-3.2-0.6-5.1-1c-0.8-0.2-1.4-1.1-2.2-1.2c0,0-1.8,0.5-2,0.5c-0.7-0.1-1.2-0.7-1.7-0.7
		c-3.6-0.3-6.8,1-9,0.2c-2.2,1-3.8,2.1-6.8,1.7c-3.1,1.1-6.6,1.9-9,3.7c-0.5,0-1,0-1.5,0c-1.2,0.8-2.3,1.7-3.2,2.4
		c-1.3,1.1-3.5,1.9-4.6,2.9c-0.5,0.4-0.3,1-0.7,1.5c-1.7,1.6-3.3,2.3-5.4,3.4c-1,0.6-1.7,1.6-2.7,2.2c-3.3,1.9-7.5,3.2-10.8,2.4
		c-0.8,0.7-2.1,0.8-3.7,0.7c-0.7-0.2-1-0.8-1.7-1c-8-0.7-13.1-4.4-14.9-11.2c1.7-1.8,1.1-6.4,3.2-8.3c0.5-6.3-4.2-7.5-7.8-9.8
		c-0.7,0.1-0.9,0.8-2,0.5c-5.4-1.4-12.6-0.8-17.1,0.7c-4.1-0.7-5.6,2.3-9,1.5c-3.1,1.7-10.8,2.4-15.4,1.2c-1-1.4-2.5-2.4-2.4-4.9
		c0.5,0,0.2-0.8,0.7-0.7c2.2-0.1,2.5,1.8,3.9,2.2c5.3,1.4,14.3-2.5,18.1-3.7c1.6-0.5,3.1-0.2,4.6-0.5c1.3-0.2,4.7-1.3,5.1-1.2
		c0.4,0,0.7,0.3,1,0.5c8.7-2.1,19.4,0.8,23,5.9c0.5,0,1,0,1.5,0c-0.1,0.9-0.4,1.4,0.2,2c0.3-2.9,0.9-4.3,2-6.6
		c4.3-2.3,7.2-6,10.5-9.3c-0.2-0.9,0.4-1,0.2-2c3.9-5.6,8.1-10.8,9.5-18.8c-0.2-0.4-0.8-0.4-0.7-1c0.6-2,0-3.3,0.5-4.6
		c-1.1-3.1-5.2-3.3-8.1-4.6c-3.7,0.2-8.5-0.8-12.2-0.2c-1.7,0.2-3.7,1-4.2,1c-1.4-0.1-4,1-6.4,1.2c-2,3.6-5.4,5.8-8.6,8.3
		c-0.6,0.2-1.1,0.4-2,0.2c-1.1,0.9-4,2.8-5.6,3.2c-1.1,0.3-2.8,0.3-4.2,0.5c-4.1,0.7-6.8,0.9-10-0.7c-2.4-1.2-3-3.4-4.2-5.9
		c-0.2-1.5,0.6-2.5,0-3.7c1.4-3.6,5.9-7.5,10.8-8.3c1-0.2,2.5,0.2,3.9,0c2.7-0.5,6.9-1.4,7.1,1.7c-0.4,0.5-0.7,1.1-1.5,1.2
		c-1.2,0.3-1.2-0.6-2.2-0.5c-4.8,2.1-10.9,3.2-12.2,8.1c1.4,2.5,6.3,2,9.8,1.7c0.9-0.5,3.6-1.2,3.9-0.7c3.3-4,9.2-7.8,9-13
		c-0.2-0.9-1.4-0.8-1.7-1.5c1.1-0.4-0.1-1.7-0.2-2.4C206,244.6,204.5,244.1,204.3,243z M335,252.6c1.2,0.2-0.7,0.5-0.2,1.5
		c-1.9,0.5-1.9,2.8-3.7,3.4c-0.1,2.2-3,3.6-3.9,5.9c-5.2,3.5-8.5,8.8-14.9,11c-1.9,2-4.1,3.8-7.6,4.2c-2.4,1.8-5.5,3.3-8.8,4.4
		c-0.5,0.2-1.2-0.1-1.7,0c-0.9,0.2-1.4,1.2-2.2,1.5c-3,1-6.6,0.3-8.6,1.7c-6-0.8-11.8,1.5-16.4,1.5c-8.4-1.8-17-1.9-22.7-6.1
		c-2.2,2.4-3.2,4-3.2,8.6c0.8,2.2,3.9,2.1,4.9,4.2c4,0.6,7.1,2.1,11.7,2c0.4,0,0.1,0.7,0.5,0.7c1.6-1.5,4.1,0.6,5.6-0.5
		c2.3,1.5,9.2-0.1,10,1.5c8.6,0.1,17.7-1.2,26.2-3.2c8.1-2.2,13.3-7.2,20.3-10c0.8-1.2,2-1.7,2.9-2.4c2.2-1.7,4-5.2,6.1-5.4
		c0.1-1.7,1.2-2.2,2.7-2.4c7-7.5,13.1-14.6,18.3-23.5c-4.5-1-7.9-3.2-11.5-5.1C337.9,248.3,337,251,335,252.6z M278.6,363.3
		c0.6,5,6.6,4.2,12,4.9c5.1,0.6,7,1.7,10.3,1c1.8,1.2,3.8,0.4,5.6,0.5c0.9,0.1,1.8,0.8,2.7,0.7c0.8,0,1.6-0.7,2.4-0.7
		c1.4,0,2.8,0.6,4.2,0.7c2.7,0.2,4.9-0.7,6.6-0.7c0.6,0,1,0.7,1.7,0.7c1.2,0.1,2.1-0.9,3.2-1.2c1.5,0.7,4.7,1,5.9,0
		c0.8-0.2,0.5,0.7,1.2,0.5c7-1.4,15.2-0.6,23.2-2.2c0.8-0.2,0.5,0.7,1.2,0.5c1.3-1.6,4.7,0.6,5.9-1.7c-3.2-2.6-6.1-5.5-9.3-8.1
		c-0.2-2-1.8-3.5-2.4-5.4c-0.6-1.7-0.3-3.8-1.7-5.1c-0.1-2-0.1-4.2-0.7-5.6c-0.2-0.8,0.7-0.5,0.5-1.2c-1-1.3-0.1-4.5,1-4.9
		c-0.4-3.3,2.3-5.8,3.2-8.6c-1.3-4-0.7-8.5,0.2-12.2c0.6-2.4,2.3-4.9,2-7.1c2.1-3.3,5.3-5.7,8.1-8.3c-0.2-2.1,2-2.9,1.5-4.4
		c1.1-0.5,1.6-1.5,2.2-2.2c1-1.2,2.6-2,3.7-3.2c0.7-0.7,0.8-1.6,1.7-2.2c2.2-1.5,5.5-1.4,6.6-3.4c-0.9-12.1-0.4-22.7,0.2-34.7
		c-1.7,0.5-3.4,1-4.9,1.7c0.5,7.2-1.9,12.1-6.8,14.4c-0.8,4.4-5.4,3.6-8.1,6.4c0.7,1.1-0.9,3.9-0.7,6.1c-3.6,5.6-8.3,10.1-15.6,12
		c-1,4.6-6.6,11.1-10,12.2c-1.7,0.6-3.7,0.4-5.6,1c-1.2-0.5-3.6-1.7-5.6-1.7c-1.7-2.3-4.3-3.5-5.4-6.4c-1.5-0.2-1.5,1.2-2.4,0.2
		c-0.6,1.4-2.2,2.5-4.2,2.2c-2.7,2.9-6.3,3.5-9.5,5.6c1,1,1.2,1.3,2.7,1.5c3.6,3.8,7.4,7,6.8,14.4c-1.2,4.2-5.3,7.3-6.8,12
		c-0.7,0.6-1.3,1.3-2,2c1,0.3,0.1,0.6,0,1.2c1.7,0.1,0.6,3.2,2.4,3.2c0-1.3,1.4-1.2,1.7-2.2c3.8-1.3,5.8-3.9,9.8-4.2
		c5-0.4,6.2,3.7,9.8,5.6c0.6,0.3,1.3,0,1.7,0.2c1.1,0.6,1,1.6,1.7,2.2c-1.3,1.5-3.3,2.4-6.1,2.4c-2.3,1.6-3.8,2.7-6.1,4.4
		c-4.7,9-12,15.9-22.5,18.3c-1.1,0-2.1,0-3.2,0c-2.1,1.1-3.7-0.1-6.1,0.5c-2.1-0.7-5.5-1.3-6.6-0.7
		C280.2,363.9,279,363.3,278.6,363.3z M352.4,252.3c-0.1-0.8-0.8-1-1.5-1.2C351.2,251.8,351.7,252.1,352.4,252.3z M358.5,253.8
		c-2.5,2.7-4.7,5.6-5.9,9.5c1.1,3.8,6.2,2.3,7.3-0.5c2.2-0.2,3.2-3.2,5.4-4.2c0.1-2.1,0.9-2.2,0.7-4.4
		C363.3,254.4,360.8,254.2,358.5,253.8z M339,278.5c0,0.9,1.3,1.3,1.2,2.7c2.3,0.3,3.3,1.7,5.9,1.7c2.1-1,3.2-1.8,5.9-2.4
		c0.3-2.8,3.4-3.3,3.2-5.9c-0.8-0.2-0.9-1-1.7-1.7c-2.8,1.1-4.7-2.1-7.1-2.9C344.9,273.2,338.8,274.9,339,278.5z M329.4,290
		c-0.5,0-1,0-1.5,0c0,0.4,0.1,0.8,0.2,1c-0.5,0.6-1-0.4-1.2,0.5c0.9,0.2,0.3,1.1,0,1.5c1,0.3,0.9,0.3,0.5,1.2
		c3.2,0.5,4.2-0.3,6.1,0.7c2.1-1.6,5-2.3,5.9-5.1c-2.5-0.6-3.3-3.1-6.1-3.4c0-0.3,0.3-0.3,0.2-0.7c-0.3,0-0.7,0-1,0
		C333.1,287.7,328,287.7,329.4,290z M419.6,286.3c-1.8,5.8-0.4,9.5-2,14.4c0.7,0.6,0,1,0.5,2c-1.6,2.3-3.4,4.3-3.9,7.6
		c-1.9,0.2-2.4,1.8-3.9,2.9c-4.2,3.1-10.3,5.4-17.1,5.6c-0.1,0-1.1-0.7-1.5,0c-4.4-1-9.4-1.5-10.3-6.1c-0.6,0.1-0.9-0.1-1-0.5
		c-2.2-5.8-0.7-15.4-0.7-21.5c-1-0.2-1.4,0.2-2.2,0.2c-2.1,2.8-4.2,5.1-5.9,7.8c1.3,0.8-1.4,2.6-0.2,3.4c-1.2,2.5-1.7,5.5-0.5,8.8
		c-1.1,1.3,0.3,2.6,0.5,3.9c0-0.1-0.5,0.2-0.5,0.5c0,1.7,1.6,3,1.7,4.4c0.2,2.4,2.2,4.4,2.9,7.1c3,1.4,3.9,4.2,8.3,4.6
		c0.5,1.1,1.9,1.4,2.4,2.4c0.1,2.8-1.8,5-3.7,5.4c-1.5,0.3-2.6-0.6-3.2-0.7c-1.9-0.6-2.7-0.8-4.2-2.2c-1.2-1.2-4-2.6-3.9-5.1
		c-1.3-0.3-2-1.3-2-2.9c-0.8-0.9-2.2-2.2-1.7-3.7c-1.9-1.4-2.5-4-3.2-6.6c-1.6,0.2-0.6-2.2-2.2-2c-0.8,6.5,1,13.2,4.9,18.6
		c0.2,0.8,0.2,0.5,0,1.2c1,0.4,1.4,1.5,2.7,1.7c1.4,5.7,11.6,6.3,8.8,13.2c-4.7,0.3-7.9-2.3-10.5-4.4c-3.9-1.4-5.2-5.6-8.6-7.6
		c0-0.4-0.1-0.8-0.2-1c-2.1,1,0,4.9,0.5,6.4c0.9,3.1,2.7,8.1,4.6,10.5c1.1,1.4,2.3,1.7,3.7,2.7c2.6,1.8,5.8,4.1,9.3,3.2
		c4.5,1.3,8.4-0.6,12.7-1.7c0.3,0,0.2,0.4,0.5,0.5c3.5-2.1,7.6-3.5,10.8-5.9c7.3-3.7,14.1-6.6,19.8-12c5.2-4.3,10.2-8.9,13.9-14.7
		c-0.3-2,1-3.4,1.2-4.9c1.3-8.3-1.7-14.4-4.2-19.8c-4.9-2.3-8.7-8.2-11.2-13.9c0.3,0,0.6-0.1,0.5-0.5c-1.2,0.4-0.4-1.2-1-1.5
		C420.3,286.3,419.9,286.3,419.6,286.3z M256.3,305.1c-2.1-0.3-4.2-0.1-6.1-0.5c-0.8-0.1-1.6-1-2.4-1.2c-1.7-0.5-3.4-0.4-4.9-1
		c-4-1.7-6.1-4.9-9.3-7.8c-3.5,2.1-5.5,5.7-9,7.1c-0.1-0.6-0.9-1-1.5-0.5c-0.2,1.2,0.6,0.7,0.7,1c0.3,2.8,0,6.2-1.5,8.6
		c-0.1,1.1,0.3,2.7-1,2.7c0.2,0.9,0.2,3.5,1,4.4c-0.1-0.1,0.4-0.4,0.5,0c0,0.2-0.5,0.4-0.5,0.5c0.7,0.6,2,0.3,2.7,0.7
		c0.1,0.1-0.1,0.6,0,0.7c1.6,1.5,3.9,1.8,6.1,1.5c0.2,0.4,0.4,0.8,1,0.7c7.9,1.1,12-3,17.4-5.6c2.2-2.9,5.4-6,8.3-7.3
		c0.5-1.3,1.9-2.8,3.2-2C260.6,305.3,257.7,305.3,256.3,305.1z M164.7,322.2c-4.3,0.6-5.5-1.8-8.6-1.7c-1.4-2.9-5.1-2.6-6.1-5.4
		c-0.5-0.1-0.5,0.3-0.7,0.5c-1.3-1.7-3.6-4-2.7-6.4c-1.6-2.2-2-4.1-1.7-7.1c0.1-0.6-1.1,0.1-0.7-0.7c0.3-2,0.3-1.9,0-3.9
		c-8.2,1.5-16.2,3.5-23.7,3.7c-1.5,0-3.1-0.5-4.6-0.5c-4.2,0.1-8.3,2.1-12.5,1.5c-5.7,0.9-11.1,1.8-16.9,2.2
		c-1.9,1.5-3.8,0.7-6.1,1.2c-2.6,0.6-4.9,2.4-7.6,2.7c-7.5,0.8-13.2,7.4-19.1,11c-1.1,2.7-3.5,4-5.1,6.1c-7.6,10.1-10.2,24-12,39.1
		c-0.2,2-1.5,4.5-0.2,6.6c-0.1-0.8,0.4-1,0.2-2c1.5-1.4,2.9-2.8,4.6-4.2c3.1-2.5,6.9-4.8,9.8-7.1c1.1-0.9,1.4-2.5,3.2-2.2
		c-1.5,2.9-5.9,5.6-9,8.8c-1.4,1.4-5,4.6-5.1,6.4c-0.1,1.4,1.5,2.5,1.5,3.9c1.5-0.8,2.9-1.6,3.9-2.7c0.1-1.6-1.2-3-0.5-4.4
		c1.3,0.4,1.1,2.3,2,3.2c1.6-1.4,3.8-2.2,4.9-4.2c-0.4-0.4-0.9-2.1-0.2-2.7c0.9,0.4,0.7,1.7,1.2,2.4c2-0.2,3.1-2.4,4.6-2.2
		c-0.2,2.6-3.1,2.4-3.9,4.4c0.8,2.2,1.4,4.6,2.2,6.8c1.5-0.3,2.1-1.4,3.9-1.5c0.5-6.4,1.7-11.6,3.7-16.4
		c4.8-11.5,9.7-22.3,18.8-28.8c0.6-0.1,0.5,0.4,1.2,0.2c2.4-2.5,6-3.9,9.5-5.4c1.6-1.7,3.9-2.8,7.1-2.9c2-1.1,4.7-1.7,7.1-1
		c2.1-0.6,4.8-1.2,7.8-1c5.9-2.4,10.4-0.2,16.4-1.5c3.8-0.2,7.3,2.2,10.3,0.5c0.9,2.1,5.1,3.8,2.4,6.6c-1.5-1.2-2.8,0.3-4.2,0.7
		c-2.5-0.5-5.1-0.6-7.6,0c-0.9-0.1-0.9-1.1-2-1c-5.6,0.8-11.4,1.3-15.9,1.2c-8.9,2.3-20.6,3.8-27.1,10.3c-3.4,1.4-5.5,4.2-7.6,6.6
		c-4,4.6-9.9,11.1-10.8,18.1c-0.1,0.6,0.1,1.1,0,1.7c-1.9,4.1-2.8,8.7-2.7,13.9c0.1,7,0.7,14.8,3.2,20.5c2.6,5.9,7.4,10.2,11.5,14.4
		c3.5-0.3,4,3.7,7.6,2.4c3,2.8,7.4-0.6,11.2,0.7c1-1,2.4-1.9,4.2-1.5c0.9-0.7,1.3-1.8,2.9-1.7c1.8-2.5,4.6-4.2,6.8-6.4
		c0.1-1.8,1.7-2.1,2.4-2.9c2.6-2.9,3.5-8.7,5.9-11.7c-0.6-3.5,1.5-6,1.7-8.1c0.4-3.3-1.2-6.8,2-8.3c1.2,0.5,1.4,1.7,1,3.2
		c1.3,3,0.9,6.4,0.7,9.3c-0.1,1-0.7,1.7-1,2.7c-0.3,1.2-0.1,2.6-0.5,3.9c-0.7,2.1-2.4,4.3-3.4,6.6c-2,4.5-4.2,9.2-6.8,12.2
		c-3.2,3.7-7.5,4.9-11,7.6c-2.3,0.5-4.5,1.1-6.1,2.2c-1.6-0.8-2.5,0.1-4.2,0.2c-6.1,0.5-10.8-0.8-15.6-3.2c1.2,9.7-5.1,14-9,19.3
		c5,1.5,11.4,0.1,14.2,3.7c0,0.5-1.4,1.8-0.2,2c1.3-7.1,12.6-2.7,16.9-5.6c1.8,1.1-0.2,3.5-0.2,4.2c1.4-0.2,1.5-1.6,2.7-2
		c2.3,3.5,9.5,0.4,6.8-3.4c-0.1,0.8-0.2,1.5-0.7,2c-2,0-4.5,2.8-4.9,0.2c-0.3-1.9,3.6-3,5.6-2.4c0.4-0.8,0.5-1.9,1.7-2
		c1.2,0.2,0.5,2.3,1,3.2c4.6,0.4,6.4-1.9,7.6-4.9c-0.3-0.9-1.2-1.3-1.2-2.4c1.9-3.1,6.7-6.6,9.3-10.3c1.5-2.1,3.6-6.7,5.4-10.5
		c3.3-7,5.4-18.9,5.9-26.9c0.2-4-0.3-8.2-1-11.5c-0.6-3-3-9.6-4.6-11.7c-3.3-4.3-10.5-6.5-17.1-6.4c-6.7,1.6-13.2,3.9-19.3,7.1
		c-4.3,3.8-9.1,12.1-5.9,19.6c1.8-0.3,2.5,0.4,3.7,0.7c2.1-4.5,6.2-8.5,11.7-7.3c2.4,0.8,3.9,1.8,5.4,3.9c2.7,5.2,1.2,14.2-1.7,18.1
		c-2.2,4.4-8.3,9.4-13.2,11.5c-1.9,0.8-3.3,0.5-5.1,0.7c-2.2,0.3-3.7,1-5.6,0.7c-8.4-1.4-14.8-12.6-15.4-22.5
		c-1.2-18.6,7.4-30.6,14.4-39.8c2.1-1.7,4-3.7,6.1-5.4c10-5.8,25.7-8.2,38.1-6.4c3.2,2.4,7.6,3.8,10.3,7.3c4.1,5.4,8.6,13.5,7.8,22
		c1.4,3.8,0.8,9.8-0.3,13.7c-0.1,0.8,1.2,0.1,1,1c-0.8,7.9-1.6,15.9-2.9,23.2c1.7-1.6,2.3-4.1,2.4-6.4c0.3,0,0.3,0.3,0.7,0.2
		c0.2-0.8-0.4-0.8-0.5-1.2c2.8-2.1,2.7-6.2,5.9-8.3c-0.6-1.6,0.9-2.3,2-2.9c-0.2-2.3,1.5-3,2.9-4.2c-0.6-0.7,0.7-3,1.2-2.7
		c0.1,0.5-0.3,0.5-0.5,0.7c2.3-1.8,2.9-3.2,5.1-4.9c-0.5,0-0.5-0.2-0.2-0.5c1.9-1.1,3.1-2.8,5.9-2.9c0.8-1.6,3.9-1.8,5.9-2.9
		c-1.5-0.6,1.6-0.4,1.5-1.2c-0.6-0.5-1.4-0.9-2-1.5c0-0.3,0.4-0.2,0.5-0.5c-1.7-1.7-2.6-2.1-4.4-3.9c0.8-1.5-3.4-3.9-2.2-5.9
		c-1.7-0.2,0-1.4-1-1.7c-1.1,0.6-1.5,0.9-2.7,1.7c-2.2-0.1-4.4-0.2-5.1-1.7c-0.3-0.6,1.1-0.9,0-1c-0.2-1.4-1.6-1.7-2.2-2.7
		c0-4.7-1.3-6.3,0.7-10c-0.5-0.8-1,0.6-1.2,0c0.2-3.1,2.5-3.4,1.5-5.4c0.7-0.9,1.8-2.1,1.2-2.7c0,0.2,0,0.5-0.2,0.5
		c1.9-2.2,3.4-4.5,4.9-6.4C164.1,322.9,164.9,323.1,164.7,322.2z M187.2,316.4c0.1,0.6-0.1,0.9-0.5,1c-6.1,2.1-13.1,6.2-14.7,13.4
		c-0.2,0-0.5,0-0.7,0c-0.1,2.8-3.4,5.9-2.7,8.6c0.9,0.3,0.5-0.8,1-1c2.1-0.8,3.1-2.6,4.9-3.7c4-5.4,10.8-8.9,17.4-12.5
		c0,0.3,0.1,0.6,0.5,0.5c0-0.3-0.1-0.5-0.2-0.7c3.1,0.2,4.6-2.7,6.8-1.7c0.6-0.6,1.3-1.1,2.2-1.5c0.2-0.7-0.5-2.3,0.5-2.2
		C199.7,307.7,191.9,315.6,187.2,316.4z M282.5,323.5c-0.8,0.2-0.8-0.4-0.5-0.7c-0.7-0.2-0.7,0.4-1.5,0.2c-0.4,0.9,0.8,0.1,0.7,0.7
		c-1.1-0.2-2.3-0.1-2.9-0.7c-0.4,0.7-1.3,1.9-2,1c0,0.3,0.1,0.5,0.2,0.7c-3,0.4-4.4,3.5-6.6,3.9c-0.1,1.6-2.8,3.5-3.7,5.9
		c1.4,0.4-0.7,1.3,0.5,1.7c-1.7,0.4-1.7,2.5-2.4,3.9c0.3,0.2,0.7,1.1,0,1.7c1.2,2.7,3.6,4.4,5.1,6.8c3.2,2.2,6.3,4.4,10.5,5.6
		c0.6,0,1.1,0,1.7,0c4.2,2.2,9.9,3.2,15.2,2c1.5-0.3,3.2-1.4,4.9-2c5-1.8,8.1-4.5,11.2-8.1c0.5-2.6,1.6-5.2,4.2-6.4c0-0.7,0-1.3,0-2
		c-5.6,1.2-10.3,4.7-14.9,7.6c0.1-0.3,0.4-0.4,0.5-0.7c-5.5,2.6-11,5.1-17.1,3.4c-4,1.4-6.6-2.8-9.8-3.9c-0.2-2-2.5-2.1-2.2-4.6
		c0-0.4-0.6-0.2-0.5-0.7c0.1-1.1,1-2.4,0.5-3.7c1.9-0.9,2.7-3.2,4.2-4.6c0.1-0.1,0.6,0.1,0.7,0c1.3-1.2,2.6-3,2.7-4.6
		c0.2,0,0.5,0,0.7,0C281.5,324.9,281.9,324,282.5,323.5z M198.4,330.1c-1.2,0.7-2.8,1.6-3.9,2c-1.1,0.3-2.6,0-3.7,0.5
		c-0.5,0.2-0.9,0.9-1.5,1.2c-2.6,1.4-5.3,2.1-7.3,3.9c0.1,2.1,0.3,4.5,0,6.1c1.2,0.5,0.9,1.8,1.5,2.7c2.5,3.5,7.5,4.9,10.8,7.6
		c1.4-0.1,2.2,0.3,2.7,1c4.7,1.2,9.3,3.4,14.2,4.4c2.4,0.5,4.3,1.2,5.9,1.5c1.1,0.2,1.8-0.3,2.2-0.2c1.9,0.3,3.8,2,6.1,1.5
		c3.7,2,9.4,1.1,14.2,2c0.6,0.1,1.3,0.7,2,0.7c0.8,0.1,1.6-0.5,2.4-0.5c0.6,0,1.2,0.7,1.7,0.7c2.7,0.4,6,0.2,8.8,0.2
		c7.1,0.1,14-0.2,17.1-4.9c-0.8,1-0.3-0.6-0.5-0.7c-0.7-0.5-1.4,0-2.2-0.2c-1-0.3-3.2-1.7-4.2-2.2c-0.6-0.4-1.6-0.7-1.7-0.7
		c-0.7-0.5-0.8-1.7-1.5-2.4c-0.2-0.2-0.8,0-1-0.2c-2.4-2.6-3.3-5.6-5.1-8.8c0.4-1.8,0-4.2-0.3-6.6c-3.2,1.2-5.5,3.3-9.8,3.4
		c-2.2,1.5-6.2,1.5-9,1.5c-4.2,0-8.7,0.3-12.7-0.2c-3-0.4-6.8-3-10.5-3.4c-1.6-0.2-6-1.7-7.3-2.7c-0.4-0.3-0.2-1-0.7-1.5
		c-0.7-0.7-2.1-1-2.7-1.7c-0.7-0.9-1-2.3-1.5-3.2C199.6,330.9,199.4,330,198.4,330.1z M358,337.9c0.6,0,0.8-0.4,1-0.7
		c-0.2-0.1-0.9-0.6-1,0C358.4,337.2,358.2,337.7,358,337.9z M52,369.2c-1.3,1.9-4.2,2.1-4.4,4.4c-0.2,1.9,1.8,3.1,2,5.4
		c1.7-0.7,3-1.7,4.6-2.4C53.4,374.1,53.4,371,52,369.2z M35.4,380.6c1.7-1.6,3.7-2.8,4.9-4.9c-0.3-1.3-0.9-2.4-1.2-3.7
		c-1.3,0.5-2.3,0-2.9-0.7C35.1,373.7,35,377.3,35.4,380.6z M42.5,377.2c0.5,2,1.3,3.6,2,5.4c1.4-0.6,2.6-1.5,3.4-2.7
		c-0.3-2-1.1-3.4-1.5-5.4C44.8,375.2,43.7,376.3,42.5,377.2z M56.4,377.2c1,2.8,1.6,6,3.2,8.3c-0.7-3.5-0.4-6.7-0.5-10
		C57.8,375.7,57.3,376.7,56.4,377.2z M202.8,381.4c-3-3.4-10.1-5-14.9-3.7c-1.1,1.6-2.6,0.5-3.9,1c-4.3,1.5-7,5.9-11,7.6
		c-3.8,3.8-6.6,8.5-9.8,13c-1.7,6.6-5.3,9.7-5.6,17.4c-1.2,1.4-0.2,3.7-0.5,6.1c0.7,0.2,0.4,1.5,0.5,2.4c2.4,3.5,4.8,6.9,7.8,9.8
		c9.5,3.9,19.4,7.2,30.6,9c0.4-0.1,0.2-0.8,1-0.5c0.7,0.6,2.4,0.4,3.4,0.7c1.6-2,4.2-0.1,5.6-0.2c1.1-0.1,2.3-1.7,4.2-2.2
		c3.8-1,7.8-0.5,10.8-1.5c1.7-2.4,2.9-5.4,5.6-6.8c1.8-3.4,4.8-5.6,6.8-8.8c4.6-2.9,7.5-7.5,14.7-7.8c0.2-0.3,0.5-0.5,0.7-0.7
		c5.7-1.2,14.1-1.6,16.4,3.9c1-0.3,1.1,0.4,1.7,0.5c5.3-2.8,14-3.5,17.1,1.7c3.3-2.3,9.2-2.5,13-1.7c0.2-1.6,0.6-2.9,0-5.1
		c0.7-0.9,1-1.4,0.7-2.7c1.7-3.9,4.8-6.3,8.1-8.6c-4.3-0.6-11-1.7-15.6-2.2c-2.2-1.6-7.6-2-10.3-2.4c-1.3-0.2-2.5-1.1-3.9-1.5
		c-0.9-0.2-2,0-2.9-0.2c-1-0.3-2-1-2.9-1.2c-1.7-0.4-4.2-1-5.6-2c-2.6-1.6-4.3-5.8-2.9-8.6c0.6-1.2,2.5-1.7,2.7-3.7
		c-6.8,1.6-16.1,2.1-24.4,2.2c-4.5-1.4-11-2.4-15.4-1c1.8,1,1.4,6.1,0.7,8.1c2.3,8.3-3.1,13-5.1,18.6c-0.3,0.1-0.5,0.3-1,0.2
		c-3,7.8-11.3,8.9-18.3,12.7c-3.6,0.9-8.1,0.7-10.5,0.7c-2.5,0-4.7,0.6-6.4,0.7c-1.4,0.1-3.8-0.3-4.9-0.7c-1.2-0.4-2.1-1.3-3.4-2
		c-3-6.9,2.1-10.5,3.2-16.4c1.5-1.8,2.4-4.5,5.1-5.4c2.1-0.7,6.7-1.5,7.8,1c1.4,3.2-2.8,6.7-2.2,8.3c0.3,0.8,1.8,1.5,1.7,2.7
		c4.8,1,12.1-0.8,15.9-4.6c0.1-1.7,1.1-2.5,2-3.4c0.2-2.7,1.6-5.2,2.2-8.6c-1.5-4.7-3.6-10.6-6.6-12.2c0-0.3,0.4-0.2,0.5-0.5
		c-0.9,0.1-1.2-0.6-1.5-1.7C203,380.7,203.3,381.2,202.8,381.4z M54.2,391.4c-0.3,1.7,1.2,3.3,2,4.9c1.1-1.2,2.8-1.8,3.7-3.2
		c-2.1-4.7-2.7-10.8-5.4-14.9c-1.4,0.9-2.8,1.8-3.9,2.9c0.9,2.9,1.9,5.6,2.9,8.3c1.6-0.3,1.7-2.2,3.7-2.2
		C58.6,389.4,54.5,389.4,54.2,391.4z M37.1,385c1,0.7,1.2,2.3,1.7,3.4c1.1-1.2,3.9-2.6,4.2-4.4c0.3-1.7-1.3-3.2-2-4.9
		C39.9,381.3,37.7,382.4,37.1,385z M48.3,393.1c1-1.1,2.8-1.3,3.2-2.7c0.5-2.2-2.3-6-2.9-7.8C43.9,385,46.7,389.4,48.3,393.1z
		 M402,385.3c-1.5,0.2-2.2-0.3-3.2-0.5c-5.6,1.2-11.3,1-15.4,3.7c-4.2-0.2-6.1,2.7-9.3,2.2c-4.9,2.6-11,4.2-16.4,6.4
		c-3.8,2.9-7.3,3.1-12.2,4.6c-6.8,3.7-18.1,3.6-26.9,4.2c-5.5-2.3-10.2,3.6-14.2,6.6c-1.1,4-2.6,6.1-4.9,9.5c1,0.2,1.1,0.3,1.5-0.5
		c-0.2,1.4,0.8,0.1,1.2,0.7c0-0.3,0-0.7,0.2-0.7c5.9-1.6,9.2-4.4,17.4-3.9c5,1.3,8.4,2.9,12,5.9c0-0.8,1.2-1.5,2-2.2
		c0.3,0,0.7,0,1,0c5.8-6.2,18.4-8.6,31.3-8.6c2.3,1.4,4.6,2.9,6.6,4.6c1.7,2.6,2,7.6,1,10.8c-0.3,0.9,0,2.4-0.2,3.2
		c-0.2,0.6-1,0.8-1.2,1.2c-1.5,2.8-0.7,6.8-0.7,7.8c-0.4,0-0.8,0-0.7,0.5c-0.2,1.2,0.4,1.7,0.2,2.9c1,0.4,1.9,1.6,1.7,2.4
		c1.7,0.4,1.9,1,3.4,1.7c0-0.1,0-0.5,0.2-0.5c7.5,2.1,16.1,1.1,24.4,0c6.4-0.8,13.2-0.5,19.1-1.2c5-0.6,9.6-2.8,13.2-4.6
		c1.8-0.9,3.8-1.5,4.9-2.2c2.3-1.5,2.4-6.3,2.7-9.3c-2.1-1-1.9-3.5-3.2-4.9c-0.7-2.2-1.7-5.3,0.2-6.8c-0.2-0.6-0.3-1.3-0.2-2.2
		c2-4.4,4.2-11.7,2-18.1c-1.2-3.4-4.1-5.5-5.6-7.8c-0.4,0-0.8,0-1.2,0c-3.3-3.7-7.7-3.5-12.7-5.4c-5,1-11-1.1-16.1,0.5
		c-0.2-0.6-1.7-1.1-2.2-0.5C401.8,384.9,401.9,385.1,402,385.3z M36.1,391.2c1-0.3,1.6-1,2-2c-1-1.2-0.7-3.5-2-4.4
		C35.4,385.9,35.9,389.4,36.1,391.2z M43.7,387.5c-1.1,1.6-2.7,2.7-3.4,4.6c0.9,1.9,1.3,4.2,2.7,5.6c1.1-1.2,2.7-2,3.7-3.4
		C45.4,392.3,45.6,388.8,43.7,387.5z M299.3,389.4c0.2,0.9,1.3,1,2,1.5c0.5-0.4,1.1-0.7,1-1.7C301.5,389.7,300.2,388.8,299.3,389.4z
		 M328.2,390.7c-0.1-0.9,1.5-0.1,1.7-0.7C329.1,389.6,327.4,389.7,328.2,390.7z M326,390.2c-0.2,1.1,1.7,0.8,1.5-0.2
		C326.9,389.9,326.7,390.4,326,390.2z M320.1,391.2c0.6,1,1.7-1,0.5-1C320.9,390.9,320.2,390.8,320.1,391.2z M324.3,391.4
		c0.5-0.4-0.3-0.7-0.5-1.2c-0.5,0.9-1.4-0.1-2.4,0c0,0.2,0,0.5,0,0.7c0.8-0.4,1.3,0.1,2,0.5C323.5,390.6,324,391,324.3,391.4z
		 M317.7,390.9c-0.6,0-0.8-0.4-1.2-0.5C316.4,391.2,317.5,391.8,317.7,390.9z M51.7,392.9c-0.7,1.2-2,1.7-2.7,2.9
		c0.6,1.3,1.4,2.4,1.7,3.9C54.8,399.5,54.2,394.6,51.7,392.9z M37.3,402.6c1.1-1.3,3.4-1.7,3.7-3.7c0.1-0.6-1.4-5.8-2.2-5.6
		C36.7,395.3,36.1,399.1,37.3,402.6z M60.1,394.8c-1,1-2.4,1.7-3.4,2.7c0.5,3,1.9,5.1,3.2,7.3c1.5-0.6,2.4-1.8,3.4-2.9
		C62.3,399.5,61.8,396.5,60.1,394.8z M45.4,404.6c3.1-1.4,4.4-4.1,2.4-7.6C44.7,398.1,42.7,401.7,45.4,404.6z M54.9,399.2
		c-1.5,0.5-2.6,1.5-3.2,2.9c1,1.9,1.7,4.1,2.7,6.1c1.5-0.2,2-1.3,3.2-1.7C57.1,403.8,55.8,401.7,54.9,399.2z M39.5,410.2
		c1.9-1,3.4-2.5,4.4-4.4c-0.6-1.1-0.7-2.7-2-3.2C40.8,405,37.1,407.2,39.5,410.2z M49.8,403.6c-1.3,1.1-2.4,2.3-3.2,3.9
		c1,1.7,1.9,3.5,2.4,5.6c1.5-0.9,2.7-2,3.7-3.4C51.6,407.8,51.5,405,49.8,403.6z M64.2,403.9c-1.8,0.4-2.4,2-3.9,2.7
		c0.6,1.4,0.8,3.3,2.2,3.9c0.8-1.1,2.5-1.4,3.4-2.4C65.5,406.4,64.7,405.4,64.2,403.9z M58.1,408.3c-2.5,1.2-2.9,4-1,6.1
		C60.1,413.8,60.8,409.8,58.1,408.3z M43,418.3c1.5-1,4.1-2,4.4-3.9c0.3-1.9-1.5-4.3-2.7-5.6C42.8,411.6,40.2,414.7,43,418.3z
		 M66.2,409.7c-0.9,1.1-2.3,1.6-3.2,2.7c0.1,1.6,1.1,2.3,1.7,3.4c1.3-0.7,2.4-1.5,3.7-2.2C67.8,412.2,67.5,410.4,66.2,409.7z
		 M70.8,411.9c0.1-0.9-0.5-1.1-1-1.5C69.7,411.4,70,411.9,70.8,411.9z M50.5,415.8c0.5,0.8,0.8,1.9,1.5,2.7c1.4-0.7,2.7-1.6,3.4-2.9
		c-0.5-1.2-0.8-2.7-2-3.2C52.8,413.9,51.2,414.4,50.5,415.8z M60.6,414.1c-2.3,1.2-2.6,3.7-0.7,5.6c1.3-0.3,2-1.2,2.7-2.2
		C61.9,416.4,62,414.5,60.6,414.1z M142.2,418.3c0.3-0.8,1.6-2.5,0.5-3.2C142.7,416.2,141.7,417.6,142.2,418.3z M69.3,415.4
		c-1.8,0.1-2,1.9-3.7,2.2c0.3,1.8,1.1,3.2,2.2,4.2c0.6-1.1,2.3-1.1,3.2-2C71,417.8,69.7,417,69.3,415.4z M46.1,424.4
		c1.8-1.1,3.1-2.6,4.2-4.4c-0.5-1-0.8-2.1-1.7-2.7C47.4,419.3,43.5,421.5,46.1,424.4z M55.9,418c-0.8,1.2-2.1,1.8-2.7,3.2
		c0.9,0.7,1,2.1,1.7,2.9c1.4-0.6,2.5-1.6,3.2-2.9C57.3,420.2,57.4,418.4,55.9,418z M61,422.4c0.5,1.2,1,2.5,2,3.2
		c0.8-0.8,1.8-1.5,2.2-2.7c-0.8-1-0.7-2.7-2-3.2C62.9,421,61.6,421.4,61,422.4z M73.7,424.2c-1.1-0.8-1.1-2.7-2.4-3.2
		c-0.9,0.9-2.1,1.5-2.7,2.7c0.4,1.4,0.9,2.7,2,3.4c1.1-0.4,1.9-1,2.9-1.5C73.3,424.9,73.8,424.7,73.7,424.2z M50,430.3
		c2-1.7,4.6-5,1.5-7.3C49.8,424.5,46.5,428.4,50,430.3z M56.4,427.1c0.3,1.2,1.4,1.7,1.7,2.9c1.1-0.7,1.9-1.6,2.7-2.4
		c-0.5-1.2-0.9-2.5-1.7-3.4C58.5,425.5,57.4,426.2,56.4,427.1z M349.5,424.6c-2.1,1.4-3.9,1.9-6.6,2.4c-1.2,2.4-3.7,3.5-5.1,5.6
		c-2.3,4.4-3.4,9.4-6.1,13.9c0.2,1-0.3,3.4-0.2,4.9c0.5,1.1,3.6,1,5.1,1.7c1-0.9,3.3-0.4,4.9-0.7c1.7-0.9,3.3-2.1,5.1-2.9
		c-0.7-1.6,1.1-0.3,1.7-1.2c-0.9-0.6,1.2-1.9,1.7-2.7c0,0.4,0,0.8,0.5,0.7c1.7-3.7,5.4-5.4,6.1-10c0.9,0.1,0.2-1.4,1.5-1
		c-0.6-1.3,0.7-0.8,1-1.5c0.8-2.5,1.3-6.6-0.5-9.3C355.3,424.5,353,424.5,349.5,424.6z M64,428.6c1.1,1.1,0.8,3.4,2.2,3.4
		c0.6,0,1.5-2,2.2-2.7c-0.8-1.2-1-3.1-2.4-3.7C65.3,426.6,64.3,427.2,64,428.6z M229,449.3c0.5,1.1,1.8,1.3,2.7,1.7
		c2.1,1,5,1.2,8.6,1c0-0.3,0-0.7,0.2-0.7c0.8-0.5,2.2-0.7,2.9-1.2c0.7-0.5,1.9-2.4,2.4-2.9c0.1-0.1,0.6,0.1,0.7,0
		c0.2-0.2-0.3-0.6-0.2-0.7c0-0.1,0.7,0.1,0.7,0c0.6-1.6,0.4-3.9,2.2-3.2c1.5-5.3,5.8-9,6.6-14.2c-0.9-0.1-0.7-1.1-0.5-1.7
		c-5.1-3-9,0.9-13.4,2.7c-2.6,3.5-5.5,6.7-8.8,9.5c-0.2,0.7,0.5,0.5,0.5,1c-1.4,0.7-2.9,2.5-2.4,4.4c-0.3,0-0.3-0.3-0.7-0.2
		c-0.2,0.8,0.7,0.5,0.5,1.2c-0.7,0.5-1,1.3-2,1.5c1.3,0.5-0.7,0.6-0.5,1.5C229.7,448.5,228.6,448.7,229,449.3z M307.4,428.6
		c-3.1,2-2.9,5.6-2.9,9c-0.2,0-0.5,0-0.7,0c-0.2,0.7,0.5,0.5,0.5,1c-1.1-0.3-0.3,1.2-1.2,1c1,1.5-0.4,1.2-1.2,2.7
		c-0.7,1.3-0.2,3.5-1.5,3.2c0.3,1.4-0.3,1.8-0.7,2.4c2.4,2.1,7.8,3.4,11,2.7c2.5-0.6,5.7-4.8,7.6-7.6c0,0-0.4-0.3-0.2-0.5
		c2.2-3,4.5-6.9,4.6-10.8c0.8-0.6,0.8-2,1.2-2.9c-0.6-0.4-0.5-0.5-1.2-0.2c-1.7-3.3-6.7-1.8-9.5-2.4
		C312.4,428.2,309.5,428,307.4,428.6z M274.4,433c1.4-1.3,0.6-2.2,0.5-4.2c-0.7-0.5-1.4-1.1-1.7-2c-2.3-0.4-3.3,0.4-5.4,0.7
		c0.1,0.6-0.1,0.9-0.5,1c-0.3,0-0.7,0-1,0c-1.7,6.2-5.5,10.3-8.5,15.2c-1.3-0.1-2.7,3-2.9,3.9c0.6-0.4,0.8,1.8,0.7,2.9
		c1-0.2,0.4,0.8,1.2,1.2c2.1-0.1,3.9-1.1,5.9-1.5c2-2.2,4-3.5,6.4-4.9c1-4,4.4-7.1,5.1-11.7c0.4,0,0.6-0.2,0.7-0.5
		C274.7,433.1,274.4,433.2,274.4,433z M53,432.5c0.8,0.6,1.9,0.9,2.7,1.5c1.3-1.5,0.4-4.1-1.2-4.6C54.4,430.8,53.2,431.2,53,432.5z
		 M291,429.8c-1.8-0.4-3.5,2.2-5.9,2c0.2,7-6.2,11.7-7.6,17.6c2.8,2.5,7.3,2.1,10.8,0c4-4,6.8-8.5,7.8-15.2c0-0.2,0.2-0.3,0.5-0.2
		c-0.4-1.4-1.3-2.2-1.2-3.9c-1.3,0.4-1.2-0.6-2-0.7C293.5,430,291.7,428.8,291,429.8z M69.1,431.7c0.6,0.6,2-0.8,1.2-1.5
		C70,430.9,69.2,430.9,69.1,431.7z M59.8,432.7c0.6,1.3,1.5,2.3,2.2,3.4c2.9-0.7,1.3-4.8-0.5-5.6C61.2,431.4,60.5,432.1,59.8,432.7z
		 M113.8,442c0.5-0.7,0.9-0.5,1.5-0.7c-0.2-0.7-0.5-1.3-1.5-1.2C113.4,440.3,112.9,441.8,113.8,442z M101.1,445.4
		c-0.4,0-0.8,0-1.2,0C99.6,446.8,101.1,446,101.1,445.4z"/>
	<path class="st0" d="M386.9,72.7c0.8,0.2,1.1,0,2.2,0.2c-0.1-1.1-1.4-1.1-1.5-2.2c1.9-0.6,5.8-1.5,7.1,0.2c0.1,0.7-0.1,1.2-0.5,1.5
		c0.3,0.7,1.1,0.9,1.7,1.2c0.7-0.3-0.4-0.8-0.2-1.5c0.7-1.6,2.6-1.3,3.4,0c0,0.9-1,1-1.2,1.7c1,0.9,3.3,0.6,4.6,1.2
		c0.1,2.3,1.2,3.7,2.9,4.4c0.8-1-1-1.1-1-2.2c0.1-1.8,2.5-2,3.4-1c0.2,1.2-0.3,1.9-0.7,2.4c2.1,0,2.2,2.1,3.4,2.9
		c-0.3,1.1,0.1,1.5-0.7,2.2c-0.7,0-1.6,0.1-2-0.2c-1.5,6-8.4-1-1.2-0.2c0.5-0.4-0.5-1.3-0.5-2c-1.4,0.1-1.9,1.2-3.4,1.2
		c-0.4,0.3-0.1,1.4-0.5,1.7c-4.3,1.5-9.5-0.3-13-0.7c-2.2,0.6-6.6,1.1-8.3,0c0-0.6,0-1.2,0.2-1.5c-0.8-0.6-1.6-1.2-2.7-1.5
		c-0.7,1,0.9,1.2,0.7,2.4c-0.6,1-2.4,0.7-3.2,0c-0.2-1.7,0.5-2.8-1-3.9c-0.6,0.4-2,0.1-2,1.2c0.1,1.2,2,0.8,2,2.2
		c-0.2,1.1-1.5,1.6-2.4,1.2c-0.4-0.5-0.6-1.2-0.5-2.2c-0.6,0-1.2,0-1.2,0.5c0.4,1.5,1.7,2,2.4,3.2c-0.7,1.4-3.3,2.5-4.6,2.4
		c-3.7-0.3-2.9-6.3-1.5-8.6c-0.5-1.2-1.8-1.6-2.2-2.9c1.2-2.9,5,0.1,2.7,2.2c0.9-0.1,3.3-0.7,3.9-2c-0.1-0.6-1.3,0-1.5-0.5
		c-0.6-1.2,0.1-2.3,0.7-2.9c3.1-0.8,12.8-6.3,16.1-1.7C387.3,72.1,386.8,72.1,386.9,72.7z M375.4,78.1c0.2,0.2,1.4,0.5,1.5,0
		C376.4,77.8,375.6,77.1,375.4,78.1z"/>
	<path class="st0" d="M374.1,98.1c0.1-0.6-1.1-1.2-0.2-1.7c2.6-3.2,7.2-4.4,9.5-7.8c5.2-2.1,14.2-1.4,19.8,1
		c1.6,0.7,3.2,2.2,4.6,2.9c0.8,0.4,1.8,0.4,2.2,0.7c2.2,1.7,4.1,6.6,3.7,9.8c-0.9,6.3-9.8,7.3-15.4,10c-2.6,1.3-5.7,3.3-9.8,3.2
		c-0.7,0-1.3-0.6-2.2-0.7c-0.7-0.1-2.6,0.5-3.7,0c-0.8-0.3-0.9-1.4-1.7-2c-0.2-0.2-0.9,0-1.5-0.2c-0.9-0.4-1.5-1.3-2.9-0.7
		C372.4,110.8,368.4,101,374.1,98.1z M381.5,102.7c0.9,5.9,5.1,2,7.8,0.7c2.2-1,4.8-1,5.6-2.4C390.5,101,384.7,99.8,381.5,102.7z"/>
</g>
</svg>
