<?xml version="1.0" encoding="utf-8"?>
<!-- Generator: Adobe Illustrator 19.0.0, SVG Export Plug-In . SVG Version: 6.00 Build 0)  -->
<svg version="1.1" id="Layer_1" xmlns="http://www.w3.org/2000/svg" xmlns:xlink="http://www.w3.org/1999/xlink" x="0px" y="0px"
	 viewBox="-239 363.4 115.5 114.5" style="enable-background:new -239 363.4 115.5 114.5;" xml:space="preserve">
<style type="text/css">
	.st0{display:none;}
	.st1{display:inline;fill:#2E3192;}
	.st2{fill:none;}
	.st3{fill:#FFD126;}
	.st4{fill:#21150D;}
	.st5{fill:#3B2315;}
</style>
<g id="Layer_2" class="st0">
	<rect id="XMLID_9_" x="-267.6" y="351.1" class="st1" width="204.3" height="134.3"/>
</g>
<g id="Layer_1_1_">
	<g id="XMLID_2_">
		<g id="XMLID_4_">
			<path id="XMLID_7_" class="st2" d="M-125.7,417.2c-4.8,1.1-9.5,0-13.2-3.4c-2.6-2.8-3.8-6-3.7-9.8c-11.3,1.8-21.4-6.8-19.9-18.6
				c-4.6-0.5-8.7-2.8-10.9-7c-1.2-2.2-1.6-4.7-1.4-7.2c0.1-1.4,0.5-2.7,1-4c0.6-1.4,1.1-1.5-0.3-2.2c-1.7-0.9-4.8-0.5-6.8-0.5
				c-1.7,0-3.4,0-5,0.2c-2.9,0.2-5.8,0.7-8.6,1.4c-5.6,1.3-10.8,3.5-15.6,6.4c-9,5.5-16.2,13.6-20.8,22.9c-0.4,2.9-0.6,5.9-0.6,8.9
				c0,37.6,30.6,68.3,68.3,68.3c1.3,0,2.6,0,3.8-0.1c2.9-1.2,5.7-2.7,8.4-4.4C-134,456.9-124.6,437.3-125.7,417.2z"/>
			<path id="XMLID_8_" class="st2" d="M-138.9,413.8c-2.6-2.8-3.8-6-3.7-9.8c-11.3,1.8-21.4-6.8-19.9-18.6c-4.6-0.5-8.7-2.8-10.9-7
				c-1.2-2.2-1.6-4.7-1.4-7.2c0.1-1.4,0.5-2.7,1-4c0.6-1.4,1.1-1.5-0.3-2.2c-1.7-0.9-4.8-0.5-6.8-0.5c-1.7,0-3.4,0-5,0.2
				c-2.9,0.2-5.8,0.7-8.6,1.4c-5.5,1.3-10.8,3.5-15.6,6.4c7.6-3.8,16.1-5.9,25.2-5.9c3.3,0,6.6,0.3,9.8,0.9
				c-3.6,5-3.2,11.9,1.3,16.4c2.4,2.4,5.6,3.6,8.7,3.7c-0.9,5,0.5,10.4,4.4,14.3c4.2,4.2,10.1,5.6,15.4,4.2
				c-0.3,3.6,0.9,7.4,3.7,10.1c3.6,3.6,8.8,4.6,13.2,2.9c0.1,1.4,0.2,2.8,0.2,4.3c0,14.9-5.8,28.5-15.2,38.6
				c12.1-11.4,18.6-27.9,17.7-44.8C-130.5,418.3-135.2,417.2-138.9,413.8z"/>
			<path id="XMLID_15_" class="st3" d="M-127.1,418.4c-4.5,1.6-9.8,0.6-13.4-3c-2.8-2.8-4-6.6-3.7-10.3c-5.4,1.4-11.4,0-15.6-4.2
				c-3.9-3.9-5.4-9.3-4.5-14.4c-3.2-0.1-6.4-1.3-8.8-3.7c-4.5-4.5-4.9-11.5-1.2-16.6c-3.3-0.5-6.6-0.8-9.9-0.8
				c-9.1,0-17.8,2.2-25.5,6c0,0,0,0-0.1,0c-9.1,5.6-16.4,13.7-21,23.1c-4.1,8.2-6.2,17.4-6,26.8c0.5,19.5,11.2,37.8,28,47.7
				c15.3,9,34.1,10.2,50.3,3.4c2.9-1.2,5.8-2.7,8.5-4.5c2.8-1.8,5.4-3.9,7.8-6.1c9.5-10.2,15.4-24,15.4-39
				C-126.9,421.3-126.9,419.8-127.1,418.4z"/>
			<g id="XMLID_1_">
				<path id="XMLID_6_" class="st2" d="M-128.3,419.1c-4.5,1.6-9.7,0.6-13.2-2.9c-2.8-2.8-4-6.5-3.7-10.1c-5.3,1.4-11.2,0-15.4-4.2
					c-3.9-3.9-5.3-9.2-4.4-14.3c-3.2-0.1-6.3-1.3-8.7-3.7c-4.6-4.5-5-11.5-1.4-16.4c-3.2-0.6-6.4-0.9-9.8-0.9
					c-9,0-17.6,2.1-25.2,5.9l0,0c0,0,0,0-0.1,0c-9,5.5-16.2,13.6-20.8,22.9c-4,8.1-6.2,17.2-5.9,26.5c0.5,19.3,11.1,37.4,27.7,47.1
					c15.1,8.9,33.8,10.1,49.7,3.4c2.9-1.2,5.7-2.7,8.4-4.4c2.7-1.8,5.3-3.8,7.6-5.9c9.5-10.1,15.3-23.7,15.3-38.7
					C-128.2,421.9-128.2,420.5-128.3,419.1z"/>
				<path id="XMLID_27_" class="st3" d="M-123.6,416.1c0-0.4-1-0.3-1.2-0.2c-4.5,1.4-8.7,0.3-12.1-2.8c-2.6-2.8-3.8-6-3.6-9.9
					c0-0.6-0.9-0.5-1.2-0.4c-11.1,2.5-20.3-7.2-18.6-18c0.1-0.4-0.4-0.4-0.6-0.5c-9.9-0.6-14.8-11.5-9.4-19.5c0.2-0.3,0-0.5-0.3-0.6
					c-19-3.1-38.6,2.9-52.1,16.8c-0.3,0.3-0.6,0.7-0.9,1c-12.6,13.5-18,32.5-14.2,50.5c3.6,17.6,15.9,32.8,32.2,40.3
					c0.7,0.3,1.5,0.7,2.2,1c15.2,6.2,32.7,5.5,47.4-1.6c0.2-0.1,0.3-0.2,0.5-0.3c1.4-0.7,2.8-1.4,4.2-2.3
					C-132.7,458.4-122.2,437.7-123.6,416.1z M-149.8,467.9c2.3-1.8,4.4-3.7,6.3-5.8c-2.3,2.2-4.9,4.2-7.6,5.9
					c-2.7,1.7-5.5,3.2-8.4,4.4c-15.9,6.7-34.6,5.5-49.7-3.4c-16.5-9.7-27.2-27.8-27.7-47.1c-0.2-9.3,1.9-18.4,6-26.5
					c4.6-9.3,11.8-17.3,20.8-22.9c0,0,0,0,0.1,0l0,0c-2.2,1.1-4.3,2.3-6.3,3.6c9.6-7.6,21.8-12.2,35.1-12.2c3.3,0,6.6,0.3,9.8,0.9
					c-3.6,5-3.2,11.9,1.3,16.4c2.4,2.4,5.6,3.6,8.7,3.7c-0.9,5,0.5,10.4,4.4,14.3c4.2,4.2,10.1,5.6,15.4,4.2
					c-0.3,3.6,0.9,7.4,3.7,10.1c3.6,3.6,8.8,4.6,13.2,2.9c0.1,1.4,0.2,2.8,0.2,4.3C-124.5,440.4-134.5,457.7-149.8,467.9z"/>
				<path id="XMLID_38_" class="st3" d="M-137.9,413.4c-2.8-2.8-4-6.5-3.7-10.1c-5.3,1.4-11.2,0-15.4-4.2c-3.9-3.9-5.3-9.2-4.4-14.3
					c-3.2-0.1-6.3-1.3-8.7-3.7c-4.5-4.4-4.9-11.4-1.3-16.3c-3.2-0.6-6.4-0.9-9.8-0.9c-13.3,0-25.5,4.6-35.1,12.2
					c2-1.3,4.1-2.5,6.3-3.6c4.7-2.9,10-5.1,15.4-6.5c2.9-0.6,5.7-1.1,8.6-1.3c1.7-0.1,3.4-0.2,5-0.2c1.9,0,5.1-0.3,6.8,0.5
					c1.4,0.7,0.9,0.8,0.3,2.2c-0.6,1.3-0.9,2.6-1,4c-0.2,2.5,0.2,5,1.4,7.2c2.2,4.2,6.3,6.5,10.9,7c-1.4,11.8,8.7,20.4,20,18.6
					c-0.1,3.8,1.2,7,3.7,9.8c3.7,3.4,8.4,4.5,13.2,3.4c0.9,16.9-5.5,33.4-17.7,44.8l-0.1,0.1c-2,2.1-4.1,4.1-6.3,5.8
					c15.3-10.2,25.3-27.5,25.3-47.2c0-1.4-0.1-2.9-0.2-4.3C-129.1,418-134.3,417-137.9,413.4z"/>
			</g>
			<path id="XMLID_10_" class="st3" d="M-231.5,404.3c0-3,0.2-6,0.6-8.9c-4,8.1-6.2,17.2-5.9,26.5c0.5,19.3,11.1,37.4,27.7,47.1
				c15.1,8.9,33.8,10.1,49.7,3.4c-1.3,0.1-2.5,0.1-3.8,0.1C-200.9,472.5-231.5,441.9-231.5,404.3z"/>
		</g>
		<path id="XMLID_5_" class="st4" d="M-209.7,380.4c-0.6,1.2-1.3,2.4-2.5,3c-0.5,0.2-1.1,0.3-1.6,0.7c-0.6,0.5-0.8,1.4-0.9,2.3
			c-0.1,0.6-0.1,1.2-0.2,1.8c-0.1,0.9-0.2,1.8,0.2,2.7c0.5,1.1,1.9,1.7,3.1,1.7c1.2,0,2.4-0.5,3.6-0.9c1.2-0.5,2.3-0.9,3.6-0.9
			c1.1,0,2.3,0.3,3.3-0.2c1-0.6,1.2-2,1.2-3.3c0-0.9-0.1-1.9-0.6-2.6c-0.4-0.6-1-0.9-1.7-1.3c-2-1.1-4.1-2.1-6.2-3H-209.7z"/>
		<path id="XMLID_48_" class="st5" d="M-209.2,379.9c-0.6,1.2-1.3,2.4-2.5,3c-0.5,0.2-1.1,0.3-1.6,0.7c-0.6,0.5-0.8,1.4-0.9,2.3
			c-0.1,0.6-0.1,1.2-0.2,1.8c-0.1,0.9-0.2,1.8,0.2,2.7c0.5,1.1,1.9,1.7,3.1,1.7c1.2,0,2.4-0.5,3.6-0.9c1.2-0.5,2.3-0.9,3.6-0.9
			c1.1,0,2.3,0.3,3.3-0.2c1-0.6,1.2-2,1.2-3.3c0-0.9-0.1-1.9-0.6-2.6c-0.4-0.6-1-0.9-1.7-1.3c-2-1.1-4.1-2.1-6.2-3H-209.2z"/>
		<path id="XMLID_18_" class="st5" d="M-207.2,429.9c-0.7,0.3-1.1,0.9-1.3,1.7c-1.8-0.3-2.4,1.2-2.4,2.7c0,0.7,0.6,1.1,1.1,1.6
			c0.2,0.3,0.5,0.6,0.6,1c0,0.2,0,0.3,0.1,0.5c0.2,0.6,0.8,0.8,1,1.4c0.2,0.5,0.3,1,0.8,1.3c0.7,0.3,1.7,0.2,2.4,0.2
			c1.1-0.1,2.7,0.1,3.4-0.9c0.4-0.5,0.4-1.2,0.3-1.8c-0.2-0.7-0.2-1.3-0.3-2.1c-0.1-0.5,0-0.8,0-1.3c0.2-1,0.2-1.8-0.4-2.7
			c-1.1-1.6-3.1-2.2-4.9-1.7C-207,429.8-207.1,429.9-207.2,429.9z"/>
		<path id="XMLID_17_" class="st5" d="M-165.5,412.2C-165.6,412.2-165.6,412.3-165.5,412.2c-0.1,0.1-0.2,0.2-0.2,0.2
			c-0.1,0-0.2,0.1-0.3,0.1s-0.1,0.1-0.2,0.2c-0.1,0.2-0.2,0.3-0.4,0.5c-0.1,0.1-0.1,0.2-0.2,0.3c0,0.1,0,0.2-0.1,0.3
			c0,0.3-0.1,0.7-0.1,1c0,0.2,0,0.4,0.1,0.6l0.1,0.1c0.1,0.1,0,0.3,0.2,0.4c0.1,0.1,0.3,0.1,0.4,0.1c0.3,0.1,0.6,0.2,0.8,0.5
			c0.3,0.4,0.3,1,0.4,1.4c0.1,0.9,0.4,1.8,0.9,2.5c1.4,1.9,2.7,1,3.9-0.2c1.2-1.1,3.1-2.5,3.2-4.2c0.1-1.5-0.4-3.1-1.5-4.2
			c-0.6-0.6-1.3-1-2-1.3c-0.8,0.2-1.6,0.5-2.4,0.7c-0.6,0.2-1.2,0.3-1.7,0.5c-0.2,0.1-0.4,0.1-0.6,0.1
			C-165.3,412.1-165.4,412.1-165.5,412.2L-165.5,412.2z"/>
		<g id="XMLID_34_">
			<path id="XMLID_46_" class="st4" d="M-160.2,419.4c-1.2,1.1-2.4,2-3.9,0.2c-0.5-0.7-0.8-1.6-0.9-2.5c-0.1-0.5-0.1-1-0.4-1.4
				c-0.2-0.3-0.4-0.4-0.8-0.5c-0.1,0-0.3,0-0.4-0.1s-0.1-0.2-0.2-0.4c0,0,0-0.1-0.1-0.1c0-0.1-0.1-0.1-0.1-0.2c0,0.2,0,0.4,0,0.6
				c0,0.2,0,0.4,0.1,0.6l0.1,0.1c0.1,0.1,0,0.3,0.2,0.4c0.1,0.1,0.3,0.1,0.4,0.1c0.3,0.1,0.6,0.2,0.8,0.5c0.3,0.4,0.3,1,0.4,1.4
				c0.1,0.9,0.4,1.8,0.9,2.5c1.4,1.9,2.7,1,3.9-0.1c1.2-1.1,3.1-2.5,3.2-4.2c0-0.3,0-0.6,0-0.9
				C-157.2,416.9-159.1,418.3-160.2,419.4z"/>
			<path id="XMLID_49_" class="st5" d="M-166.7,414.6c0.1,0.1,0,0.3,0.2,0.4c0.1,0.1,0.3,0.1,0.4,0.1c0.3,0.1,0.6,0.2,0.8,0.5
				c0.3,0.4,0.3,1,0.4,1.4c0.1,0.9,0.4,1.8,0.9,2.5c1.4,1.9,2.7,1,3.9-0.2c1.1-1.1,3-2.4,3.2-4.1l0,0c0.1-1.5-0.4-3.1-1.5-4.2
				c-0.6-0.6-1.3-1-2-1.3c-0.8,0.2-1.6,0.5-2.4,0.7c-0.6,0.2-1.2,0.3-1.7,0.5c-0.2,0.1-0.4,0.1-0.6,0.1c-0.1,0-0.2,0.1-0.3,0.1
				c0,0,0,0,0,0.1c0,0,0,0.1-0.1,0.1c-0.1,0.1-0.1,0.1-0.2,0.1c-0.1,0-0.2,0.1-0.3,0.1c-0.1,0-0.1,0.1-0.2,0.2
				c-0.1,0.2-0.2,0.3-0.4,0.5c-0.1,0.1-0.1,0.2-0.2,0.3c0,0.1,0,0.2-0.1,0.3c0,0.3-0.1,0.7-0.1,1c0,0.1,0,0.2,0,0.4
				c0,0.1,0,0.2,0.1,0.2C-166.7,414.5-166.7,414.5-166.7,414.6z"/>
		</g>
		<path id="XMLID_19_" class="st4" d="M-183.4,452.1c-0.8,0-1.6,0-2.4,0c-0.2,0.5-0.1,1,0.1,1.5c0.2,0.5,0.6,0.8,1,1.2
			c0.4,0.4,0.8,0.7,1.3,1c0.7,0.3,1.5,0.3,2.2,0.3c0.5,0,1.1-0.1,1.3-0.5s0-0.9-0.3-1.2c-0.3-0.3-0.7-0.7-0.8-1.1L-183.4,452.1z"/>
		<path id="XMLID_31_" class="st5" d="M-183.4,451.5c-0.8,0-1.6,0-2.4,0c-0.2,0.5-0.1,1,0.1,1.5c0.2,0.5,0.6,0.8,1,1.2
			c0.4,0.4,0.8,0.7,1.3,1c0.7,0.3,1.5,0.3,2.2,0.3c0.5,0,1.1-0.1,1.3-0.5c0.2-0.4,0-0.9-0.3-1.2c-0.3-0.3-0.7-0.7-0.8-1.1
			L-183.4,451.5z"/>
		<path id="XMLID_25_" class="st4" d="M-186.4,419.5c-0.5-0.1-1-0.1-1.5,0c-0.4,0-0.8,0.3-0.8,0.7c0,0.1,0,0.2,0,0.3
			c0,0.1-0.1,0.2-0.1,0.3c-0.1,0.3-0.1,0.4,0.1,0.6c0.1,0.2,0.2,0.4,0.3,0.6c0.2,0.4,0.6,0.8,1,1c0.5,0.3,1.1,0.5,1.6,0.2
			c0.4-0.2,0.6-0.6,0.7-1c0.2-0.6,0.3-1.3,0.1-1.9C-185.5,419.8-185.9,419.6-186.4,419.5z"/>
		<path id="XMLID_42_" class="st5" d="M-186.4,419.2c-0.5-0.1-1-0.1-1.5,0c-0.4,0-0.8,0.3-0.8,0.7c0,0.1,0,0.2,0,0.3
			s-0.1,0.2-0.1,0.3c-0.1,0.3-0.1,0.4,0.1,0.6c0.1,0.2,0.2,0.4,0.3,0.6c0.2,0.4,0.6,0.8,1,1c0.5,0.3,1.1,0.5,1.6,0.2
			c0.4-0.2,0.6-0.6,0.7-1c0.2-0.6,0.3-1.3,0.1-1.9C-185.5,419.5-185.9,419.2-186.4,419.2z"/>
		<path id="XMLID_20_" class="st4" d="M-163.5,434.1c-2.8,0.1-5,2.8-7.8,2.8c-0.2,0-0.5,0-0.7,0.1c-0.3,0.2-0.3,0.6-0.2,1
			c0.1,0.8,0.1,1.6,0.2,2.5c0.1,1.1,0.3,2.4,1.2,3c0.5,0.3,1.1,0.4,1.6,0.4c1.8,0.2,3.6,0.3,5.3,0.3c1.6,0.1,3.3,0.1,4.7-0.8
			c1.5-0.9,2.3-2.7,2.1-4.3c-0.2-1.1-0.7-2.1-1.3-2.9c-0.9-1.2-2.2-2.5-3.7-2.1H-163.5z"/>
		<path id="XMLID_37_" class="st5" d="M-164.2,434.1c-2.8,0.1-5,2.8-7.8,2.8c-0.2,0-0.5,0-0.7,0.1c-0.3,0.2-0.3,0.6-0.2,1
			c0.1,0.8,0.1,1.6,0.2,2.5c0.1,1.1,0.3,2.4,1.2,3c0.5,0.3,1.1,0.4,1.6,0.4c1.8,0.2,3.6,0.3,5.3,0.3c1.6,0.1,3.3,0.1,4.7-0.8
			c1.5-0.9,2.3-2.7,2.1-4.3c-0.2-1.1-0.7-2.1-1.3-2.9c-0.9-1.2-2.2-2.5-3.7-2.1H-164.2z"/>
		<path id="XMLID_24_" class="st4" d="M-211.7,402.7c-0.4,0.3-2.2,0-2.8,0c-1,0-1.5,1-1.8,1.9c-0.1,0.4-0.1,0.8-0.1,1.3
			c0,1,0,2-0.1,2.9c0,0.4,0,0.8,0.2,1.1c0.2,0.2,0.4,0.4,0.6,0.5c1.5,0.8,2.9,1.1,4.5,1.3c1,0.1,2.1,0,2.6-0.8
			c0.6-0.8,0.3-2.2,1.2-2.8c0.4-0.3,1-0.3,1.5-0.4c0.9-0.3,1.5-1.3,1.6-2.3c0.1-1-0.2-2.1-0.6-3c-0.3-0.6-0.4-1.4-0.8-1.9
			c-0.1-0.2-0.3-0.3-0.4-0.4c-1.4-1.1-2.5,0.2-3.6,1.1C-210.3,401.7-211,402.2-211.7,402.7z"/>
		<path id="XMLID_45_" class="st5" d="M-211.1,402.2c-0.4,0.3-2.2,0-2.8,0c-1,0-1.5,1-1.8,1.9c-0.1,0.4-0.1,0.8-0.1,1.3
			c0,1,0,2-0.1,2.9c0,0.4,0,0.8,0.2,1.1c0.2,0.2,0.4,0.4,0.6,0.5c1.5,0.8,2.9,1.1,4.5,1.3c1,0.1,2.1,0,2.6-0.8
			c0.3-0.4,0.3-0.8,0.4-1.3c0.1-0.7,0.3-0.7,1-0.9c0.2-0.1,0.5-0.1,0.7-0.3c1.1-0.7,2.1-1.8,2.3-3.1c0.1-1-0.2-2.1-0.6-3
			c-0.3-0.6-0.4-1.4-0.8-1.9c-0.1-0.2-0.3-0.3-0.4-0.4c-1.4-1.1-2.5,0.2-3.6,1.1C-209.7,401.1-210.4,401.7-211.1,402.2z"/>
		<path id="XMLID_26_" class="st4" d="M-179.5,396.7c-0.4,0.2-0.9,0.4-1.2,0.7c-0.3,0.4-0.5,1-0.3,1.4c0.3,0.5,1,0.6,1.6,0.6
			c0.2,0.4-0.1,1.2,0.4,1.1c0.2,0,0.3-0.3,0.4-0.6c0-0.4,0-0.9,0-1.3L-179.5,396.7z"/>
		<path id="XMLID_54_" class="st5" d="M-179.1,396.3c-0.4,0.2-0.9,0.4-1.2,0.7c-0.3,0.3-0.5,0.9-0.2,1.3c0.3,0.5,1,0.6,1.6,0.6
			c0.2,0.4-0.1,1.2,0.4,1.1c0.2,0,0.3-0.3,0.4-0.6c0-0.4,0-0.9,0-1.3L-179.1,396.3z"/>
		<path id="XMLID_28_" class="st4" d="M-216,455.2c-0.7,0.3-0.5,1.3-0.2,2c0.1,0.3,0.2,0.5,0.5,0.7c0.3,0.2,0.6,0.2,0.8,0
			c0-0.2,0.1-0.4,0.1-0.5c0.9,0.2,1.9-0.5,2-1.4L-216,455.2z"/>
		<path id="XMLID_39_" class="st5" d="M-216,454.7c-0.7,0.3-0.5,1.3-0.2,2c0.1,0.3,0.2,0.5,0.5,0.7c0.3,0.2,0.6,0.2,0.8,0
			c0-0.2,0.1-0.4,0.1-0.5c0.9,0.2,1.9-0.5,2-1.4L-216,454.7z"/>
		<g id="XMLID_3_">
			<path id="XMLID_13_" class="st2" d="M-131.9,393.7c-0.6,0.5-1.3,0.9-2,0.8c-0.3,0-0.6-0.2-1-0.3c-1.2-0.3-2.4,0-3.6-0.3
				c0-0.5-0.3-1-0.7-1.3c-0.4-0.3-0.9-0.5-1.3-0.7c-0.8-0.4-1.6-0.9-2.3-1.4c-0.2-0.2-0.4-0.3-0.5-0.6c0-0.2,0-0.4,0.1-0.6
				c0.3-0.6,0.6-1.2,0.9-1.8c0.3-0.4,0.6-0.9,0.5-1.4c-0.1-0.9-1.2-1.2-2-1.5c-0.2-0.1-0.3-0.2-0.5-0.3c-0.9,0.4-1.7,0.8-2.6,1.1
				c0.8,0.9,1.9,1.1,2.9,1.8c0.5,0.4,0.8,0.9,0.6,1.5c-0.4,1.5-2.5,2.8-0.7,4.1c1,0.7,2.3,1.1,3.2,1.8c0.3,0.2,0.4,0.4,0.6,0.7
				c0.7,0.9,0.8,0.7,2,0.7c1.7,0,3.1,0.7,4.6-0.6c0.6-0.6,1.2-0.9,1.9-1.3c0.9-0.4,1.5-0.6,1.8-1.6c0-0.1,0.1-0.2,0.1-0.3
				c-0.1,0-0.2,0.1-0.3,0.1C-130.8,392.7-131.3,393.2-131.9,393.7z"/>
			<path id="XMLID_32_" class="st3" d="M-129.1,386.3c-0.1-1,0.3-2.1-0.2-3c-0.4-0.9-1.4-2.2-2.1-2.8c-0.3-0.3-0.7-0.6-1.2-0.6
				c-0.6,0-1.3,0.3-1.9,0.4c-2.1,0.4-4.1,0.9-6.2,1.3c-0.1,0-0.1,0-0.2,0.1c-1.2,0.9-2.5,1.7-3.9,2.3c-0.9,0.4-1.8,0.8-2.7,1.1
				c-0.1,0-0.3,0.2-0.2,0.3c0.6,0.8,1.4,1.2,2.3,1.7c0.8,0.3,0.8,0.3,1,1.2c0.2,0.9,0.1,0.8-0.3,1.5c-0.3,0.5-0.9,1.3-0.9,1.9
				c-0.2,2.3,4.5,2.2,4.8,4.5c0,0.1,0.1,0.1,0.2,0.1c1.4,0.2,2.7,0.1,4,0.4c0.6,0.1,1.1,0.2,1.7,0c0.9-0.3,1.5-1.1,2.2-1.7
				c0.8-0.6,1.9-0.6,2.6-1.3c0.5-0.5,0.6-1.1,0.8-1.7c0,0,0,0,0-0.1c0.3-0.8,0.8-1.6,0.8-2.5C-128.4,388.5-129,387.4-129.1,386.3z
				 M-129.5,391.2c-0.1,0.3-0.2,0.7-0.4,1c-0.1,0-0.2,0.1-0.3,0.1c-0.1,0-0.1,0.1-0.2,0.1v-0.1c0.4-1,0.5-1.7,0.3-2.7
				c-0.1-0.7-0.4-1.4-0.4-2.1c-0.1-1.2,0.2-2.2-0.4-3.3c-0.5-0.9-1.6-2.7-2.8-2.7c-0.3,0-0.6,0.1-0.8,0.2c-2.3,0.5-4.5,1-6.8,1.4
				c-0.8,0.6-1.6,1.1-2.5,1.6c0,0-0.1,0-0.1-0.1c-0.2-0.1-0.3-0.2-0.5-0.3c1.3-0.6,2.6-1.4,3.8-2.3c2.3-0.5,4.5-1,6.8-1.4
				c0.3-0.1,0.6-0.2,0.8-0.2c1.2,0,2.2,1.8,2.8,2.7c0.6,1.1,0.3,2.1,0.4,3.3c0.1,0.7,0.3,1.4,0.4,2.1
				C-129,389.6-129.1,390.3-129.5,391.2z"/>
		</g>
		<path id="XMLID_62_" class="st2" d="M-150.5,379.2c0-0.1,0-0.1,0-0.2c-0.1-0.1-0.2-0.1-0.3-0.2c-0.2,0-0.4-0.1-0.6-0.2
			c-0.1,0-0.1-0.1-0.2-0.2c-0.1-0.2,0.1-0.3,0.2-0.5c0.3-0.3,0.7-0.7,1.2-0.9c-0.1,0-0.2,0-0.3,0c-0.3,0.1-1.2,0.6-1.3,0.9
			c-0.1,0.8,0.6,0.5,0.9,0.9c0.1,0.1,0.1,0.4,0.1,0.5c0.2,0.7,0.6,1,1.1,1c-0.1-0.1-0.2-0.1-0.3-0.2
			C-150.4,380-150.6,379.6-150.5,379.2z"/>
		<path id="XMLID_36_" class="st3" d="M-147.1,378.2c-0.4-0.7-0.9-1.1-1.6-1.3c-0.6-0.2-1.2-0.1-1.9,0l0,0l0,0
			c-0.6,0.2-2.3,1.3-1.3,1.8c0.5,0.3,0.6,0.2,0.8,0.9c0.1,0.3,0.2,0.5,0.4,0.7c0.5,0.5,1.1,0.4,1.7,0.3c0.5-0.1,1,0,1.4-0.3
			c0.1,0,0.1-0.1,0.2-0.1C-147,379.8-146.8,378.8-147.1,378.2z M-151,379.4c0-0.1,0-0.4-0.1-0.5c-0.3-0.3-1,0-0.9-0.9
			c0-0.3,1-0.8,1.3-0.9c0.1,0,0.2,0,0.3,0c-0.4,0.2-0.9,0.6-1.2,0.9c-0.1,0.1-0.2,0.3-0.2,0.5c0,0.1,0.1,0.1,0.2,0.2
			c0.2,0.1,0.4,0.2,0.6,0.2c0.1,0,0.3,0,0.3,0.2c0,0.1,0,0.1,0,0.2c0,0.4,0.2,0.8,0.4,1.1c0.1,0.1,0.2,0.1,0.3,0.2
			C-150.4,380.4-150.8,380.1-151,379.4z"/>
		<path id="XMLID_77_" class="st3" d="M-147.6,378.1L-147.6,378.1c0.5,1-0.1,1.9-1.2,2.1c-0.4,0-0.8,0.1-1.1,0
			c-0.1-0.1-0.2-0.1-0.3-0.2c-0.1-0.1-0.1-0.1-0.2-0.2c0.1,0.2,0.2,0.4,0.3,0.5c0.1,0.1,0.2,0.1,0.3,0.2c0.3,0,0.7,0,1.1,0
			C-147.4,380.3-146.9,379.2-147.6,378.1z"/>
		<path id="XMLID_80_" class="st3" d="M-151,378.6c-0.2,0-0.4-0.1-0.6-0.2l0,0v0.1c0,0.1,0.1,0.1,0.2,0.2c0.2,0.1,0.4,0.2,0.6,0.2
			c0.1,0,0.1,0,0.2,0.1c0-0.1,0-0.1,0-0.2C-150.8,378.6-150.9,378.6-151,378.6z"/>
	</g>
</g>
</svg>
