<?xml version="1.0" encoding="utf-8"?>
<!-- Generator: Adobe Illustrator 19.0.0, SVG Export Plug-In . SVG Version: 6.00 Build 0)  -->
<svg version="1.1" id="Layer_1" xmlns="http://www.w3.org/2000/svg" xmlns:xlink="http://www.w3.org/1999/xlink" x="0px" y="0px"
	 viewBox="-114 176.6 381.8 440.4" style="enable-background:new -114 176.6 381.8 440.4;" xml:space="preserve">
<style type="text/css">
	.st0{display:none;}
	.st1{display:inline;fill:#79CAB8;}
	.st2{fill:#231F20;}
</style>
<g id="Layer_2" class="st0">
	<rect id="XMLID_110_" x="-332.5" y="15.9" class="st1" width="1013.9" height="829.5"/>
</g>
<g id="Layer_1_1_">
	<g id="XMLID_2_">
		<g id="XMLID_1_">
			<path id="XMLID_24_" class="st2" d="M-114,396.7c0-35.9,0-71.8,0-107.7c0-2,0.6-3,2.3-4.1c62-35.8,124-71.6,185.9-107.5
				c1.9-1.1,3.3-1.2,5.2-0.1c62,35.9,124.1,71.8,186.1,107.7c1.5,0.9,2.1,1.8,2.1,3.6c-0.1,72-0.1,143.9,0,215.9
				c0,1.9-0.6,2.9-2.2,3.9C203.2,544.3,141.1,580.2,79,616.2c-1.6,0.9-2.8,1-4.4,0c-62.1-36-124.2-71.9-186.4-107.8
				c-1.8-1-2.3-2.1-2.3-4.1C-113.9,468.5-114,432.6-114,396.7z M243.8,396.8c0-31.3,0-62.6,0-93.9c0-1.9-0.6-3-2.2-3.9
				c-54.2-31.3-108.4-62.6-162.6-94c-1.7-1-2.9-0.9-4.5,0c-54,31.3-108,62.5-162.1,93.7c-1.9,1.1-2.6,2.3-2.6,4.5
				c0.1,62.4,0.1,124.8,0,187.2c0,2,0.6,3.1,2.3,4.1c54.1,31.2,108.1,62.4,162.1,93.7c1.8,1,3.1,1.2,5,0.1
				c54-31.3,108-62.5,162.1-93.7c1.8-1.1,2.5-2.2,2.5-4.3C243.8,459.2,243.8,428,243.8,396.8z"/>
		</g>
	</g>
</g>
</svg>
