<?xml version="1.0" encoding="utf-8"?>
<!-- Generator: Adobe Illustrator 19.0.0, SVG Export Plug-In . SVG Version: 6.00 Build 0)  -->
<svg version="1.1" id="Layer_1" xmlns="http://www.w3.org/2000/svg" xmlns:xlink="http://www.w3.org/1999/xlink" x="0px" y="0px"
	 viewBox="-257.4 382.5 440.4 381.7" style="enable-background:new -257.4 382.5 440.4 381.7;" xml:space="preserve">
<style type="text/css">
	.st0{display:none;}
	.st1{display:inline;fill:#79CAB8;}
	.st2{fill:#231F20;}
</style>
<g id="Layer_2" class="st0">
	<rect id="XMLID_110_" x="-446.5" y="192.5" class="st1" width="1013.9" height="829.5"/>
</g>
<g id="Layer_1_1_">
	<g id="XMLID_2_">
		<g id="XMLID_1_">
			<path id="XMLID_24_" class="st2" d="M-37.2,382.6c35.9,0,71.8,0,107.7,0c2,0,3,0.6,4.1,2.3c35.8,62,71.6,124,107.5,185.9
				c1.1,1.9,1.2,3.3,0.1,5.2c-35.9,62-71.8,124.1-107.7,186.1c-0.9,1.5-1.8,2.1-3.6,2.1c-72-0.1-143.9-0.1-215.9,0
				c-1.9,0-2.9-0.6-3.9-2.2c-35.9-62.2-71.8-124.3-107.8-186.4c-0.9-1.6-1-2.8,0-4.4c36-62.1,71.9-124.2,107.8-186.4
				c1-1.8,2.1-2.3,4.1-2.3C-109,382.7-73.1,382.6-37.2,382.6z M-37.3,740.4c31.3,0,62.6,0,93.9,0c1.9,0,3-0.6,3.9-2.2
				c31.3-54.2,62.6-108.4,94-162.6c1-1.7,0.9-2.9,0-4.5c-31.3-54-62.5-108-93.7-162.1c-1.1-1.9-2.3-2.6-4.5-2.6
				c-62.4,0.1-124.8,0.1-187.2,0c-2,0-3.1,0.6-4.1,2.3c-31.2,54.1-62.4,108.1-93.7,162.1c-1,1.8-1.2,3.1-0.1,5
				c31.3,54,62.5,108,93.7,162.1c1.1,1.8,2.2,2.5,4.3,2.5C-99.7,740.4-68.5,740.4-37.3,740.4z"/>
		</g>
	</g>
</g>
</svg>
