<?xml version="1.0" encoding="utf-8"?>
<!-- Generator: Adobe Illustrator 19.0.0, SVG Export Plug-In . SVG Version: 6.00 Build 0)  -->
<svg version="1.1" xmlns="http://www.w3.org/2000/svg" xmlns:xlink="http://www.w3.org/1999/xlink" x="0px" y="0px"
	 viewBox="0 0 50 50" style="enable-background:new 0 0 50 50;" xml:space="preserve">
<style type="text/css">
	.st0{display:none;}
	.st1{display:inline;}
	.st2{fill:none;stroke:url(#XMLID_6_);stroke-width:3;stroke-miterlimit:10;}
	.st3{display:inline;fill:#861619;}
	.st4{fill:#FFFFFF;}
</style>
<g id="Layer_2" class="st0">
	<rect id="XMLID_2_" x="0" y="0" class="st1" width="50" height="50"/>
</g>
<g id="Layer_1">
	<linearGradient id="XMLID_6_" gradientUnits="userSpaceOnUse" x1="1" y1="25" x2="51.5" y2="25">
		<stop  offset="5.102041e-003" style="stop-color:#FFFFFF"/>
		<stop  offset="0.4184" style="stop-color:#FFFFFF;stop-opacity:0"/>
	</linearGradient>
	<polygon id="XMLID_1_" class="st2" points="50,36.9 26.3,48.8 2.5,36.9 2.5,13.1 26.3,1.2 50,13.1 	"/>
</g>
<g id="Layer_4" class="st0">
	<rect id="XMLID_9_" x="9.8" y="13.8" class="st3" width="22.5" height="22.5"/>
</g>
<g id="Layer_3">
	<path id="XMLID_18_" class="st4" d="M32.3,31.2c-0.8,0.2-1.3,0-1.8-0.7l-3.2-4.5l-0.5-0.6L23,30.5c-0.4,0.6-0.9,0.9-1.7,0.7
		l4.8-6.5l-4.5-5.9c0.8-0.2,1.3-0.1,1.8,0.6l3.4,4.5l3.4-4.5c0.4-0.6,0.9-0.8,1.7-0.6l-1.7,2.3l-2.4,3.1c-0.3,0.4-0.2,0.6,0,0.9
		L32.3,31.2z M9.8,24.6l0.4-1.9c1.1-3.8,5.5-5.4,8.5-3.1c1.8,1.4,2.2,3.4,2.1,5.6h-10c-0.2,4,2.7,6.4,6.4,5.2c1.3-0.4,2-1.4,2.4-2.7
		c0.2-0.6,0.5-0.7,1.1-0.5c-0.3,1.6-1,2.9-2.4,3.7c-2.2,1.2-5.2,0.8-6.8-0.9c-1-1-1.4-2.2-1.5-3.6c0-0.2-0.1-0.4-0.1-0.6
		C9.8,25.3,9.8,25,9.8,24.6L9.8,24.6z M10.8,24.4h9.1c-0.1-2.9-1.9-4.9-4.3-4.9C12.9,19.4,10.9,21.4,10.8,24.4L10.8,24.4L10.8,24.4z
		"/>
</g>
</svg>
