<?xml version="1.0" encoding="utf-8"?>
<!-- Generator: Adobe Illustrator 19.0.0, SVG Export Plug-In . SVG Version: 6.00 Build 0)  -->
<svg version="1.1" xmlns="http://www.w3.org/2000/svg" xmlns:xlink="http://www.w3.org/1999/xlink" x="0px" y="0px"
	 viewBox="0 0 50 50" style="enable-background:new 0 0 50 50;" xml:space="preserve">
<style type="text/css">
	.st0{display:none;}
	.st1{display:inline;}
	.st2{fill:none;stroke:url(#XMLID_15_);stroke-width:3;stroke-miterlimit:10;}
	.st3{display:inline;fill:#861619;}
	.st4{fill:#FFFFFF;}
</style>
<g id="Layer_2" class="st0">
	<rect id="XMLID_2_" x="0" y="0" class="st1" width="50" height="50"/>
</g>
<g id="Layer_1">
	<linearGradient id="XMLID_15_" gradientUnits="userSpaceOnUse" x1="1" y1="25" x2="51.5" y2="25">
		<stop  offset="5.102041e-003" style="stop-color:#FFFFFF"/>
		<stop  offset="0.4184" style="stop-color:#FFFFFF;stop-opacity:0"/>
	</linearGradient>
	<polygon id="XMLID_1_" class="st2" points="50,36.9 26.3,48.8 2.5,36.9 2.5,13.1 26.3,1.2 50,13.1 	"/>
</g>
<g id="Layer_4" class="st0">
	<rect id="XMLID_9_" x="9.8" y="13.8" class="st3" width="22.5" height="22.5"/>
</g>
<g id="Layer_3">
	<g id="XMLID_12_">
		<path id="XMLID_14_" class="st4" d="M21,25.7c0,2.3,0,4.6,0,6.8c0,1.2-0.5,2.2-1.4,2.9c-1.2,1-2.9,1.1-4.3,0.2
			c-1.3-0.8-2-2.4-1.7-3.9c0.3-1.6,1.5-2.7,3-3c0,0,0.1,0,0.2,0c-2.1-0.6-3.4-1.8-3.2-4c0.1-2,1.3-3,3.2-3.5
			c-1.7-0.3-2.8-1.2-3.2-2.8c-0.6-2.4,1.1-4.6,3.6-4.6c2.5,0,5,0,7.6,0c1.9,0,3.5,1.5,3.7,3.4c0.2,2.1-1.1,3.7-3.2,4.1
			c1.1,0.2,2,0.8,2.6,1.7c0.6,0.9,0.8,2,0.5,3c-0.4,1.6-1.9,2.8-3.6,2.8C22.9,28.7,21.6,27.6,21,25.7z M21,24.4
			c0.4-1.6,1.4-2.6,3.1-3.1c-1.1,0-2.1,0-3.1,0C21,22.3,21,23.3,21,24.4z"/>
	</g>
</g>
</svg>
