<?xml version="1.0" encoding="utf-8"?>
<!-- Generator: Adobe Illustrator 19.0.0, SVG Export Plug-In . SVG Version: 6.00 Build 0)  -->
<svg version="1.1" id="Layer_1" xmlns="http://www.w3.org/2000/svg" xmlns:xlink="http://www.w3.org/1999/xlink" x="0px" y="0px"
	 viewBox="0 0 50 50" style="enable-background:new 0 0 50 50;" xml:space="preserve">
<style type="text/css">
	.st0{display:none;}
	.st1{display:inline;}
	.st2{fill:none;stroke:url(#XMLID_4_);stroke-width:3;stroke-miterlimit:10;}
	.st3{display:inline;fill:#861619;}
	.st4{fill:#FFFFFF;}
</style>
<g id="Layer_2" class="st0">
	<rect id="XMLID_2_" class="st1" width="50" height="50"/>
</g>
<g id="Layer_1_1_">
	
		<linearGradient id="XMLID_4_" gradientUnits="userSpaceOnUse" x1="1" y1="25" x2="51.5" y2="25" gradientTransform="matrix(1 0 0 -1 0 50)">
		<stop  offset="5.102041e-003" style="stop-color:#FFFFFF"/>
		<stop  offset="0.4184" style="stop-color:#FFFFFF;stop-opacity:0"/>
	</linearGradient>
	<polygon id="XMLID_1_" class="st2" points="50,36.9 26.3,48.8 2.5,36.9 2.5,13.1 26.3,1.2 50,13.1 	"/>
</g>
<g id="Layer_4" class="st0">
	<rect id="XMLID_9_" x="9.8" y="13.8" class="st3" width="22.5" height="22.5"/>
</g>
<path class="st4" d="M21,14.1c-6.2,0-11.3,5-11.3,11.3c0,5,3.2,9.2,7.7,10.7c0.6,0.1,0.8-0.2,0.8-0.5c0-0.3,0-1.2,0-2.1
	c-2.8,0.5-3.6-0.7-3.8-1.3c-0.1-0.3-0.7-1.3-1.2-1.6c-0.4-0.2-1-0.7,0-0.7c0.9,0,1.5,0.8,1.7,1.2c1,1.7,2.6,1.2,3.3,0.9
	c0.1-0.7,0.4-1.2,0.7-1.5c-2.5-0.3-5.1-1.3-5.1-5.6c0-1.2,0.4-2.2,1.2-3c-0.1-0.3-0.5-1.4,0.1-3c0,0,0.9-0.3,3.1,1.2
	c0.9-0.3,1.9-0.4,2.8-0.4c1,0,1.9,0.1,2.8,0.4c2.2-1.5,3.1-1.2,3.1-1.2c0.6,1.5,0.2,2.7,0.1,3c0.7,0.8,1.2,1.8,1.2,3
	c0,4.3-2.6,5.3-5.1,5.6c0.4,0.4,0.8,1,0.8,2.1c0,1.5,0,2.7,0,3.1c0,0.3,0.2,0.6,0.8,0.5c4.4-1.5,7.7-5.7,7.7-10.7
	C32.3,19.1,27.3,14.1,21,14.1z"/>
</svg>
