<?xml version="1.0" encoding="utf-8"?>
<!-- Generator: Adobe Illustrator 19.0.0, SVG Export Plug-In . SVG Version: 6.00 Build 0)  -->
<svg version="1.1" xmlns="http://www.w3.org/2000/svg" xmlns:xlink="http://www.w3.org/1999/xlink" x="0px" y="0px"
	 viewBox="0 0 50 50" style="enable-background:new 0 0 50 50;" xml:space="preserve">
<style type="text/css">
	.st0{display:none;}
	.st1{display:inline;}
	.st2{fill:none;stroke:url(#XMLID_6_);stroke-width:3;stroke-miterlimit:10;}
	.st3{display:inline;fill:#861619;}
	.st4{fill:#FFFFFF;}
</style>
<g id="Layer_2" class="st0">
	<rect id="XMLID_2_" x="0" y="0" class="st1" width="50" height="50"/>
</g>
<g id="Layer_1">
	<linearGradient id="XMLID_6_" gradientUnits="userSpaceOnUse" x1="1" y1="25" x2="51.5" y2="25">
		<stop  offset="5.102041e-003" style="stop-color:#FFFFFF"/>
		<stop  offset="0.4184" style="stop-color:#FFFFFF;stop-opacity:0"/>
	</linearGradient>
	<polygon id="XMLID_1_" class="st2" points="50,36.9 26.3,48.8 2.5,36.9 2.5,13.1 26.3,1.2 50,13.1 	"/>
</g>
<g id="Layer_4" class="st0">
	<rect id="XMLID_9_" x="9.8" y="13.8" class="st3" width="22.5" height="22.5"/>
</g>
<g id="Layer_3">
	<path id="XMLID_17_" class="st4" d="M26.2,19.3c0.9,0,1.6-0.6,1.6-1.6c0-0.9-0.6-1.6-1.6-1.6c-0.9,0-1.6,0.6-1.6,1.6
		C24.6,18.7,25.3,19.3,26.2,19.3z"/>
	<path id="XMLID_16_" class="st4" d="M27.4,21H25c-0.1,0-0.2,0-0.2,0.2h0v12c0,0.1,0,0.2,0.2,0.2h2.4c0.2,0,0.2,0,0.2-0.2v-12
		C27.6,21.1,27.5,21,27.4,21z"/>
	<path id="XMLID_19_" class="st4" d="M9.9,33.4h2.2c0.1,0,0.2,0,0.2-0.2l1.2-4.6l4.9,0l1.3,4.6c0,0.1,0.1,0.1,0.2,0.1h2.5
		c0.1,0,0.2-0.1,0.1-0.2l-4.8-16.4c0-0.1-0.1-0.1-0.2-0.1h-3.2c-0.1,0-0.1,0-0.1,0.1c0,0.8-0.1,1-0.1,1.3L9.8,33.1
		C9.7,33.3,9.8,33.4,9.9,33.4z M16,19L16,19c0.4,1.8,1.4,5.5,1.8,7.1h-3.6C14.8,23.8,15.6,20.8,16,19z"/>
</g>
</svg>
