<?xml version="1.0" encoding="utf-8"?>
<!-- Generator: Adobe Illustrator 19.0.0, SVG Export Plug-In . SVG Version: 6.00 Build 0)  -->
<svg version="1.1" xmlns="http://www.w3.org/2000/svg" xmlns:xlink="http://www.w3.org/1999/xlink" x="0px" y="0px"
	 viewBox="0 0 50 50" style="enable-background:new 0 0 50 50;" xml:space="preserve">
<style type="text/css">
	.st0{display:none;}
	.st1{display:inline;}
	.st2{fill:none;stroke:url(#XMLID_15_);stroke-width:3;stroke-miterlimit:10;}
	.st3{display:inline;fill:#861619;}
	.st4{fill:#FFFFFF;}
	.st5{fill:url(#XMLID_16_);}
	.st6{fill:url(#XMLID_18_);}
</style>
<g id="Layer_2" class="st0">
	<rect id="XMLID_2_" x="0" y="0" class="st1" width="50" height="50"/>
</g>
<g id="Layer_1">
	<linearGradient id="XMLID_15_" gradientUnits="userSpaceOnUse" x1="1" y1="25" x2="51.5" y2="25">
		<stop  offset="5.102041e-003" style="stop-color:#FFFFFF"/>
		<stop  offset="0.4184" style="stop-color:#FFFFFF;stop-opacity:0"/>
	</linearGradient>
	<polygon id="XMLID_1_" class="st2" points="50,36.9 26.3,48.8 2.5,36.9 2.5,13.1 26.3,1.2 50,13.1 	"/>
</g>
<g id="Layer_4" class="st0">
	<rect id="XMLID_9_" x="9.8" y="13.8" class="st3" width="22.5" height="22.5"/>
</g>
<g id="Layer_3">
	<path id="XMLID_17_" class="st4" d="M31.6,24.4L22,14.7L21,13.8l-7.3,7.3l-3.3,3.3c-0.3,0.3-0.3,0.9,0,1.3l6.7,6.7l4,4l7.3-7.3
		l0.1-0.1l3.2-3.2C32,25.3,32,24.8,31.6,24.4C31.6,24.4,31.6,24.4,31.6,24.4L31.6,24.4z M21,28.4L17.7,25l3.3-3.3l3.3,3.3L21,28.4z"
		/>
	
		<linearGradient id="XMLID_16_" gradientUnits="userSpaceOnUse" x1="5.1164" y1="-212.775" x2="4.6952" y2="-212.3538" gradientTransform="matrix(11.028 0 0 11.028 -36.0006 2364.8301)">
		<stop  offset="0.18" style="stop-color:#DCDDDE"/>
		<stop  offset="1" style="stop-color:#FFFFFF"/>
	</linearGradient>
	<path id="XMLID_6_" class="st5" d="M21,21.7c-2.2-2.2-2.2-5.7,0-7.9l-7.3,7.3l4,4L21,21.7z"/>
	
		<linearGradient id="XMLID_18_" gradientUnits="userSpaceOnUse" x1="5.228" y1="-211.5649" x2="5.6484" y2="-211.9852" gradientTransform="matrix(11.028 0 0 11.028 -36.0006 2364.8301)">
		<stop  offset="0.18" style="stop-color:#DCDDDE"/>
		<stop  offset="1" style="stop-color:#FFFFFF"/>
	</linearGradient>
	<path id="XMLID_4_" class="st6" d="M24.4,25L21,28.4c2.2,2.2,2.2,5.7,0,7.9l7.3-7.3L24.4,25z"/>
</g>
</svg>
