<?xml version="1.0" encoding="utf-8"?>
<!-- Generator: Adobe Illustrator 19.0.0, SVG Export Plug-In . SVG Version: 6.00 Build 0)  -->
<svg version="1.1" xmlns="http://www.w3.org/2000/svg" xmlns:xlink="http://www.w3.org/1999/xlink" x="0px" y="0px"
	 viewBox="0 0 50 50" style="enable-background:new 0 0 50 50;" xml:space="preserve">
<style type="text/css">
	.st0{display:none;}
	.st1{display:inline;}
	.st2{fill:none;stroke:url(#XMLID_4_);stroke-width:3;stroke-miterlimit:10;}
	.st3{display:inline;fill:#861619;}
	.st4{fill:#FFFFFF;}
</style>
<g id="Layer_2" class="st0">
	<rect id="XMLID_2_" x="0" y="0" class="st1" width="50" height="50"/>
</g>
<g id="Layer_1">
	<linearGradient id="XMLID_4_" gradientUnits="userSpaceOnUse" x1="1" y1="25" x2="51.5" y2="25">
		<stop  offset="5.102041e-003" style="stop-color:#FFFFFF"/>
		<stop  offset="0.4184" style="stop-color:#FFFFFF;stop-opacity:0"/>
	</linearGradient>
	<polygon id="XMLID_1_" class="st2" points="50,36.9 26.3,48.8 2.5,36.9 2.5,13.1 26.3,1.2 50,13.1 	"/>
</g>
<g id="Layer_4" class="st0">
	<rect id="XMLID_9_" x="9.8" y="13.7" class="st3" width="22.5" height="22.5"/>
</g>
<g id="Layer_3">
	<g id="XMLID_14_">
		<path id="XMLID_17_" class="st4" d="M22.1,36.3c0.1,0,0.2,0,0.2,0c0.9-0.2,1.9-0.4,2.8-0.6c1.7-0.4,3.5-0.8,5.2-1.2
			c0.1,0,0.2-0.1,0.2-0.2c0-0.5,0.1-1,0.1-1.5c0.1-1.5,0.3-3.1,0.4-4.6c0.1-1.4,0.3-2.8,0.4-4.2c0-0.4,0.1-0.9,0.1-1.3
			c-1.8,0-3.6,0-5.4,0c0-1.3,0-2.6,0-4c1.9,0,3.8,0,5.8,0c0.1-1.3,0.2-2.6,0.3-3.9c-3.4,0-6.8,0-10.2,0c0,3.9,0,7.8,0,11.7
			c1.8,0,3.5,0,5.2,0c0,0,0,0.1,0,0.1c-0.1,1.6-0.3,3.2-0.4,4.8c0,0.1-0.1,0.2-0.2,0.2c-1.5,0.3-2.9,0.5-4.4,0.8
			c-0.2,0-0.2,0.1-0.2,0.3c0,1.2,0,2.4,0,3.6C22.1,36.1,22.1,36.2,22.1,36.3z"/>
		<path id="XMLID_16_" class="st4" d="M13.6,28.3c-1.3,0-2.6,0-3.9,0c0,0.2,0,0.3,0,0.4c0,0.4,0.1,0.9,0.1,1.3
			c0.1,1.4,0.2,2.7,0.4,4.1c0,0.2,0.1,0.2,0.3,0.3c2.7,0.5,5.4,1.1,8.1,1.6c0.4,0.1,0.9,0.2,1.3,0.3c0-7.2,0-14.4,0-21.6
			c-2.9,0-5.7,0-8.6,0c0.1,1.3,0.2,2.6,0.4,3.9c0.1,0,0.2,0,0.3,0c1.3,0,2.6,0,3.8,0c0.3,0,0.3,0,0.3,0.3c0,4.2,0,8.4,0,12.6
			c0,0.1,0,0.2,0,0.2c0,0-0.1,0-0.1,0c-0.7-0.1-1.3-0.2-1.9-0.3c-0.1,0-0.1-0.1-0.1-0.2c0-0.4-0.1-0.7-0.1-1.1
			C13.8,29.6,13.7,28.9,13.6,28.3z"/>
	</g>
</g>
</svg>
