<?xml version="1.0" encoding="utf-8"?>
<!-- Generator: Adobe Illustrator 19.0.0, SVG Export Plug-In . SVG Version: 6.00 Build 0)  -->
<svg version="1.1" id="Layer_1" xmlns="http://www.w3.org/2000/svg" xmlns:xlink="http://www.w3.org/1999/xlink" x="0px" y="0px"
	 viewBox="0 0 50 50" style="enable-background:new 0 0 50 50;" xml:space="preserve">
<style type="text/css">
	.st0{display:none;}
	.st1{display:inline;}
	.st2{fill:none;stroke:url(#XMLID_4_);stroke-width:3;stroke-miterlimit:10;}
	.st3{display:inline;fill:#861619;}
	.st4{fill:#FFFFFF;}
</style>
<g id="Layer_2" class="st0">
	<rect id="XMLID_2_" class="st1" width="50" height="50"/>
</g>
<g id="Layer_1_1_">
	
		<linearGradient id="XMLID_4_" gradientUnits="userSpaceOnUse" x1="1" y1="25" x2="51.5" y2="25" gradientTransform="matrix(1 0 0 -1 0 50)">
		<stop  offset="5.102041e-003" style="stop-color:#FFFFFF"/>
		<stop  offset="0.4184" style="stop-color:#FFFFFF;stop-opacity:0"/>
	</linearGradient>
	<polygon id="XMLID_1_" class="st2" points="50,36.9 26.3,48.8 2.5,36.9 2.5,13.1 26.3,1.2 50,13.1 	"/>
</g>
<g id="Layer_4" class="st0">
	<rect id="XMLID_9_" x="9.8" y="13.8" class="st3" width="22.5" height="22.5"/>
</g>
<g>
	<rect x="10.1" y="21.2" class="st4" width="4.8" height="14.5"/>
	<path class="st4" d="M22.4,35.8v-8.1c0-0.4,0-0.9,0.2-1.2c0.3-0.9,1.1-1.8,2.5-1.8c1.7,0,2.4,1.3,2.4,3.3v7.8h4.8v-8.3
		c0-4.5-2.4-6.5-5.6-6.5c-2.6,0-3.7,1.4-4.3,2.4v0h0c0,0,0,0,0,0v-2.1h-4.8c0.1,1.4,0,14.5,0,14.5H22.4z"/>
	<path class="st4" d="M12.5,19.3L12.5,19.3c1.7,0,2.8-1.1,2.8-2.5c0-1.4-1-2.5-2.7-2.5c-1.7,0-2.7,1.1-2.7,2.5
		C9.8,18.1,10.8,19.3,12.5,19.3z"/>
</g>
</svg>
