<?xml version="1.0" encoding="utf-8"?>
<!-- Generator: Adobe Illustrator 19.0.0, SVG Export Plug-In . SVG Version: 6.00 Build 0)  -->
<svg version="1.1" id="Layer_1" xmlns="http://www.w3.org/2000/svg" xmlns:xlink="http://www.w3.org/1999/xlink" x="0px" y="0px"
	 viewBox="0 0 50 50" style="enable-background:new 0 0 50 50;" xml:space="preserve">
<style type="text/css">
	.st0{display:none;}
	.st1{display:inline;}
	.st2{fill:none;stroke:url(#XMLID_4_);stroke-width:3;stroke-miterlimit:10;}
	.st3{display:inline;fill:#861619;}
	.st4{fill:#FFFFFF;}
</style>
<g id="Layer_2" class="st0">
	<rect id="XMLID_2_" class="st1" width="50" height="50"/>
</g>
<g id="Layer_1_1_">
	
		<linearGradient id="XMLID_4_" gradientUnits="userSpaceOnUse" x1="1" y1="25" x2="51.5" y2="25" gradientTransform="matrix(1 0 0 -1 0 50)">
		<stop  offset="5.102041e-003" style="stop-color:#FFFFFF"/>
		<stop  offset="0.4184" style="stop-color:#FFFFFF;stop-opacity:0"/>
	</linearGradient>
	<polygon id="XMLID_1_" class="st2" points="50,36.9 26.3,48.8 2.5,36.9 2.5,13.1 26.3,1.2 50,13.1 	"/>
</g>
<g id="Layer_4" class="st0">
	<rect id="XMLID_9_" x="9.8" y="13.8" class="st3" width="22.5" height="22.5"/>
</g>
<g>
	<path class="st4" d="M9.8,22.1c0.2,0.2,0.4,0.4,0.7,0.6c0.5,0.4,1,0.7,1.5,1c2.1,1.4,4.1,2.9,6.2,4.3c0.7,0.5,1.4,0.8,2.1,1
		c0.6,0.2,1.3,0.1,1.9-0.1c0.9-0.3,1.6-0.8,2.3-1.3c2.2-1.5,4.3-3,6.5-4.5c0.4-0.3,0.9-0.6,1.3-1.1c0,0,0-0.1,0.1-0.1c0,0,0,0,0,0
		c0,0,0,0.1,0,0.1c0,3.2,0,6.5,0,9.7c0,0.9-0.5,1.6-1.3,2c-0.3,0.1-0.6,0.1-0.8,0.1c-5.7,0-11.5,0-17.2,0c-0.4,0-0.8,0-1.2,0
		c-1,0-1.8-0.9-1.8-1.8c0-0.2,0-0.3,0-0.5c0-3.1,0-6.3,0-9.4C9.8,22.2,9.8,22.2,9.8,22.1z"/>
	<path class="st4" d="M21,16.4c3,0,6.1,0,9.1,0c0.6,0,1.1,0.2,1.5,0.5c0.4,0.4,0.7,0.9,0.7,1.5c0,0.7-0.3,1.4-0.7,1.9
		c-0.4,0.6-1,1.1-1.6,1.5c-1.9,1.3-3.8,2.6-5.7,3.9c-0.6,0.4-1.2,0.9-1.8,1.3c-0.4,0.2-0.8,0.4-1.2,0.5c-0.5,0.1-1-0.1-1.4-0.3
		c-0.5-0.3-1-0.6-1.5-1c-1.4-1-2.8-1.9-4.1-2.9c-0.9-0.6-1.7-1.2-2.6-1.8c-0.7-0.5-1.3-1.2-1.6-2c-0.4-0.9-0.2-2,0.4-2.6
		c0.3-0.3,0.7-0.5,1.1-0.5c0.2,0,0.4,0,0.6,0C15.1,16.4,18.1,16.4,21,16.4z"/>
</g>
</svg>
