<?xml version="1.0" encoding="utf-8"?>
<!-- Generator: Adobe Illustrator 19.0.0, SVG Export Plug-In . SVG Version: 6.00 Build 0)  -->
<svg version="1.1" xmlns="http://www.w3.org/2000/svg" xmlns:xlink="http://www.w3.org/1999/xlink" x="0px" y="0px"
	 viewBox="0 0 50 50" style="enable-background:new 0 0 50 50;" xml:space="preserve">
<style type="text/css">
	.st0{display:none;}
	.st1{display:inline;}
	.st2{fill:none;stroke:url(#XMLID_18_);stroke-width:3;stroke-miterlimit:10;}
	.st3{display:inline;fill:#861619;}
	.st4{fill:#FFFFFF;}
</style>
<g id="Layer_2" class="st0">
	<rect id="XMLID_2_" x="0" y="0" class="st1" width="50" height="50"/>
</g>
<g id="Layer_1">
	<linearGradient id="XMLID_18_" gradientUnits="userSpaceOnUse" x1="1" y1="25" x2="51.5" y2="25">
		<stop  offset="5.102041e-003" style="stop-color:#FFFFFF"/>
		<stop  offset="0.4184" style="stop-color:#FFFFFF;stop-opacity:0"/>
	</linearGradient>
	<polygon id="XMLID_1_" class="st2" points="50,36.9 26.3,48.8 2.5,36.9 2.5,13.1 26.3,1.2 50,13.1 	"/>
</g>
<g id="Layer_4" class="st0">
	<rect id="XMLID_9_" x="9.8" y="13.8" class="st3" width="22.5" height="22.5"/>
</g>
<g id="Layer_3">
	<g id="XMLID_17_">
		<path id="XMLID_19_" class="st4" d="M32.1,22.9C32.1,22.9,32.1,22.9,32.1,22.9c0.1,0.1,0.2,0.2,0.1,0.4c-0.1,0.3-0.2,0.5-0.3,0.8
			c-0.1,0.4-0.4,0.5-0.8,0.6c-0.2,0.1-0.4,0.1-0.6,0.2c0,0-0.1,0-0.1,0c0,0,0,0,0,0c0,0,0,0-0.1,0c-0.2,0-0.3,0.1-0.5,0.1
			c-0.2,0-0.5,0.1-0.7,0.1c-0.1,0-0.2,0-0.2,0.1c0,0,0,0,0,0c0,0-0.1,0-0.1,0c-0.2,0-0.5,0.1-0.7,0.1c-0.2,0-0.4,0.1-0.6,0.1
			c-0.2,0.1-0.5,0.1-0.7,0.2c-0.2,0-0.4,0.1-0.6,0.2C26,25.9,25.9,26,26,26.2c0,0.1,0.1,0.2,0.1,0.3c0,0.1,0,0.1,0.1,0.2
			c-0.4,0-0.8,0-1.2,0c-0.3,0-0.6,0-0.9,0c-0.3,0-0.7,0.1-1,0.3c-0.3,0.2-0.6,0.4-0.8,0.7c-0.1,0.1-0.2,0.2-0.3,0.3c0,0,0,0,0,0
			c0-1,0-2.1,0-3.1c0,0,0,0,0,0c-0.6,0-1.3,0-1.9,0c0,0-0.1,0-0.1,0c-0.2,0.4-0.4,0.7-0.6,1.1c-0.1,0.2-0.2,0.3-0.3,0.5
			c0,0,0-0.1-0.1-0.1c-0.2-0.4-0.5-0.8-0.7-1.3c0-0.1-0.1-0.2-0.2-0.3c0,0-0.1,0-0.1,0c-0.6,0-1.1,0-1.7,0c-0.1,0-0.1,0-0.1,0.1
			c0,0.5,0,1,0,1.5c0,0-0.1,0-0.1-0.1c-0.1-0.2-0.3-0.3-0.4-0.5c-0.4-0.4-0.9-0.7-1.4-0.9c-0.3-0.1-0.6-0.2-1-0.3
			c-0.1,0-0.2,0-0.3,0c0,0,0,0,0,0c-0.1,0-0.2,0-0.3,0c0,0,0,0-0.1,0c0,0,0,0,0,0c-0.2,0-0.4,0-0.6,0c-0.1,0-0.2,0-0.3,0
			c0,0,0,0-0.1,0c-0.1,0-0.2,0-0.3,0c0,0,0,0,0,0c-0.1,0-0.1,0-0.2,0c-0.1,0-0.3,0-0.4,0.1c-0.2,0-0.4,0.1-0.6,0.1
			c-0.2,0-0.4,0.1-0.6,0.1c0,0,0,0,0,0c0,0,0,0,0,0c0.5-0.4,1-0.8,1.5-1.2c0.6-0.4,1.3-0.8,1.9-1.2c0.6-0.3,1.3-0.6,2-0.9
			c0.4-0.1,0.9-0.2,1.3-0.4c0.1,0,0.2,0,0.3-0.1c0,0,0,0,0,0c0.1,0,0.1,0,0.2,0c0,0,0,0,0,0c0,0,0,0,0.1,0c0.2,0,0.5-0.1,0.7-0.1
			c0.3,0,0.5,0,0.8,0c0.1,0,0.1,0,0.1,0.1c0,0.5,0.2,1,0.5,1.5c0.3,0.5,0.6,0.8,1.1,1.2c0.3,0.2,0.7,0.5,1.1,0.6
			c0.2,0.1,0.4,0.1,0.6,0.2c0,0,0,0,0.1,0c-0.2-0.1-0.5-0.2-0.7-0.3c-1-0.5-1.7-1.2-2.1-2.2c0-0.1-0.1-0.2-0.1-0.2c0,0,0,0,0,0
			c0-0.1,0-0.1,0-0.2c0-0.1-0.1-0.2-0.1-0.3c0-0.1,0-0.2,0-0.4c0,0,0-0.1,0-0.1c0-0.1,0.1-0.2,0.2-0.3c0.2-0.1,0.4-0.1,0.6-0.1
			c0.1,0,0.2,0,0.3,0c0,0,0,0,0.1,0c0.1,0,0.1,0,0.2,0c0,0,0,0,0,0c0.1,0,0.2,0,0.3,0.1c0.3,0.1,0.6,0.2,1,0.3
			c0.2,0,0.3,0.1,0.5,0.2c0,0,0,0,0,0c0,0,0,0,0,0c0,0,0.1,0,0.1,0c0,0,0,0,0,0c0,0-0.1,0-0.1,0c0,0-0.1-0.1-0.1-0.1
			c-0.1,0-0.1-0.1-0.2-0.1c-0.2-0.1-0.4-0.2-0.6-0.3c0,0,0,0-0.1-0.1c0.2,0,0.3-0.1,0.5-0.1c0.4,0,0.7,0,1.1,0c0.2,0,0.4,0,0.6,0
			c0.2,0,0.3,0,0.5,0c0,0,0,0,0.1,0c0.1,0,0.2,0,0.3,0c0,0,0,0,0.1,0c0.1,0,0.2,0,0.2,0c0,0,0,0,0,0c0.1,0,0.2,0,0.3,0.1
			c0.2,0,0.5,0.1,0.7,0.1c0.1,0,0.2,0,0.3,0c0,0,0,0,0,0c0,0,0,0,0,0c0,0,0,0,0,0c0,0,0,0,0,0c0,0,0,0,0.1,0c0,0,0.1,0,0.1,0
			c0,0,0.1,0,0.1,0c0,0,0,0,0,0c0,0,0,0,0,0c0,0,0,0,0,0c0,0,0,0,0,0c0,0,0.1,0,0.1,0c0,0,0,0,0,0c0,0,0,0,0.1,0c0,0,0,0,0,0
			c0,0,0,0,0,0c0,0,0,0,0,0c0,0,0,0,0.1,0c0,0,0,0,0.1,0c0,0,0,0,0,0c0,0,0,0,0,0c0.1,0,0.1,0,0.2,0.1c0.2,0.1,0.4,0.1,0.6,0.1
			c0.2,0.1,0.4,0.1,0.6,0.2c0.3,0.1,0.6,0.2,0.9,0.3c0.3,0.1,0.5,0.2,0.8,0.2c0.3,0.1,0.5,0.2,0.8,0.3c0.3,0.1,0.5,0.2,0.8,0.3
			c0,0,0.1,0,0,0.1c0,0.2-0.1,0.4-0.1,0.5c0,0.1,0,0.1,0,0.2c0,0,0,0,0,0c0,0,0,0,0,0c0.1-0.2,0.1-0.3,0.2-0.5c0-0.1,0-0.1,0.1-0.2
			c0,0,0,0,0.1,0c0,0,0.1,0,0.1,0c0,0,0,0,0,0c0,0,0,0,0.1,0c0,0,0,0,0,0c0,0,0,0,0,0C32,22.8,32,22.9,32.1,22.9
			C32.1,22.9,32.1,22.9,32.1,22.9C32.1,22.9,32.1,22.9,32.1,22.9z M27.6,24.6c-0.1,0-0.2,0-0.3,0c0,0,0,0,0,0c-0.1,0-0.1,0-0.2,0
			c0,0,0,0,0,0c-0.1,0-0.1,0-0.2,0c-0.2,0.1-0.4,0.1-0.7,0.2c-0.3,0.1-0.6,0.3-0.9,0.5c-0.1,0.1-0.2,0.2-0.1,0.3c0,0.1,0,0.1,0,0.2
			c0.1,0.2,0.1,0.3,0.2,0.5c0,0,0,0,0,0c0-0.1,0-0.2,0-0.3c0,0,0,0,0-0.1c0-0.1,0-0.2,0-0.3c0,0,0,0,0,0c0,0,0,0,0,0
			c0-0.1,0.1-0.2,0.2-0.3c0.2-0.1,0.3-0.2,0.5-0.2C26.6,24.9,27.1,24.8,27.6,24.6c0.1,0,0.2,0,0.2,0c0,0,0,0,0,0
			C27.7,24.6,27.6,24.5,27.6,24.6z M19.7,21.5C19.7,21.5,19.7,21.5,19.7,21.5c0,0.1,0,0.2,0,0.2c0,0,0,0.1,0,0.1c0,0,0,0,0,0
			c0,0.1,0,0.1,0.1,0.2c0,0,0,0.1,0,0.1c0.1,0.1,0.1,0.2,0.2,0.3c0.4,0.6,1,1.1,1.6,1.5c0,0,0.1,0,0.1,0c0,0,0,0,0,0
			c-0.2-0.2-0.3-0.4-0.5-0.6c0,0,0,0,0,0c0.1,0,0.2,0.1,0.3,0.1c0,0,0,0,0,0c-0.1-0.2-0.3-0.3-0.4-0.5c0,0,0-0.1-0.1-0.1
			c0,0,0,0,0-0.1c0.2,0.1,0.4,0.2,0.6,0.3c0,0,0,0,0,0c-0.1-0.2-0.2-0.3-0.3-0.5c0,0,0,0,0,0c0.2,0.1,0.4,0.2,0.5,0.2c0,0,0,0,0,0
			c0,0-0.1-0.1-0.1-0.1c-0.6-0.6-1.2-0.9-2-1.1C19.8,21.4,19.7,21.4,19.7,21.5C19.7,21.5,19.7,21.5,19.7,21.5z M24.8,22.1
			C24.8,22.1,24.8,22.1,24.8,22.1c0.1,0,0.2,0.1,0.3,0.1c0.1,0,0.3,0.1,0.3,0.2c0.1,0.1,0.2,0.2,0.3,0.2c0.3,0.2,0.6,0.2,0.9,0.2
			c0.3,0,0.6,0,0.9,0c0.1,0,0.3-0.1,0.4-0.2c-0.1,0-0.1,0-0.1,0c-0.2,0-0.4-0.1-0.6-0.1c-0.3-0.1-0.5-0.1-0.8-0.2
			c-0.2,0-0.5-0.1-0.7-0.1C25.4,22.1,25.1,22.1,24.8,22.1C24.8,22,24.8,22.1,24.8,22.1z M27.9,24.5C27.8,24.5,27.8,24.5,27.9,24.5
			C27.8,24.5,27.8,24.5,27.9,24.5C27.8,24.5,27.8,24.5,27.9,24.5C27.8,24.5,27.9,24.5,27.9,24.5z"/>
		<path id="XMLID_4_" class="st4" d="M18.3,26.9c0.3,0.4,0.6,0.9,0.9,1.4c0.3-0.5,0.6-0.9,0.9-1.4c0,0,0,0,0,0c0,0,0,0.1,0,0.1
			c0,0.8,0,1.5,0,2.3c0,0.1,0,0.1-0.1,0.1c-0.5,0-1.1,0-1.6,0c0,0,0,0-0.1,0C18.3,28.6,18.3,27.7,18.3,26.9
			C18.3,26.9,18.3,26.9,18.3,26.9z"/>
	</g>
</g>
</svg>
