<?xml version="1.0" encoding="utf-8"?>
<!-- Generator: Adobe Illustrator 19.0.0, SVG Export Plug-In . SVG Version: 6.00 Build 0)  -->
<svg version="1.1" xmlns="http://www.w3.org/2000/svg" xmlns:xlink="http://www.w3.org/1999/xlink" x="0px" y="0px"
	 viewBox="0 0 50 50" style="enable-background:new 0 0 50 50;" xml:space="preserve">
<style type="text/css">
	.st0{display:none;}
	.st1{display:inline;}
	.st2{fill:none;stroke:url(#XMLID_15_);stroke-width:3;stroke-miterlimit:10;}
	.st3{display:inline;fill:#861619;}
	.st4{fill:#FFFFFF;}
</style>
<g id="Layer_2" class="st0">
	<rect id="XMLID_2_" x="0" y="0" class="st1" width="50" height="50"/>
</g>
<g id="Layer_1">
	<linearGradient id="XMLID_15_" gradientUnits="userSpaceOnUse" x1="1" y1="25" x2="51.5" y2="25">
		<stop  offset="5.102041e-003" style="stop-color:#FFFFFF"/>
		<stop  offset="0.4184" style="stop-color:#FFFFFF;stop-opacity:0"/>
	</linearGradient>
	<polygon id="XMLID_1_" class="st2" points="50,36.9 26.3,48.8 2.5,36.9 2.5,13.1 26.3,1.2 50,13.1 	"/>
</g>
<g id="Layer_4" class="st0">
	<rect id="XMLID_9_" x="9.8" y="13.8" class="st3" width="22.5" height="22.5"/>
</g>
<g id="Layer_3">
	<g id="XMLID_4_">
		<path id="XMLID_6_" class="st4" d="M21,36.3c-0.3,0-0.6-0.1-0.9-0.2l-2.7-1.6c-0.4-0.2-0.2-0.3-0.1-0.4c0.6-0.2,0.7-0.2,1.2-0.6
			c0.1,0,0.1,0,0.2,0l2.1,1.3c0.1,0,0.2,0,0.2,0l8.2-4.8c0.1,0,0.1-0.1,0.1-0.2v-9.5c0-0.1,0-0.2-0.1-0.2l-8.2-4.8
			c-0.1,0-0.2,0-0.2,0L12.6,20c-0.1,0-0.1,0.1-0.1,0.2v9.5c0,0.1,0,0.2,0.1,0.2l2.3,1.3c1.2,0.6,2-0.1,2-0.8v-9.4
			c0-0.1,0.1-0.2,0.2-0.2h1.1c0.1,0,0.2,0.1,0.2,0.2v9.4c0,1.6-0.9,2.6-2.4,2.6c-0.5,0-0.8,0-1.9-0.5l-2.2-1.2
			C11.4,31,11,30.4,11,29.8v-9.5c0-0.6,0.3-1.2,0.9-1.5l8.2-4.8c0.5-0.3,1.2-0.3,1.7,0l8.2,4.8c0.5,0.3,0.9,0.9,0.9,1.5v9.5
			c0,0.6-0.3,1.2-0.9,1.5l-8.2,4.8C21.6,36.2,21.3,36.3,21,36.3L21,36.3z M23.6,29.7c-3.6,0-4.4-1.7-4.4-3.1c0-0.1,0.1-0.2,0.2-0.2
			h1.1c0.1,0,0.2,0.1,0.2,0.2c0.2,1.1,0.6,1.6,2.8,1.6c1.7,0,2.5-0.4,2.5-1.3c0-0.5-0.2-0.9-2.9-1.2c-2.3-0.2-3.7-0.7-3.7-2.5
			c0-1.7,1.4-2.7,3.8-2.7c2.6,0,3.9,0.9,4.1,2.9c0,0.1,0,0.1-0.1,0.2c0,0-0.1,0.1-0.2,0.1h-1.1c-0.1,0-0.2-0.1-0.2-0.2
			c-0.2-1.1-0.9-1.5-2.6-1.5c-1.9,0-2.1,0.7-2.1,1.2c0,0.6,0.3,0.8,2.8,1.1c2.5,0.3,3.7,0.8,3.7,2.6C27.7,28.7,26.2,29.7,23.6,29.7
			L23.6,29.7z"/>
	</g>
</g>
</svg>
