<?xml version="1.0" encoding="utf-8"?>
<!-- Generator: Adobe Illustrator 19.0.0, SVG Export Plug-In . SVG Version: 6.00 Build 0)  -->
<svg version="1.1" xmlns="http://www.w3.org/2000/svg" xmlns:xlink="http://www.w3.org/1999/xlink" x="0px" y="0px"
	 viewBox="0 0 50 50" style="enable-background:new 0 0 50 50;" xml:space="preserve">
<style type="text/css">
	.st0{display:none;}
	.st1{display:inline;}
	.st2{fill:none;stroke:url(#XMLID_14_);stroke-width:3;stroke-miterlimit:10;}
	.st3{display:inline;fill:#861619;}
	.st4{fill:#FFFFFF;}
</style>
<g id="Layer_2" class="st0">
	<rect id="XMLID_2_" x="0" y="0" class="st1" width="50" height="50"/>
</g>
<g id="Layer_1">
	<linearGradient id="XMLID_14_" gradientUnits="userSpaceOnUse" x1="1" y1="25" x2="51.5" y2="25">
		<stop  offset="5.102041e-003" style="stop-color:#FFFFFF"/>
		<stop  offset="0.4184" style="stop-color:#FFFFFF;stop-opacity:0"/>
	</linearGradient>
	<polygon id="XMLID_1_" class="st2" points="50,36.9 26.3,48.8 2.5,36.9 2.5,13.1 26.3,1.2 50,13.1 	"/>
</g>
<g id="Layer_4" class="st0">
	<rect id="XMLID_9_" x="9.8" y="13.8" class="st3" width="22.5" height="22.5"/>
</g>
<g id="Layer_3">
	<g id="Outlined_Mnemonics_Logos">
		<g id="Ps">
			<path id="XMLID_15_" class="st4" d="M9.8,32.9v-16c0-0.1,0-0.2,0.2-0.2c0.3,0,0.5,0,0.9,0c0.4,0,0.8,0,1.2,0c0.4,0,0.9,0,1.4,0
				c0.5,0,1,0,1.4,0c1.3,0,2.3,0.2,3.2,0.5c0.8,0.3,1.5,0.7,2.1,1.3c0.5,0.5,0.9,1.1,1.1,1.8c0.2,0.7,0.4,1.3,0.4,2
				c0,1.3-0.3,2.4-0.9,3.3c-0.6,0.9-1.5,1.5-2.5,1.9c-1.1,0.4-2.2,0.5-3.5,0.5c-0.4,0-0.6,0-0.8,0c-0.2,0-0.4,0-0.7,0v5
				c0,0.1-0.1,0.2-0.2,0.2c0,0,0,0-0.1,0h-3C9.8,33.1,9.8,33,9.8,32.9z M13.1,19.7v5.2c0.2,0,0.4,0,0.6,0h0.8c0.6,0,1.2-0.1,1.8-0.3
				c0.5-0.1,0.9-0.4,1.3-0.8c0.3-0.4,0.5-0.9,0.5-1.6c0-0.5-0.1-1-0.4-1.4c-0.3-0.4-0.6-0.7-1.1-0.9c-0.6-0.2-1.2-0.3-1.8-0.3
				c-0.4,0-0.8,0-1.1,0C13.5,19.7,13.3,19.7,13.1,19.7L13.1,19.7z"/>
			<path id="XMLID_4_" class="st4" d="M31.3,24c-0.5-0.2-1-0.4-1.5-0.5c-0.6-0.1-1.2-0.2-1.7-0.2c-0.3,0-0.6,0-0.9,0.1
				c-0.2,0-0.4,0.2-0.5,0.3c-0.1,0.1-0.1,0.3-0.1,0.4c0,0.1,0.1,0.3,0.2,0.4c0.1,0.2,0.3,0.3,0.5,0.4c0.4,0.2,0.7,0.4,1.1,0.5
				c0.8,0.3,1.7,0.7,2.4,1.1c0.5,0.3,0.9,0.8,1.2,1.3c0.2,0.5,0.4,1,0.4,1.6c0,0.7-0.2,1.5-0.6,2.1c-0.4,0.6-1,1.1-1.7,1.4
				c-0.8,0.3-1.7,0.5-2.8,0.5c-0.7,0-1.4-0.1-2.1-0.2c-0.5-0.1-1.1-0.3-1.6-0.5c-0.1-0.1-0.2-0.2-0.2-0.3v-2.7c0,0,0-0.1,0.1-0.1
				c0,0,0.1,0,0.1,0c0.6,0.4,1.2,0.6,1.9,0.8c0.6,0.2,1.2,0.2,1.8,0.2c0.6,0,1-0.1,1.3-0.2c0.2-0.1,0.4-0.4,0.4-0.7
				c0-0.2-0.1-0.4-0.4-0.6c-0.2-0.2-0.8-0.4-1.5-0.7c-0.8-0.3-1.5-0.7-2.2-1.1c-0.5-0.3-0.9-0.8-1.2-1.3c-0.2-0.5-0.4-1-0.4-1.6
				c0-0.7,0.2-1.3,0.5-1.9c0.4-0.6,1-1.1,1.6-1.4c0.7-0.4,1.7-0.5,2.8-0.5c0.6,0,1.3,0,1.9,0.1c0.5,0.1,0.9,0.2,1.3,0.4
				c0.1,0,0.1,0.1,0.2,0.1c0,0.1,0,0.1,0,0.2v2.5c0,0.1,0,0.1-0.1,0.2C31.4,24,31.3,24,31.3,24z"/>
		</g>
	</g>
</g>
</svg>
