<?xml version="1.0" encoding="utf-8"?>
<!-- Generator: Adobe Illustrator 19.0.0, SVG Export Plug-In . SVG Version: 6.00 Build 0)  -->
<svg version="1.1" xmlns="http://www.w3.org/2000/svg" xmlns:xlink="http://www.w3.org/1999/xlink" x="0px" y="0px"
	 viewBox="0 0 50 50" style="enable-background:new 0 0 50 50;" xml:space="preserve">
<style type="text/css">
	.st0{display:none;}
	.st1{display:inline;}
	.st2{fill:none;stroke:url(#XMLID_33_);stroke-width:3;stroke-miterlimit:10;}
	.st3{display:inline;fill:#FFFFFF;}
	.st4{fill:#FFFFFF;}
</style>
<g id="Layer_2" class="st0">
	<rect id="XMLID_2_" x="0" y="0" class="st1" width="50" height="50"/>
</g>
<g id="Layer_1">
	<linearGradient id="XMLID_33_" gradientUnits="userSpaceOnUse" x1="1" y1="25" x2="51.5" y2="25">
		<stop  offset="5.102041e-003" style="stop-color:#FFFFFF"/>
		<stop  offset="0.4184" style="stop-color:#FFFFFF;stop-opacity:0"/>
	</linearGradient>
	<polygon id="XMLID_1_" class="st2" points="50,36.9 26.3,48.8 2.5,36.9 2.5,13.1 26.3,1.2 50,13.1 	"/>
</g>
<g id="Layer_4" class="st0">
	<rect id="XMLID_9_" x="9.8" y="13.8" class="st3" width="22.5" height="22.5"/>
</g>
<g id="Layer_3">
	<path id="XMLID_12_" class="st4" d="M-44.7-17.9l1.8,20.2l8.1,2.3l8.1-2.3l1.8-20.2H-44.7z M-38.8-10.6c0.6-1.8,2.2-3,3.8-3
		c1.8,0,3.7,1.6,3.9,4.6c-0.3-0.1-0.7-0.2-0.9-0.3c-0.1-1-0.9-3.5-2.9-3.4c-0.7,0-1.8,0.4-2.3,1c-0.7,0.8-1,1.8-1.1,2.9
		c-0.1,1.5,0.2,2.9,1,4.1c0,0,0.1,0,0.1,0h0c0.6,0,1,0.4,1,1c0,0.6-0.4,1.1-1,1.1h0c-0.6,0-1-0.4-1-1c0-0.2,0-0.4,0.1-0.5
		C-39.1-5.9-39.7-8.2-38.8-10.6z M-37.2,0.1c-0.4,0.1-0.7,0.1-1.1,0.1c-1.4,0-2.6-0.6-3.2-1.5c-0.8-1.3-1.1-3.9,1.6-5.9
		c0.1,0.3,0.2,0.7,0.2,1c-0.4,0.3-0.9,0.8-1.3,1.5c-0.5,1-0.4,2,0.1,2.9c0.4,0.6,1.1,1,1.9,1.1c1,0.1,2.1-0.1,3-0.6
		c1.5-0.8,2.4-1.7,3.1-2.9c-0.2-0.2-0.3-0.4-0.3-0.7c0-0.6,0.4-1.1,1-1.1h0c0.6,0,1,0.4,1,1c0,0.6-0.4,1-0.9,1.1
		C-33-1.8-34.8-0.3-37.2,0.1z M-27.8-1.6c-0.5,1-1.8,2-3.6,2c-0.8,0-1.6-0.2-2.4-0.6c0.3-0.2,0.6-0.5,0.8-0.7
		c0.4,0.2,1.1,0.4,1.8,0.4c1.2,0,2-0.5,2.6-1.5c0.3-0.7,0.4-1.4,0-2.2c-0.4-1-1-1.8-2-2.4c-1.2-0.8-2.6-1.2-4-1.2h-0.3
		c-0.1,0.4-0.5,0.6-0.9,0.6h0c-0.6,0-1-0.4-1-1c0-0.6,0.4-1.1,1-1.1h0c0.4,0,0.7,0.2,0.9,0.6h0.3c2.4,0,4.5,0.9,5.9,2.6
		C-27.3-4.6-27.3-2.7-27.8-1.6z"/>
	<g id="XMLID_20_">
		<path id="XMLID_18_" class="st4" d="M93.2,11.2c0.1,0,0.2,0,0.2,0c1-0.2,1.9-0.4,2.9-0.7c1.8-0.4,3.6-0.8,5.4-1.2
			c0.1,0,0.2-0.1,0.2-0.3c0-0.5,0.1-1.1,0.1-1.6c0.1-1.6,0.3-3.2,0.4-4.8c0.1-1.5,0.3-2.9,0.4-4.4c0-0.5,0.1-0.9,0.1-1.4
			c-1.9,0-3.8,0-5.7,0c0-1.4,0-2.7,0-4.1c2,0,4,0,6,0c0.1-1.4,0.2-2.7,0.4-4c-3.5,0-7.1,0-10.6,0c0,4.1,0,8.1,0,12.2
			c1.8,0,3.6,0,5.5,0c0,0,0,0.1,0,0.1c-0.2,1.6-0.3,3.3-0.5,4.9c0,0.1-0.1,0.2-0.2,0.2c-1.5,0.3-3.1,0.6-4.6,0.8
			c-0.2,0-0.2,0.1-0.2,0.3c0,1.2,0,2.5,0,3.7C93.2,11.1,93.2,11.1,93.2,11.2z"/>
		<path id="XMLID_15_" class="st4" d="M84.4,2.9c-1.4,0-2.7,0-4,0c0,0.2,0,0.3,0,0.4c0,0.4,0.1,0.9,0.1,1.3c0.1,1.4,0.3,2.9,0.4,4.3
			c0,0.2,0.1,0.3,0.3,0.3c2.8,0.6,5.6,1.1,8.4,1.7c0.4,0.1,0.9,0.2,1.3,0.3c0-7.5,0-15,0-22.5c-3,0-6,0-9,0c0.1,1.3,0.2,2.7,0.4,4
			c0.1,0,0.2,0,0.3,0c1.3,0,2.7,0,4,0c0.3,0,0.3,0,0.3,0.3c0,4.4,0,8.8,0,13.1c0,0.1,0,0.2,0,0.2c0,0-0.1,0-0.1,0
			c-0.7-0.1-1.4-0.2-2-0.3c-0.1,0-0.1-0.1-0.1-0.2c0-0.4-0.1-0.7-0.1-1.1C84.5,4.2,84.5,3.6,84.4,2.9z"/>
	</g>
	<g id="XMLID_31_">
		<path id="XMLID_35_" class="st4" d="M32.3,25c0-1.5-1.9-2.9-4.7-3.8c0.7-2.9,0.4-5.2-0.9-6c-0.3-0.2-0.6-0.3-1-0.3v1
			c0.2,0,0.4,0,0.5,0.1c0.6,0.4,0.9,1.7,0.7,3.5c-0.1,0.4-0.1,0.9-0.2,1.3c-0.9-0.2-1.9-0.4-2.9-0.5c-0.6-0.8-1.3-1.6-1.9-2.3
			c1.5-1.4,2.9-2.2,3.9-2.2v-1l0,0c-1.3,0-2.9,0.9-4.6,2.5c-1.7-1.6-3.3-2.4-4.6-2.4v1c0.9,0,2.4,0.8,3.9,2.1
			c-0.6,0.7-1.3,1.4-1.9,2.3c-1,0.1-2,0.3-2.9,0.5c-0.1-0.5-0.2-0.9-0.2-1.3c-0.2-1.8,0.1-3.1,0.7-3.5c0.1-0.1,0.3-0.1,0.5-0.1v-1
			l0,0c-0.4,0-0.7,0.1-1,0.3c-1.3,0.7-1.6,3.1-0.9,6c-2.9,0.9-4.7,2.3-4.7,3.8c0,1.5,1.9,2.9,4.7,3.8c-0.7,2.9-0.4,5.2,0.9,6
			c0.3,0.2,0.6,0.3,1,0.3c1.3,0,2.9-0.9,4.6-2.5c1.7,1.6,3.3,2.4,4.6,2.4c0.4,0,0.7-0.1,1-0.3c1.3-0.7,1.6-3.1,0.9-6
			C30.4,27.9,32.3,26.5,32.3,25z M26.3,21.9c-0.2,0.6-0.4,1.2-0.6,1.8c-0.2-0.4-0.4-0.7-0.6-1.1c-0.2-0.4-0.4-0.7-0.7-1.1
			C25.1,21.7,25.7,21.8,26.3,21.9z M24.2,26.8c-0.4,0.6-0.7,1.2-1.1,1.8c-0.7,0.1-1.4,0.1-2.1,0.1c-0.7,0-1.4,0-2.1-0.1
			c-0.4-0.5-0.8-1.1-1.1-1.7c-0.3-0.6-0.7-1.2-1-1.8c0.3-0.6,0.6-1.2,0.9-1.8c0.4-0.6,0.7-1.2,1.1-1.8c0.7-0.1,1.4-0.1,2.1-0.1
			c0.7,0,1.4,0,2.1,0.1c0.4,0.5,0.8,1.1,1.1,1.7c0.3,0.6,0.7,1.2,1,1.8C24.9,25.6,24.5,26.2,24.2,26.8z M25.7,26.2
			c0.2,0.6,0.5,1.2,0.6,1.8c-0.6,0.1-1.2,0.3-1.9,0.4c0.2-0.4,0.4-0.7,0.7-1.1C25.3,27,25.5,26.6,25.7,26.2z M21,31.1
			c-0.4-0.4-0.9-0.9-1.3-1.5c0.4,0,0.8,0,1.3,0c0.4,0,0.9,0,1.3,0C21.9,30.2,21.5,30.7,21,31.1z M17.6,28.4
			c-0.7-0.1-1.3-0.2-1.9-0.4c0.2-0.6,0.4-1.2,0.6-1.8c0.2,0.4,0.4,0.7,0.6,1.1S17.4,28.1,17.6,28.4z M21,18.9
			c0.4,0.4,0.9,0.9,1.3,1.5c-0.4,0-0.8,0-1.3,0c-0.4,0-0.9,0-1.3,0C20.2,19.8,20.6,19.3,21,18.9z M17.6,21.6
			c-0.2,0.4-0.4,0.7-0.7,1.1c-0.2,0.4-0.4,0.7-0.6,1.1c-0.2-0.6-0.5-1.2-0.6-1.8C16.3,21.8,17,21.7,17.6,21.6z M13.5,27.3
			c-1.6-0.7-2.7-1.6-2.7-2.3s1.1-1.6,2.7-2.3c0.4-0.2,0.8-0.3,1.3-0.5c0.3,0.9,0.6,1.8,1,2.8c-0.4,1-0.8,1.9-1,2.8
			C14.3,27.6,13.9,27.5,13.5,27.3z M15.9,33.9c-0.6-0.4-0.9-1.7-0.7-3.5c0.1-0.4,0.1-0.9,0.2-1.3c0.9,0.2,1.9,0.4,2.9,0.5
			c0.6,0.8,1.3,1.6,1.9,2.3c-1.5,1.4-2.9,2.2-3.9,2.2C16.2,34,16.1,34,15.9,33.9z M26.8,30.4c0.2,1.8-0.1,3.1-0.7,3.5
			C26,33.9,25.8,34,25.6,34c-0.9,0-2.4-0.8-3.9-2.1c0.6-0.7,1.3-1.4,1.9-2.3c1-0.1,2-0.3,2.9-0.5C26.7,29.5,26.8,30,26.8,30.4z
			 M28.6,27.3c-0.4,0.2-0.8,0.3-1.3,0.5c-0.3-0.9-0.6-1.8-1-2.8c0.4-1,0.8-1.9,1-2.8c0.5,0.1,0.9,0.3,1.3,0.5
			c1.6,0.7,2.7,1.6,2.7,2.3C31.2,25.7,30.2,26.6,28.6,27.3z"/>
		<path id="XMLID_16_" class="st4" d="M16.4,15L16.4,15L16.4,15z"/>
		<circle id="XMLID_14_" class="st4" cx="21" cy="25" r="2.1"/>
		<path id="XMLID_13_" class="st4" d="M25.6,15L25.6,15L25.6,15z"/>
	</g>
</g>
</svg>
