<?xml version="1.0" encoding="utf-8"?>
<!-- Generator: Adobe Illustrator 19.0.0, SVG Export Plug-In . SVG Version: 6.00 Build 0)  -->
<svg version="1.1" xmlns="http://www.w3.org/2000/svg" xmlns:xlink="http://www.w3.org/1999/xlink" x="0px" y="0px"
	 viewBox="0 0 50 50" style="enable-background:new 0 0 50 50;" xml:space="preserve">
<style type="text/css">
	.st0{display:none;}
	.st1{display:inline;}
	.st2{fill:none;stroke:url(#XMLID_14_);stroke-width:3;stroke-miterlimit:10;}
	.st3{display:inline;fill:#861619;}
	.st4{fill:#FFFFFF;}
</style>
<g id="Layer_2" class="st0">
	<rect id="XMLID_2_" x="0" y="0" class="st1" width="50" height="50"/>
</g>
<g id="Layer_1">
	<linearGradient id="XMLID_14_" gradientUnits="userSpaceOnUse" x1="1" y1="25" x2="51.5" y2="25">
		<stop  offset="5.102041e-003" style="stop-color:#FFFFFF"/>
		<stop  offset="0.4184" style="stop-color:#FFFFFF;stop-opacity:0"/>
	</linearGradient>
	<polygon id="XMLID_1_" class="st2" points="50,36.9 26.3,48.8 2.5,36.9 2.5,13.1 26.3,1.2 50,13.1 	"/>
</g>
<g id="Layer_4" class="st0">
	<rect id="XMLID_9_" x="9.8" y="13.8" class="st3" width="22.5" height="22.5"/>
</g>
<g id="Layer_3">
	<g id="XMLID_12_">
		<path id="XMLID_13_" class="st4" d="M25.4,29.3c0.8-0.1,1.5-0.8,1.4-1.7c0-0.9-0.7-1.5-1.6-1.5h-0.1c-0.9,0-1.6,0.8-1.5,1.7
			c0,0.4,0.2,0.8,0.5,1.1c-1,1.9-2.5,3.3-4.7,4.5c-1.5,0.8-3.1,1.1-4.7,0.9c-1.3-0.2-2.3-0.7-2.9-1.7c-0.9-1.4-1-2.9-0.2-4.4
			c0.5-1.1,1.4-1.9,1.9-2.3c-0.1-0.4-0.3-1-0.4-1.5c-4.2,3-3.7,7.1-2.5,9c0.9,1.4,2.9,2.3,5,2.3c0.6,0,1.1-0.1,1.7-0.2
			C21,34.7,23.8,32.5,25.4,29.3z M30.4,25.7c-2.2-2.5-5.4-4-9-4h-0.5c-0.3-0.5-0.8-0.9-1.4-0.9h-0.1c-0.9,0-1.6,0.8-1.5,1.7
			c0,0.9,0.7,1.5,1.6,1.5h0.1c0.6,0,1.2-0.4,1.4-1h0.5c2.2,0,4.2,0.6,6.1,1.9c1.4,0.9,2.5,2.2,3,3.7c0.5,1.2,0.5,2.4-0.1,3.4
			c-0.8,1.5-2.1,2.3-3.9,2.3c-1.1,0-2.2-0.3-2.8-0.6c-0.3,0.3-0.9,0.7-1.3,1c1.2,0.6,2.5,0.9,3.7,0.9c2.7,0,4.8-1.5,5.6-3
			C32.6,31,32.5,28.2,30.4,25.7z M15.9,29.8c0,0.9,0.7,1.5,1.6,1.5h0.1c0.9,0,1.6-0.8,1.5-1.7c0-0.9-0.7-1.5-1.6-1.5h-0.1
			c-0.1,0-0.1,0-0.2,0c-1.2-1.9-1.7-4.1-1.5-6.4c0.1-1.7,0.7-3.2,1.7-4.4c0.8-1.1,2.4-1.6,3.5-1.6c3-0.1,4.3,3.7,4.4,5.2
			c0.4,0.1,1,0.3,1.4,0.4c-0.3-4.6-3.2-7-6-7c-2.6,0-5,1.9-5.9,4.6c-1.3,3.7-0.5,7.2,1.1,10C15.9,29.1,15.8,29.4,15.9,29.8z"/>
	</g>
</g>
</svg>
