<?xml version="1.0" encoding="utf-8"?>
<!-- Generator: Adobe Illustrator 19.0.0, SVG Export Plug-In . SVG Version: 6.00 Build 0)  -->
<svg version="1.1" id="Layer_1" xmlns="http://www.w3.org/2000/svg" xmlns:xlink="http://www.w3.org/1999/xlink" x="0px" y="0px"
	 viewBox="0 0 50 50" style="enable-background:new 0 0 50 50;" xml:space="preserve">
<style type="text/css">
	.st0{display:none;}
	.st1{display:inline;}
	.st2{fill:none;stroke:url(#XMLID_4_);stroke-width:3;stroke-miterlimit:10;}
	.st3{display:inline;fill:#861619;}
	.st4{fill:#FFFFFF;}
</style>
<g id="Layer_2" class="st0">
	<rect id="XMLID_2_" class="st1" width="50" height="50"/>
</g>
<g id="Layer_1_1_">
	
		<linearGradient id="XMLID_4_" gradientUnits="userSpaceOnUse" x1="1" y1="25" x2="51.5" y2="25" gradientTransform="matrix(1 0 0 -1 0 50)">
		<stop  offset="5.102041e-003" style="stop-color:#FFFFFF"/>
		<stop  offset="0.4184" style="stop-color:#FFFFFF;stop-opacity:0"/>
	</linearGradient>
	<polygon id="XMLID_1_" class="st2" points="50,36.9 26.3,48.8 2.5,36.9 2.5,13.1 26.3,1.2 50,13.1 	"/>
</g>
<g id="Layer_4" class="st0">
	<rect id="XMLID_9_" x="9.8" y="13.8" class="st3" width="22.5" height="22.5"/>
</g>
<g>
	<path class="st4" d="M16.5,30.2c-2.2-0.3-3.9-1.6-4.2-3.3c0.6,0,1.2,0,1.8,0c0,0,0-0.1,0-0.1c-1-0.3-1.9-0.8-2.5-1.7
		c-0.6-0.8-1-1.8-1-2.8c0.7,0.2,1.3,0.4,1.9,0.5c-1.9-1.8-2.4-3.8-1.3-6.3c2.6,3,5.7,4.6,9.6,4.9c0-0.7-0.1-1.3,0-1.9
		c0.3-1.7,1.3-3,3-3.5c1.7-0.6,3.3-0.3,4.6,0.9c0.3,0.2,0.5,0.3,0.8,0.2c0.8-0.3,1.6-0.6,2.4-0.9c-0.3,1-1,1.7-1.8,2.5
		c0.8-0.2,1.5-0.4,2.4-0.6c-0.5,0.8-1.1,1.4-1.8,2c-0.3,0.2-0.4,0.5-0.4,0.9c0,6-4,12.1-11,13.2c-3,0.5-5.9,0-8.7-1.5
		c-0.1-0.1-0.3-0.2-0.4-0.2c0,0-0.1-0.1-0.2-0.2C12.3,32.3,14.5,31.8,16.5,30.2z"/>
</g>
</svg>
