<?xml version="1.0" encoding="utf-8"?>
<!-- Generator: Adobe Illustrator 19.0.0, SVG Export Plug-In . SVG Version: 6.00 Build 0)  -->
<svg version="1.1" xmlns="http://www.w3.org/2000/svg" xmlns:xlink="http://www.w3.org/1999/xlink" x="0px" y="0px"
	 viewBox="0 0 50 50" style="enable-background:new 0 0 50 50;" xml:space="preserve">
<style type="text/css">
	.st0{display:none;}
	.st1{display:inline;}
	.st2{fill:none;stroke:url(#XMLID_12_);stroke-width:3;stroke-miterlimit:10;}
	.st3{display:inline;fill:#861619;}
	.st4{fill:#FFFFFF;}
</style>
<g id="Layer_2" class="st0">
	<rect id="XMLID_2_" x="0" y="0" class="st1" width="50" height="50"/>
</g>
<g id="Layer_1">
	<linearGradient id="XMLID_12_" gradientUnits="userSpaceOnUse" x1="1" y1="25" x2="51.5" y2="25">
		<stop  offset="5.102041e-003" style="stop-color:#FFFFFF"/>
		<stop  offset="0.4184" style="stop-color:#FFFFFF;stop-opacity:0"/>
	</linearGradient>
	<polygon id="XMLID_1_" class="st2" points="50,36.9 26.3,48.8 2.5,36.9 2.5,13.1 26.3,1.2 50,13.1 	"/>
</g>
<g id="Layer_4" class="st0">
	<rect id="XMLID_9_" x="9.8" y="13.8" class="st3" width="22.5" height="22.5"/>
</g>
<g id="Layer_3">
	<g id="XMLID_6_">
		<path id="XMLID_7_" class="st4" d="M26.7,29.3h2.8v-6.7l-3.1-3.1l-2,2l2.3,2.3V29.3L26.7,29.3z M29.5,30.7h-4.1h-5.7l-2.3-2.3l1-1
			l1.9,1.9h4l-3.9-3.9l1-1l3.9,3.9v-4l-1.9-1.9l1-1l-4.8-4.9h-4.8l0,0h-5l2.8,2.8v0h0h5.8l2,2l-3,3l-2-2v-1.6h-2.8v2.7l4.8,4.8l-2,2
			l3.1,3.1h4.8h8.9l0,0L29.5,30.7L29.5,30.7z"/>
	</g>
</g>
</svg>
