<?xml version="1.0" encoding="utf-8"?>
<!-- Generator: Adobe Illustrator 19.0.0, SVG Export Plug-In . SVG Version: 6.00 Build 0)  -->
<svg version="1.1" xmlns="http://www.w3.org/2000/svg" xmlns:xlink="http://www.w3.org/1999/xlink" x="0px" y="0px"
	 viewBox="0 0 50 50" style="enable-background:new 0 0 50 50;" xml:space="preserve">
<style type="text/css">
	.st0{display:none;}
	.st1{display:inline;}
	.st2{fill:none;stroke:url(#XMLID_16_);stroke-width:3;stroke-miterlimit:10;}
	.st3{display:inline;fill:#861619;}
	.st4{fill:#FFFFFF;}
</style>
<g id="Layer_2" class="st0">
	<rect id="XMLID_2_" x="0" y="0" class="st1" width="50" height="50"/>
</g>
<g id="Layer_1">
	<linearGradient id="XMLID_16_" gradientUnits="userSpaceOnUse" x1="1" y1="25" x2="51.5" y2="25">
		<stop  offset="5.102041e-003" style="stop-color:#FFFFFF"/>
		<stop  offset="0.4184" style="stop-color:#FFFFFF;stop-opacity:0"/>
	</linearGradient>
	<polygon id="XMLID_1_" class="st2" points="50,36.9 26.3,48.8 2.5,36.9 2.5,13.1 26.3,1.2 50,13.1 	"/>
</g>
<g id="Layer_4" class="st0">
	<rect id="XMLID_9_" x="9.8" y="13.8" class="st3" width="22.5" height="22.5"/>
</g>
<g id="Layer_3">
	<g id="XMLID_14_">
		<path id="XMLID_15_" class="st4" d="M21,13.8c-6.2,0-11.3,5-11.3,11.3c0,6.2,5.1,11.3,11.3,11.3s11.3-5,11.3-11.3
			C32.3,18.8,27.2,13.8,21,13.8z M10.9,25c0-1.5,0.3-2.9,0.9-4.1l4.8,13.2C13.2,32.5,10.9,29,10.9,25z M21,35.2c-1,0-2-0.1-2.9-0.4
			l3-8.8l3.1,8.5c0,0,0,0.1,0.1,0.1C23.3,34.9,22.2,35.2,21,35.2z M22.4,20.3c0.6,0,1.2-0.1,1.2-0.1c0.5-0.1,0.5-0.9-0.1-0.8
			c0,0-1.6,0.1-2.7,0.1c-1,0-2.7-0.1-2.7-0.1c-0.5,0-0.6,0.8-0.1,0.8c0,0,0.5,0.1,1.1,0.1l1.6,4.3l-2.2,6.6l-3.7-11
			c0.6,0,1.2-0.1,1.2-0.1c0.5-0.1,0.5-0.9-0.1-0.8c0,0-1.6,0.1-2.7,0.1c-0.2,0-0.4,0-0.7,0c1.8-2.7,4.9-4.6,8.4-4.6
			c2.6,0,5,1,6.8,2.7c0,0-0.1,0-0.1,0c-1,0-1.7,0.9-1.7,1.8c0,0.8,0.5,1.5,1,2.4c0.4,0.7,0.8,1.5,0.8,2.8c0,0.9-0.3,1.9-0.8,3.3
			l-1,3.4L22.4,20.3L22.4,20.3z M26.1,33.8l3.1-8.9c0.6-1.4,0.8-2.6,0.8-3.6c0-0.4,0-0.7-0.1-1c0.8,1.4,1.2,3.1,1.2,4.9
			C31.1,28.8,29.1,32,26.1,33.8z"/>
	</g>
</g>
</svg>
